<svg viewBox="0 0 84 73" xmlns="http://www.w3.org/2000/svg">
  <path fill="#514A9B" d="M7 72.86h58.85a7 7 0 0 0 7-7.01V53.24c-.04-1.84-2.77-1.84-2.8 0v12.6a4.2 4.2 0 0 1-4.2 4.21H7a4.2 4.2 0 0 1-4.2-4.21V30.82H28.96a1.4 1.4 0 0 0 0-2.8H2.8v-2.8a4.2 4.2 0 0 1 4.2-4.2H28.95c1.83-.02 1.85-2.77 0-2.8H7C3.14 18.21 0 21.36 0 25.22v40.63a7 7 0 0 0 7 7.01Z"/>
  <circle cx="11.21" cy="25.22" r="1.4" fill="#514A9B"/>
  <circle cx="7" cy="25.22" r="1.4" fill="#514A9B"/>
  <circle cx="15.41" cy="25.22" r="1.4" fill="#514A9B"/>
  <path fill="#514A9B" d="M75.33 15.47C78.22 2.63 62.02-5.51 53.45 4.43 45.72-.43 35.4 6.12 36.49 15.2 26.82 20.24 30.38 34.95 41.33 35.02h32.93c12.34-.36 13.24-17.87 1.07-19.55Zm-1.07 16.76H41.33c-4.25 0-7.71-3.46-7.71-7.71 0-3.2 1.93-6.02 4.92-7.18.64-.25 1.01-.94.87-1.66-1.14-5.13 2.94-10.18 8.2-10.12 1.92 0 3.73.63 5.19 1.84.61.5 1.59.37 2-.27 6.73-9.6 21.45-1.75 17.21 9.19-.43.94.42 2.09 1.43 1.97 9.7-.57 10.43 13.57.71 13.97Z"/>
  <path fill="#514A9B" d="M49.51 63.74c2.64 1.89 6.64-.24 6.54-3.5V40.63c-.14-5.54-8.26-5.54-8.37 0v11.76l-1.87-1.25c-4.69-2.96-9.18 3.82-4.65 7.01l8.35 5.62Zm-7.24-9.88c.41-.63 1.33-.82 1.94-.39l4.05 2.7c.89.63 2.22-.07 2.18-1.12V40.63c.03-1.83 2.77-1.85 2.81 0v19.62c.03 1.08-1.29 1.76-2.17 1.14l-8.41-5.6c-.63-.41-.8-1.33-.4-1.93Z"/>
  <path fill="#514A9B" d="M67.25 60.24V48.48l1.87 1.25c2.99 2.1 7.26-.76 6.42-4.34a5.22 5.22 0 0 0-1.95-2.92l-8.41-5.6c-2.66-1.87-6.64.24-6.54 3.5v19.61c.15 5.55 8.26 5.57 8.61.02Zm-5.6 0V40.63c-.04-1.08 1.29-1.76 2.17-1.14l8.41 5.6c1.53 1.02 0 3.32-1.52 2.34l-4.05-2.7c-.88-.63-2.22.07-2.18 1.12v14.51c-.03 1.84-2.77 1.85-2.83-.02Z"/>
</svg>
