<svg width="13" height="14" viewBox="0 0 13 14" fill="none" xmlns="http://www.w3.org/2000/svg">
<path d="M11.2318 13.6402C11.5853 14.0645 12.2159 14.1218 12.6402 13.7682C13.0645 13.4147 13.1218 12.7841 12.7682 12.3598L11.2318 13.6402ZM2.09054 0.00410693C1.54052 -0.0458946 1.05411 0.359448 1.00411 0.909464L0.189285 9.8725C0.139284 10.4225 0.544626 10.9089 1.09464 10.9589C1.64466 11.0089 2.13107 10.6036 2.18107 10.0536L2.90536 2.08643L10.8725 2.81071C11.4225 2.86072 11.9089 2.45537 11.9589 1.90536C12.0089 1.35534 11.6036 0.86893 11.0536 0.818928L2.09054 0.00410693ZM12 13L12.7682 12.3598L2.76822 0.359816L2 1L1.23178 1.64018L11.2318 13.6402L12 13Z" fill="white"/>
</svg>
