<svg width="68" height="68" viewBox="0 0 68 68" fill="none" xmlns="http://www.w3.org/2000/svg">
<path fill-rule="evenodd" clip-rule="evenodd" d="M0.00133492 16.5774C-0.102427 8.02489 5.85547 2.75835 13.459 0.314354C16.6123 -0.700287 19.8003 0.882207 21.2821 3.75609L25.7844 12.4813C29.0156 18.7478 23.6774 20.7482 21.0285 24.6975C20.5961 25.3403 20.2676 25.8823 20.3194 25.9716C25.9112 35.4724 32.5264 42.0878 42.0267 47.6798C42.4735 47.9421 45.9986 44.6531 46.235 44.4139C49.1981 41.4334 51.4867 40.1362 55.5162 42.2145L64.241 46.717C67.1118 48.1986 68.6943 51.3867 67.6826 54.5405C65.2383 62.1447 59.9724 68.1027 51.4202 67.9987C31.0507 67.7508 0.252218 36.9514 0.00133492 16.5774ZM36.3831 24.896C40.0955 24.896 43.1048 27.9053 43.1048 31.618C43.1048 34.4169 47.3563 34.4169 47.3563 31.618C47.3563 25.559 42.4448 20.6444 36.3831 20.6444C33.5843 20.6472 33.5842 24.896 36.3831 24.896ZM36.3831 14.5739C45.7971 14.5739 53.4269 22.204 53.4269 31.6184C53.4269 34.4174 57.6784 34.4174 57.6784 31.6184C57.6784 19.8574 48.1433 10.3228 36.3836 10.3228C33.5848 10.3257 33.5842 14.5739 36.3831 14.5739ZM36.3831 4.2519C51.498 4.2519 63.7485 16.5029 63.7485 31.6184C63.7485 34.4174 68 34.4174 68 31.6184C68 14.1563 53.8443 0 36.3828 0C33.584 0.00288232 33.5842 4.2519 36.3831 4.2519ZM6.74345 9.26172C-7.34585 25.9771 42.0235 75.3492 58.739 61.2593C61.0074 59.3482 62.6129 56.483 63.6535 53.2492C64.0195 52.1134 63.3422 51.0268 62.3045 50.4906L53.5797 45.9881C51.7032 45.0196 51.2363 45.4058 49.2446 47.4063C47.1491 49.5135 43.2002 53.2867 39.8881 51.3352C29.6875 45.328 22.6746 38.3145 16.6674 28.1135C13.9551 23.5073 21.847 18.3877 22.4869 16.3673C22.6282 15.9234 22.4869 15.3383 22.0142 14.4245L17.5119 5.69933C16.9758 4.66167 15.8863 3.98713 14.7535 4.35034C11.5223 5.388 8.65702 6.9932 6.74345 9.26172Z" fill="#514A9B"/>
</svg>
