<svg width="60" height="57" viewBox="0 0 60 57" fill="none" xmlns="http://www.w3.org/2000/svg">
<path d="M58.3569 39C57.42 39 56.6868 39.6908 56.6868 40.5669V48.0309C56.6868 51.2616 53.879 53.8633 50.4697 53.8633H9.55743C6.11358 53.8633 3.34037 51.2616 3.34037 48.0309V40.5669C3.34037 39.6879 2.60397 39 1.67018 39C0.733212 39 0 39.6908 0 40.5669V48.0309C0 52.9843 4.27734 57 9.56063 57H50.4384C55.7185 57 59.999 52.9873 59.999 48.0309V40.5669C60.0304 39.6908 59.2939 39 58.3569 39Z" fill="#514A9B"/>
<path d="M29.6083 0C28.4403 0 27.5263 0.917971 27.5263 2.082V37.789L18.6083 28.332C17.8153 27.5 16.4833 27.457 15.6513 28.25C14.8193 29.0429 14.7763 30.375 15.5692 31.207L28.0692 44.5C28.4442 44.9179 29.0263 45.1679 29.5692 45.1679C30.1122 45.1679 30.6943 44.9179 31.0693 44.5L43.5693 31.207C44.3622 30.3749 44.3193 29.039 43.4872 28.25C42.6552 27.457 41.3192 27.5 40.5302 28.332L31.6122 37.789L31.6083 2.082C31.6903 0.957001 30.7763 0 29.6083 0Z" fill="#514A9B"/>
</svg>
