<svg width="80" height="63" viewBox="0 0 80 63" fill="none" xmlns="http://www.w3.org/2000/svg">
<path d="M77.015 17.1835C77.015 17.1835 77.015 17.1796 77.0111 17.1796C76.8744 17.0116 76.7104 16.8827 76.5307 16.789C75.2143 15.6952 73.5463 15.0156 71.7026 15.0156H66.5151V6.4531C66.5151 2.8984 63.6206 0 60.062 0H19.25C15.6914 0 12.7969 2.8945 12.7969 6.4531V15.0156H7.60937C5.76957 15.0156 4.10157 15.6992 2.78127 16.7929C2.60158 16.8867 2.43752 17.0195 2.30471 17.1835C2.30471 17.1835 2.30471 17.1874 2.3008 17.1874C0.886699 18.5702 0 20.4921 0 22.6249V54.9999C0 57.1561 0.91016 59.0976 2.3594 60.4843C2.50002 60.6679 2.67581 60.8046 2.87112 60.9062C4.17582 61.957 5.80862 62.6093 7.61332 62.6093H71.7073C75.9026 62.6093 79.3167 59.1952 79.3167 54.9999V22.6249C79.3167 20.4921 78.43 18.5702 77.0159 17.1874L77.015 17.1835ZM51.878 39.6675L75.566 20.3705C75.9528 21.0346 76.191 21.7963 76.191 22.6166V54.9916C76.191 55.8744 75.9254 56.6947 75.484 57.39L51.878 39.6675ZM71.706 18.1365C72.1865 18.1365 72.6396 18.2303 73.0732 18.3709L66.5185 23.7107V18.1365L71.706 18.1365ZM15.925 6.44853C15.925 4.61263 17.4172 3.12043 19.2531 3.12043H60.0651C61.901 3.12043 63.3932 4.61263 63.3932 6.44853V26.2575L49.2992 37.7375L40.5961 31.2023C40.0415 30.7844 39.2758 30.7844 38.7211 31.2023L30.018 37.7375L15.924 26.2575L15.925 6.44853ZM3.83504 57.3935C3.39363 56.6982 3.12801 55.8779 3.12801 54.9951V22.6201C3.12801 21.7998 3.36629 21.0381 3.75301 20.374L27.441 39.671L3.83504 57.3935ZM12.7998 18.1355V23.7097L6.24514 18.3699C6.67873 18.2293 7.13186 18.1356 7.61234 18.1356L12.7998 18.1355ZM7.61234 59.4795C7.21781 59.4795 6.84281 59.4131 6.47954 59.3155L39.6595 34.4015L72.8395 59.3155C72.4763 59.4092 72.1013 59.4795 71.7067 59.4795H7.61234Z" fill="#514A9B"/>
<path d="M40.062 55.5385H38.6636C38.2339 55.5385 37.8824 55.8901 37.8824 56.3198C37.8824 56.7495 38.2339 57.101 38.6636 57.101H40.062C40.4917 57.101 40.8433 56.7495 40.8433 56.3198C40.8433 55.8901 40.4917 55.5385 40.062 55.5385Z" fill="#514A9B"/>
<path d="M56.715 55.5385H43.449C43.0193 55.5385 42.6678 55.8901 42.6678 56.3198C42.6678 56.7495 43.0193 57.101 43.449 57.101H56.715C57.1447 57.101 57.4963 56.7495 57.4963 56.3198C57.4963 55.8901 57.1447 55.5385 56.715 55.5385Z" fill="#514A9B"/>
<path d="M19.574 25.3785C20.0037 25.3785 20.3553 25.027 20.3553 24.5973V12.1283C20.3553 11.6986 20.0037 11.347 19.574 11.347C19.1443 11.347 18.7928 11.6986 18.7928 12.1283V24.5973C18.7928 25.027 19.1443 25.3785 19.574 25.3785Z" fill="#514A9B"/>
<path d="M19.574 8.92552C20.0037 8.92552 20.3553 8.57396 20.3553 8.14427V6.44897C20.3553 6.01928 20.0037 5.66772 19.574 5.66772C19.1443 5.66772 18.7928 6.01928 18.7928 6.44897V8.14427C18.7928 8.57396 19.1443 8.92552 19.574 8.92552Z" fill="#514A9B"/>
<path d="M39.699 28.1015H42.9959V26.121H39.699C37.5428 26.121 35.9334 25.6015 34.867 24.5585C33.8006 23.5194 33.2654 21.953 33.2654 19.8671V18.3515C33.2654 17.8515 33.2694 17.3515 33.2772 16.8593C33.3006 14.5195 33.8397 12.7695 34.9022 11.6093C35.9647 10.4452 37.5624 9.86712 39.6952 9.86712C41.7772 9.86712 43.3554 10.4491 44.4335 11.6171C45.5116 12.7812 46.0507 14.5312 46.0507 16.8632V20.539C46.0507 21.0937 45.9725 21.496 45.8124 21.746C45.6522 21.996 45.4022 22.121 45.0546 22.121C44.7225 22.121 44.4765 21.9882 44.3124 21.7148C44.1483 21.4452 44.0702 21.0429 44.0702 20.5039V17.1953C44.0702 13.8828 42.6014 12.2265 39.664 12.2265C36.7266 12.2265 35.2499 13.8788 35.2499 17.1835V19.0858C35.2499 22.3905 36.5468 24.0428 39.1327 24.0428C40.1014 24.0428 40.8593 23.824 41.4139 23.3865C41.7147 23.1482 41.9451 22.8279 42.1248 22.4568C42.2459 22.7264 42.3866 22.9764 42.5741 23.1756C43.1092 23.7537 43.91 24.0428 44.9803 24.0428C45.9607 24.0428 46.7264 23.7498 47.2694 23.1639C47.8162 22.5779 48.0897 21.6287 48.0897 20.3123V16.8592C48.0897 13.8865 47.3826 11.6561 45.9647 10.1678C44.5467 8.67946 42.4608 7.93726 39.6991 7.93726C36.8866 7.93726 34.7811 8.67554 33.3788 10.1561C31.9765 11.6366 31.2655 13.867 31.2421 16.8592C31.2343 17.3513 31.2303 17.8513 31.2303 18.3592V19.8709C31.2303 22.6209 31.9335 24.6834 33.3397 26.0506C34.746 27.4178 36.8631 28.1053 39.6991 28.1053L39.699 28.1015ZM39.6444 22.0038C38.1444 22.0038 37.3983 21.0585 37.3983 19.1718V17.0702C37.3983 15.1952 38.1483 14.2577 39.6444 14.2577C41.1639 14.2577 41.9256 15.1913 41.9256 17.0585V19.1718C41.9256 21.0624 41.1677 22.0038 39.6444 22.0038Z" fill="#514A9B"/>
</svg>
