<svg xmlns="http://www.w3.org/2000/svg" xmlns:xlink="http://www.w3.org/1999/xlink" width="800" zoomAndPan="magnify" viewBox="0 0 525 525.000007" height="700" preserveAspectRatio="xMidYMid meet" version="1.0"><defs><filter x="0%" y="0%" width="100%" height="100%" id="f11735580a"><feColorMatrix values="0 0 0 0 1 0 0 0 0 1 0 0 0 0 1 0 0 0 1 0" color-interpolation-filters="sRGB"/></filter><clipPath id="22b6fcb9a6"><path d="M 0.5 0 L 524.5 0 L 524.5 524 L 0.5 524 Z M 0.5 0 " clip-rule="nonzero"/></clipPath><mask id="ae6d71d56c"><g filter="url(#f11735580a)"><rect x="-52.5" width="630" fill="#000000" y="-52.500001" height="630.000008" fill-opacity="0.2"/></g></mask><clipPath id="5bac84b6ad"><path d="M 0.695312 0.765625 L 233.164062 0.765625 L 233.164062 233.234375 L 0.695312 233.234375 Z M 0.695312 0.765625 " clip-rule="nonzero"/></clipPath><clipPath id="90ef74b032"><path d="M 116.929688 0.765625 C 52.734375 0.765625 0.695312 52.808594 0.695312 117 C 0.695312 181.195312 52.734375 233.234375 116.929688 233.234375 C 181.121094 233.234375 233.164062 181.195312 233.164062 117 C 233.164062 52.808594 181.121094 0.765625 116.929688 0.765625 Z M 116.929688 0.765625 " clip-rule="nonzero"/></clipPath><clipPath id="6cdcc7cfbb"><rect x="0" width="234" y="0" height="234"/></clipPath></defs><g clip-path="url(#22b6fcb9a6)"><path fill="#ffffff" d="M 0.5 0 L 599.359375 0 L 599.359375 524 L 0.5 524 Z M 0.5 0 " fill-opacity="1" fill-rule="nonzero"/><path fill="#ffffff" d="M 0.5 0 L 599.359375 0 L 599.359375 524 L 0.5 524 Z M 0.5 0 " fill-opacity="1" fill-rule="nonzero"/></g><g mask="url(#ae6d71d56c)"><g transform="matrix(1, 0, 0, 1, 183, 145)"><g clip-path="url(#6cdcc7cfbb)"><g clip-path="url(#5bac84b6ad)"><g clip-path="url(#90ef74b032)"><path fill="#3a8316" d="M 0.695312 0.765625 L 233.164062 0.765625 L 233.164062 233.234375 L 0.695312 233.234375 Z M 0.695312 0.765625 " fill-opacity="1" fill-rule="nonzero"/></g></g></g></g></g></svg>