<svg width="75" height="57" viewBox="0 0 75 57" fill="none" xmlns="http://www.w3.org/2000/svg">
<path d="M4.70706 52.211H20.5821C25.2501 52.211 29.7071 53.254 33.9141 55.254C34.9961 55.797 36.2071 56.047 37.3711 56.047H37.414H37.457C38.625 56.047 39.789 55.797 40.914 55.254C45.121 53.254 49.582 52.211 54.246 52.211H70.121C72.703 52.211 74.828 50.086 74.828 47.504L74.8319 4.75C74.8319 2.125 72.7069 0 70.0819 0H54.2499C48.9569 0 43.8749 1.168 39.1249 3.457C38.5819 3.71091 37.996 3.83591 37.414 3.83591C36.832 3.83591 36.289 3.71091 35.707 3.46091C30.957 1.16791 25.875 0.00391006 20.582 0.00391006H4.75001C2.12501 0.00391006 5.37891e-06 2.12891 5.37891e-06 4.75391V47.5039C-0.00390162 50.0859 2.12116 52.211 4.70706 52.211ZM54.2461 4.168H70.0781C70.4101 4.168 70.6601 4.418 70.6601 4.75003V47.5C70.6601 47.793 70.4101 48.043 70.1171 48.043H54.2421C49.1171 48.043 44.1601 49.168 39.4921 51.336L39.496 7.711C39.9531 7.586 40.4531 7.41803 40.914 7.211C45.121 5.168 49.5821 4.168 54.2461 4.168ZM4.16406 4.75003C4.16406 4.418 4.41406 4.168 4.74609 4.168H20.5781C25.2461 4.168 29.7031 5.211 33.9101 7.211C34.3671 7.41803 34.8281 7.586 35.3281 7.711L35.332 51.336C30.664 49.168 25.707 48.043 20.582 48.043H4.707C4.41403 48.043 4.16403 47.793 4.16403 47.5L4.16406 4.75003Z" fill="white"/>
<path d="M13.1641 15.4609H20.5821C22.3751 15.4609 24.2071 15.6289 26.0001 15.918C26.1251 15.9609 26.2501 15.9609 26.3751 15.9609C27.3751 15.9609 28.2501 15.2539 28.4181 14.2539C28.5821 13.0859 27.8321 12 26.7072 11.8359C24.6642 11.4609 22.6213 11.293 20.5822 11.293H13.1642C11.9962 11.293 11.0822 12.2109 11.0822 13.375C11.0822 14.543 11.9961 15.4609 13.1641 15.4609Z" fill="white"/>
<path d="M13.1641 27.9999H20.5821C22.4141 27.9999 24.2071 28.1679 26.0001 28.457C26.1251 28.4999 26.2501 28.4999 26.3751 28.4999C27.3751 28.4999 28.2501 27.7929 28.4181 26.7929C28.6251 25.6679 27.8751 24.5859 26.7111 24.3749C24.7111 24.0429 22.6291 23.832 20.5861 23.832L13.1642 23.8359C11.9962 23.8359 11.0822 24.7538 11.0822 25.9179C11.0822 27.0859 11.9961 27.9999 13.1641 27.9999Z" fill="white"/>
<path d="M13.1641 40.543H20.5821C22.3751 40.543 24.2071 40.7109 26.0001 41C26.1251 41.043 26.2501 41.043 26.3751 41.043C27.3751 41.043 28.2501 40.3359 28.4181 39.336C28.6251 38.211 27.8751 37.129 26.7111 36.918C24.6681 36.5859 22.6291 36.375 20.5861 36.375H13.1642C11.9962 36.375 11.0822 37.293 11.0822 38.457C11.0822 39.625 11.9961 40.543 13.1641 40.543Z" fill="white"/>
<path d="M48.4961 15.961C48.6211 15.961 48.7461 15.961 48.8711 15.918C50.6641 15.6251 52.4531 15.461 54.2891 15.461H61.7071C62.8751 15.461 63.7891 14.543 63.7891 13.379C63.7891 12.211 62.8711 11.297 61.7071 11.297H54.2891C52.2461 11.297 50.1641 11.465 48.1641 11.84C47.0391 12.047 46.2891 13.133 46.4571 14.258C46.6211 15.2502 47.4961 15.961 48.4961 15.961Z" fill="white"/>
<path d="M48.4961 28.4999C48.6211 28.4999 48.7461 28.4999 48.8711 28.457C50.6211 28.164 52.4531 27.9999 54.2891 27.9999H61.7071C62.8751 27.9999 63.7891 27.082 63.7891 25.9179C63.7891 24.7499 62.8711 23.8359 61.7071 23.8359H54.2891C52.2461 23.8359 50.1641 24.0039 48.1641 24.3789C47.0391 24.5859 46.2891 25.6719 46.4571 26.7969C46.6211 27.793 47.4961 28.4999 48.4961 28.4999Z" fill="white"/>
<path d="M48.4961 41.043C48.6211 41.043 48.7461 41.043 48.8711 41C50.6641 40.707 52.4961 40.543 54.2891 40.543H61.7071C62.8751 40.543 63.7891 39.625 63.7891 38.461C63.7891 37.293 62.8711 36.379 61.7071 36.379H54.2891C52.2461 36.379 50.2071 36.5469 48.1641 36.9219C47.0391 37.129 46.2891 38.2149 46.4571 39.3399C46.6211 40.336 47.4961 41.043 48.4961 41.043Z" fill="white"/>
</svg>
