<svg width="51" height="51" viewBox="0 0 51 51" fill="none" xmlns="http://www.w3.org/2000/svg">
<path d="M25.5 0C11.4079 0 0 6.33333 0 20.3333V47C0 49.2005 1.81131 51 4.02632 51H12.0789C14.294 51 16.1053 49.2005 16.1053 47V33.6667C16.1053 31.4661 14.294 29.6667 12.0789 29.6667H4.02632C3.5571 29.6667 3.08792 29.7344 2.68421 29.8672V20.3332C2.68421 7.86719 12.952 3 25.5 3C38.048 3 48.3158 7.86719 48.3158 20.3332V29.8672C47.9121 29.7344 47.4429 29.6667 46.9737 29.6667H38.9211C36.706 29.6667 34.8947 31.4661 34.8947 33.6667V47C34.8947 49.2005 36.706 51 38.9211 51H46.9737C49.1887 51 51 49.2005 51 47V20.3333C51 6.33333 39.5921 0 25.5 0ZM4.02632 32.3333H12.0789C12.8182 32.3333 13.4211 32.9323 13.4211 33.6667V47C13.4211 47.7344 12.8182 48.3333 12.0789 48.3333H4.02632C3.28708 48.3333 2.68421 47.7344 2.68421 47V33.6667C2.68421 32.9323 3.28711 32.3333 4.02632 32.3333ZM48.3158 47C48.3158 47.7344 47.7129 48.3333 46.9737 48.3333H38.9211C38.1818 48.3333 37.5789 47.7344 37.5789 47V33.6667C37.5789 32.9323 38.1818 32.3333 38.9211 32.3333H46.9737C47.7129 32.3333 48.3158 32.9323 48.3158 33.6667V47Z" fill="#514A9B"/>
</svg>
