<svg xmlns="http://www.w3.org/2000/svg" viewBox="0 0 925.37 474.2"><defs><style>.cls-1{fill:#52b122;}.cls-2{fill:#3b347f;}.cls-3{fill:#4eaf1d;}.cls-4{fill:#469319;}.cls-5{fill:#2a255b;}</style></defs><g id="Layer_2" data-name="Layer 2"><g id="Layer_1-2" data-name="Layer 1"><path class="cls-1" d="M77.88,239.85,77.4,369.41,57.81,385.08l-.48-136.87c.44-1,3.53-7.56,10.51-9.4A14.7,14.7,0,0,1,77.88,239.85Z"/><path class="cls-1" d="M52.08,264.63,51.6,388.71,32,403.71l-.48-131.07c.44-.94,3.53-7.24,10.51-9A15.26,15.26,0,0,1,52.08,264.63Z"/><path class="cls-1" d="M26.75,288.45q-.24,58.88-.47,117.74L6.69,420.44,6.21,296a16.57,16.57,0,0,1,10.51-8.54A15.93,15.93,0,0,1,26.75,288.45Z"/><path class="cls-2" d="M182.23,364.45c-14.75,9.06-30.71,17.49-45.59,25.35A499,499,0,0,1,0,438.06l37.27-22a338.54,338.54,0,0,0,76.92-54.47c24.8-23.46,45.66-43.19,45.11-65.34,0-1-.09-2-.2-3-1.44-13-9.66-21-44-47.78C41.59,188,15.22,174.64,8.12,144.7c-2.23-9.42-3.47-24.34,4.3-44.91a41.33,41.33,0,0,0,0,5.73c2,28,32.3,46.71,58.77,62.59,80.46,48.29,87,51,104.15,63.55,40.63,29.53,61.72,44.88,62.59,66.89C238.92,323.6,213.24,345.41,182.23,364.45Z"/><path class="cls-3" d="M356.79,301.33c3,10.55,4.76,26.88-3.84,49.86a216,216,0,0,0-33.79-48.34c-32.73-35.21-59.3-39.36-108-72.63-49.79-34-75.22-51.41-76.24-76.28-1.08-26.6,26.13-50.76,55.68-69.49C208.88,72.87,228,63.37,242,56.65a417.43,417.43,0,0,1,94.69-32.28s3.2-3.85-20.53-24.37l65.43,11.54-32.72,50a145.2,145.2,0,0,0-3.2-28.23,783.93,783.93,0,0,0-89.57,59.92c-29.52,22.87-43.63,37.27-43,54.78.3,8.76,4,16,9.13,23.84,1.53,2.32,3.2,4.68,5,7.14,15.2,21.32,32.69,32.57,43.31,39.73C317.2,250.27,348,271,356.79,301.33Z"/><path class="cls-4" d="M381.55,11.54l-32.72,50a145.2,145.2,0,0,0-3.2-28.23,783.93,783.93,0,0,0-89.57,59.92c-29.52,22.87-43.63,37.27-43,54.78.3,8.76,4,16,9.13,23.84-.62-.32-1.23-.67-1.84-1-33.46-20-30.25-78.31-29.73-86l0-.43C208.88,72.87,228,63.37,242,56.65a417.43,417.43,0,0,1,94.69-32.28s3.2-3.85-20.53-24.37Z"/><path class="cls-5" d="M182.55,362.1c-.09.79-.2,1.57-.32,2.35-14.75,9.06-30.71,17.49-45.59,25.35A499,499,0,0,1,0,438.06l37.27-22a338.54,338.54,0,0,0,76.92-54.47c24.8-23.46,45.66-43.19,45.11-65.34C163.75,301.12,186.62,327.08,182.55,362.1Z"/></g><g id="Layer_2-2" data-name="Layer 2"><rect class="cls-2" x="908.55" y="366.56" width="16.82" height="69.3"/><rect class="cls-2" x="543.9" y="365.89" width="16.82" height="69.3"/><rect class="cls-2" x="259.32" y="366.56" width="16.82" height="69.3"/><path class="cls-2" d="M903.84,406.25,883.65,411l-2-6.07,20.86-7.4s-3.13-8.32-11.13-11c-3.07-1-6-.58-11.75.26-6.79,1-10.55,1.54-13.46,4.71a14.46,14.46,0,0,0-3.36,8.25,18.71,18.71,0,0,0,2.69,11.93H848l.67-18.16H831.18v18.16H813.69c-5.4-13.63-14-23.09-22.21-24.22a18.86,18.86,0,0,0-8.06.68c-4.58,1.6-7.11,4.93-9.43,8.07a38.67,38.67,0,0,0-6.73,15.47c-3.81-.23-7.62-.44-11.44-.66V367.23H738.33q.34,28.26.68,56.51c2.3,5.06,5.19,7.47,7.4,8.76,3.68,2.11,7.38,2.16,20.18,2l8.08-5.39,6.05,6.06,22.88.68q.67-4.38,1.34-8.75c2.25,2.46,4.48,4.94,6.73,7.4l20.86.67a13.46,13.46,0,0,0,4.7-3.36c1.32-1.48,1.82-2.78,2.7-2.7s1.07,1.62,2.69,3.38a9.93,9.93,0,0,0,2.69,2,137.78,137.78,0,0,0,34.31-.67,136.29,136.29,0,0,0,24.89-6.06ZM794.07,411.3l-5.48.16-5.48.15a.13.13,0,0,1-.12-.19l2.61-4.83,1.06-2a2,2,0,0,1,3.48-.1l1.17,1.9,2.87,4.67A.13.13,0,0,1,794.07,411.3Z"/><path class="cls-2" d="M224.33,373.29,212.9,389.43l18.83,16.15V411H216.26v-6.73H200.11v16.82a21,21,0,0,0,4.71,9.42,20.67,20.67,0,0,0,6.06,4.71l28.25-.67a26.4,26.4,0,0,0,8.08-9.42c3-6.15,2.68-12.11,1.34-29.6h0Z"/><path class="cls-2" d="M709.41,371.94,698,388.09l18.84,16.14v5.39H701.33v-6.73H685.19v16.82A20.6,20.6,0,0,0,696,433.84l28.26-.68a26.17,26.17,0,0,0,8.07-9.42c3.05-6.14,2.69-12.1,1.35-29.6h0Z"/><path class="cls-2" d="M654.24,388.76q.68,11.44,1.34,22.87l-19.51.68V392.8l-18.16.67v40.37l-15.47,15.47,14.8,14.13a61.25,61.25,0,0,0,18.83-28.26h25.57a26.74,26.74,0,0,0,11.44-10.76V388.76H654.24Z"/><path class="cls-2" d="M589,374l-11.44,15.47L595,406.25l2,2L595.71,411h-14.8l-.68-6H564.76v18.16s2.69,10.09,11.44,11.44,27.58.67,27.58.67,8.75-5.38,9.42-11.44.67-26.91.67-26.91Z"/><path class="cls-2" d="M499.5,392.8v18.83h-6.73l-.67-17.49H476V411H469.9V395.49H452.41l-.68,40.36H432.89l-.67-30.94H416.08q.33,18.16.67,36.33A18.43,18.43,0,0,0,421.46,452c3.3,3.5,7.19,4.51,10.76,5.38l26.24-.67h0a15.49,15.49,0,0,0,8.75-6,15.73,15.73,0,0,0,2-4.71c.84-3,.68-10.77.68-10.77h10.76l5.38-6.05,3.37,3.36,3.36,3.36,13.46-.67a15.47,15.47,0,0,0,6-3.36,15.71,15.71,0,0,0,4.71-8.08v-29.6h0V392.8Z"/><path class="cls-2" d="M388.49,390.11l.67,20.85h-8.07V393.47H365.62V411h-7.4V393.47H342.74a65.59,65.59,0,0,1-2,18.16H332q-6.06-15.81-12.11-31.62l-16.82,5.39,8.07,23.54v2.69h-14.8v-6.72H280.17q.34,9.42.68,18.83c3.89,8.21,9,10.22,10.76,10.77,1.52.48,4.16.54,9.42.67,7.27.18,9.31-.42,10.09-.67a18.28,18.28,0,0,0,7.4-4.71l8.08,5.38h16.82l5.38-4.71,5.38,4.71h13.46l6.05-4.71,6.73,4.71h14.13a17.31,17.31,0,0,0,7.4-5.38,17.83,17.83,0,0,0,3.36-8.07c.49-2.61,0-31,0-31h0Z"/><path class="cls-2" d="M521.7,392.8v41l-16.15,15.47,14.13,14.13a39.11,39.11,0,0,0,14.13-14.13,38.37,38.37,0,0,0,4.71-13.46q.35-21.53.67-43.05Z"/><path class="cls-2" d="M487.3,374.33l-3-.74a.42.42,0,0,1-.17-.73l2.39-2a.42.42,0,0,0-.38-.72l-3,.75a.42.42,0,0,1-.48-.57l1-2.49h0l.17-.39a.42.42,0,0,0-.67-.47L480.76,369a.42.42,0,0,1-.69-.28l-.11-1.15-.07-.71-.12-1.26a.42.42,0,0,0-.81-.1l-1.12,2.92a.41.41,0,0,1-.74.08l-1.71-2.62a.41.41,0,0,0-.76.28l.38,3.12a.43.43,0,0,1-.63.42l-2.73-1.52a.42.42,0,0,0-.56.59l1.79,2.58a.42.42,0,0,1-.36.66l-3.12-.08a.42.42,0,0,0-.21.79l2.78,1.45a.43.43,0,0,1,0,.76l-2.81,1.38a.42.42,0,0,0,.19.8h3.13a.43.43,0,0,1,.35.67L471,380.31a.42.42,0,0,0,.53.62l2.78-1.46a.42.42,0,0,1,.61.43l-.45,3.1a.41.41,0,0,0,.75.29l1.78-2.57a.42.42,0,0,1,.74.1l1,2.95a.43.43,0,0,0,.83-.09l.37-3.11a.41.41,0,0,1,.69-.26l2.3,2.14a.42.42,0,0,0,.67-.46l-1.11-2.93a.42.42,0,0,1,.51-.55l3,.82a.42.42,0,0,0,.39-.72l-2.35-2.06a.43.43,0,0,1,.19-.74l3.05-.67A.41.41,0,0,0,487.3,374.33Zm-6,.93a3.21,3.21,0,1,1-2.8-3.5A3.16,3.16,0,0,1,481.26,375.26Z"/><path class="cls-2" d="M503.37,372.53l-3.12-.36a.43.43,0,0,1-.26-.71l2.13-2.29a.42.42,0,0,0-.46-.68l-2.92,1.13a.43.43,0,0,1-.56-.51l.82-3a.42.42,0,0,0-.72-.39l-2.07,2.35a.41.41,0,0,1-.72-.18l-.68-3.06a.42.42,0,0,0-.82,0l-.73,3.05a.42.42,0,0,1-.74.17l-.23-.28-1.79-2.11a.42.42,0,0,0-.72.37l0,.14.72,2.9a.42.42,0,0,1-.56.5l-1.23-.5-1.28-.53-.39-.15a.42.42,0,0,0-.47.67l2.09,2.33a.42.42,0,0,1-.28.7l-3.12.31a.42.42,0,0,0-.1.81l2.94,1.09a.43.43,0,0,1,.07.76l-2.61,1.71a.42.42,0,0,0,.29.77l3.1-.39a.42.42,0,0,1,.42.62l-1.52,2.74a.42.42,0,0,0,.61.54l2.57-1.79a.41.41,0,0,1,.65.36l-.06,3.13a.42.42,0,0,0,.8.2l1.43-2.78a.42.42,0,0,1,.75,0L496,383a.42.42,0,0,0,.8-.19v-3.13a.41.41,0,0,1,.66-.34l2.55,1.83a.41.41,0,0,0,.6-.54l-1.46-2.76a.42.42,0,0,1,.43-.61l3.1.44a.41.41,0,0,0,.3-.75l-2.58-1.78a.41.41,0,0,1,.09-.74l3-1A.43.43,0,0,0,503.37,372.53Zm-9.1,4.79a3.12,3.12,0,1,1,3.21-3.11A3.16,3.16,0,0,1,494.27,377.32Z"/><path class="cls-2" d="M495.29,359.08l-3.11-.36a.43.43,0,0,1-.26-.71l2.13-2.3a.42.42,0,0,0-.46-.67l-2.92,1.12a.41.41,0,0,1-.55-.5l.81-3a.42.42,0,0,0-.72-.38l-2.07,2.35a.42.42,0,0,1-.72-.18l-.69-3.06a.41.41,0,0,0-.81,0l-.74,3a.42.42,0,0,1-.73.16l-2-2.38a.42.42,0,0,0-.73.37l.77,3a.43.43,0,0,1-.58.49L479,354.9a.42.42,0,0,0-.46.68l2.08,2.33a.41.41,0,0,1-.27.69l-3.11.31a.43.43,0,0,0-.12.82l2.94,1.09a.41.41,0,0,1,.08.74l-2.61,1.72a.42.42,0,0,0,.28.77l3.1-.38a.41.41,0,0,1,.42.61l-1.43,2.59-.08.15a.42.42,0,0,0,.15.56.39.39,0,0,0,.46,0l2.56-1.79a.43.43,0,0,1,.67.36l0,.78,0,.87h0l0,1.47a.43.43,0,0,0,.8.2l1.44-2.78a.42.42,0,0,1,.75,0l.9,1.81.5,1a.41.41,0,0,0,.78-.19v-3.13a.42.42,0,0,1,.67-.34l.41.3,2.13,1.54a.38.38,0,0,0,.35.06.43.43,0,0,0,.27-.6l-1.48-2.77a.42.42,0,0,1,.44-.61l3.1.45a.43.43,0,0,0,.3-.77l-2.59-1.77a.42.42,0,0,1,.1-.74l2.95-1A.42.42,0,0,0,495.29,359.08Zm-9.1,4.79a3.13,3.13,0,1,1,3.22-3.13A3.17,3.17,0,0,1,486.19,363.87Z"/><path class="cls-2" d="M665.5,451a.42.42,0,0,1,0-.75l2.8-1.4a.42.42,0,0,0-.19-.8l-3.13,0a.42.42,0,0,1-.34-.67l1.82-2.54a.42.42,0,0,0-.53-.62l-2.76,1.47a.42.42,0,0,1-.62-.42l.45-3.11a.42.42,0,0,0-.77-.29l-1.76,2.59a.42.42,0,0,1-.74-.1l-1.05-2.95a.42.42,0,0,0-.81.09l-.36,3.1a.43.43,0,0,1-.71.27l-2.29-2.12a.42.42,0,0,0-.68.45l1.13,2.92a.42.42,0,0,1-.51.56l-3-.82a.42.42,0,0,0-.38.72l2.35,2.07a.41.41,0,0,1-.18.72l-3.06.69a.42.42,0,0,0,0,.82l3,.73a.42.42,0,0,1,.18.73l-2.38,2a.42.42,0,0,0,.37.73l3-.77a.43.43,0,0,1,.5.57l-1,2.49h0l-.17.4a.41.41,0,0,0,.14.49.4.4,0,0,0,.53,0l2.33-2.09a.42.42,0,0,1,.7.27l.11,1.15h0l.08.69.12,1.26a.42.42,0,0,0,.81.11l1.09-2.93a.44.44,0,0,1,.76-.09l1.72,2.62a.42.42,0,0,0,.76-.29l-.39-3.1a.42.42,0,0,1,.62-.42l2.74,1.51a.42.42,0,0,0,.54-.61l-1.78-2.57a.42.42,0,0,1,.34-.66l3.14.07a.42.42,0,0,0,.2-.79Zm-2.93-.28a3.21,3.21,0,1,1-2.82-3.48A3.16,3.16,0,0,1,662.57,450.72Z"/><path class="cls-2" d="M652.27,452.05,649.33,451a.43.43,0,0,1-.08-.75l2.61-1.72a.42.42,0,0,0-.29-.76l-3.1.39a.42.42,0,0,1-.42-.62l1.51-2.74a.42.42,0,0,0-.61-.54L646.38,446a.42.42,0,0,1-.66-.35l.06-3.13a.42.42,0,0,0-.79-.2l-1.44,2.79a.42.42,0,0,1-.74,0l-1.41-2.8a.42.42,0,0,0-.79.19l0,3.13a.42.42,0,0,1-.67.34l-2.55-1.82a.42.42,0,0,0-.61.54l1.48,2.76a.42.42,0,0,1-.43.61l-3.11-.43a.42.42,0,0,0-.29.76l2.59,1.76a.42.42,0,0,1-.09.74L634,452a.42.42,0,0,0,.09.81l3.12.36a.42.42,0,0,1,.26.69l-2.13,2.31a.42.42,0,0,0,.46.67l2.93-1.13a.42.42,0,0,1,.55.5l-.8,3a.42.42,0,0,0,.72.38l2.06-2.36a.42.42,0,0,1,.72.18l.69,3.06a.42.42,0,0,0,.82,0l.72-3.05a.43.43,0,0,1,.74-.17l.23.28,1.8,2.11a.42.42,0,0,0,.72-.39l0-.12-.73-2.9a.42.42,0,0,1,.56-.5l1.21.49,1.3.52.39.15a.41.41,0,0,0,.47-.66l-2.1-2.33a.42.42,0,0,1,.27-.7l3.12-.32A.42.42,0,0,0,652.27,452.05Zm-9.07,2.13a3.12,3.12,0,1,1,3.21-3.13A3.18,3.18,0,0,1,643.2,454.18Z"/><path class="cls-2" d="M660.39,465.48l-2.94-1.09a.43.43,0,0,1-.08-.75l2.61-1.73a.42.42,0,0,0-.29-.76l-3.1.4a.42.42,0,0,1-.42-.62l1.43-2.6.08-.14a.39.39,0,0,0-.16-.55h0a.41.41,0,0,0-.45,0l-2.56,1.8a.42.42,0,0,1-.67-.35v-.77l0-.89h0l0-1.46a.42.42,0,0,0-.79-.2l-1.44,2.78a.42.42,0,0,1-.74,0l-.91-1.82-.5-1a.42.42,0,0,0-.8.19v.27l0,2.85a.42.42,0,0,1-.67.35l-.4-.29-2.14-1.53a.38.38,0,0,0-.35-.07.42.42,0,0,0-.26.6l1.48,2.77a.41.41,0,0,1-.43.6l-3.11-.42a.41.41,0,0,0-.29.75l2.59,1.77a.42.42,0,0,1-.09.74l-3,1.06a.42.42,0,0,0,.09.81l3.12.35a.42.42,0,0,1,.26.7l-2.13,2.31a.42.42,0,0,0,.46.67l2.93-1.13a.41.41,0,0,1,.55.49l-.8,3a.42.42,0,0,0,.72.38l2.06-2.35a.41.41,0,0,1,.72.18l.7,3.06a.42.42,0,0,0,.81,0l.73-3.05a.42.42,0,0,1,.73-.17l2,2.38a.42.42,0,0,0,.73-.37l-.77-3a.42.42,0,0,1,.56-.5l2.91,1.17a.41.41,0,0,0,.46-.67l-2.09-2.33a.43.43,0,0,1,.27-.7l3.12-.31A.42.42,0,0,0,660.39,465.48Zm-9.07,2.14a3.13,3.13,0,1,1,3.2-3.14A3.2,3.2,0,0,1,651.32,467.62Z"/><path class="cls-2" d="M538.35,373.2l-3.11-.36a.42.42,0,0,1-.26-.7l2.12-2.3a.41.41,0,0,0-.45-.67l-2.92,1.12a.42.42,0,0,1-.56-.51l.82-3a.42.42,0,0,0-.72-.38l-2.07,2.35a.42.42,0,0,1-.72-.18l-.69-3.06a.42.42,0,0,0-.82,0l-.73,3a.42.42,0,0,1-.73.17l-2-2.38a.41.41,0,0,0-.72.37l.76,3a.42.42,0,0,1-.57.49l-2.9-1.18a.42.42,0,0,0-.47.66l2.09,2.34a.42.42,0,0,1-.27.7l-3.11.31a.43.43,0,0,0-.12.82l2.94,1.09a.42.42,0,0,1,.08.74l-2.61,1.72a.42.42,0,0,0,.28.77l3.1-.39a.42.42,0,0,1,.42.62l-1.52,2.74a.42.42,0,0,0,.61.55l2.58-1.79a.42.42,0,0,1,.65.36l-.07,3.13a.43.43,0,0,0,.8.2l1.44-2.78a.42.42,0,0,1,.75,0l1.39,2.8a.42.42,0,0,0,.79-.19v-3.13a.42.42,0,0,1,.67-.35l2.54,1.85a.42.42,0,0,0,.62-.54l-1.48-2.77a.43.43,0,0,1,.43-.62l3.11.45a.42.42,0,0,0,.29-.76l-2.58-1.77a.42.42,0,0,1,.09-.74l3-1.05A.42.42,0,0,0,538.35,373.2Zm-9.1,4.8a3.13,3.13,0,1,1,3.22-3.13A3.16,3.16,0,0,1,529.25,378Z"/><path class="cls-2" d="M815.8,372.68l-.16-.11h0l0,0h-.06l-3.11-.36a.43.43,0,0,1-.26-.71l2.13-2.29a.42.42,0,0,0-.46-.68l-2.92,1.13a.42.42,0,0,1-.55-.51l.81-3a.42.42,0,0,0-.72-.39l-2.07,2.35a.41.41,0,0,1-.72-.18l-.69-3.06a.42.42,0,0,0-.81,0l-.74,3.05a.41.41,0,0,1-.72.17l-2-2.39a.42.42,0,0,0-.73.37l.77,3a.43.43,0,0,1-.57.5l-2.91-1.18a.42.42,0,0,0-.46.67l2.08,2.33a.42.42,0,0,1-.27.7l-3.11.31a.42.42,0,0,0-.12.81l2.94,1.09a.43.43,0,0,1,.09.76l-2.62,1.71a.42.42,0,0,0,.28.77l3.11-.39a.42.42,0,0,1,.42.62l-1.52,2.74a.42.42,0,0,0,.61.54l2.57-1.79a.42.42,0,0,1,.66.36l-.07,3.13a.42.42,0,0,0,.79.2l1.44-2.78a.42.42,0,0,1,.75,0l1.4,2.8a.42.42,0,0,0,.79-.19l0-3.13a.43.43,0,0,1,.68-.34l2.53,1.83a.42.42,0,0,0,.62-.54l-1.46-2.76a.41.41,0,0,1,.42-.61l3.1.44a.41.41,0,0,0,.3-.75l-2.28-1.58,0,0-.17-.11v0l-.08-.05a.42.42,0,0,1,.11-.74l2.94-1A.42.42,0,0,0,815.8,372.68Zm-9.36,4.64a3.12,3.12,0,1,1,3.21-3.11A3.16,3.16,0,0,1,806.44,377.32Z"/><path class="cls-2" d="M831.11,374.78l-2.92-1.11a.42.42,0,0,1-.08-.75l2.62-1.71a.41.41,0,0,0-.28-.76l-3.11.37a.42.42,0,0,1-.41-.62l1.53-2.73a.42.42,0,0,0-.61-.55l-2.58,1.77a.41.41,0,0,1-.65-.36l.08-3.12a.42.42,0,0,0-.79-.21l-1.46,2.77a.41.41,0,0,1-.74,0L820.32,365a.42.42,0,0,0-.79.19v3.13a.42.42,0,0,1-.67.33l-2.53-1.84a.42.42,0,0,0-.62.53l1.45,2.78a.41.41,0,0,1-.42.6l-3.11-.46a.42.42,0,0,0-.29.77l2.25,1.56,0,0h0l.16.11.11.07a.43.43,0,0,1-.1.75l-2.95,1a.42.42,0,0,0-.21.65v0l.17.11,0,0h0l3.12.38a.42.42,0,0,1,.25.7l-2.14,2.28a.43.43,0,0,0,.46.69l2.93-1.11a.42.42,0,0,1,.55.5l-.84,3a.42.42,0,0,0,.72.39l2.09-2.34a.42.42,0,0,1,.72.19l.67,3.06a.42.42,0,0,0,.81,0l.75-3a.42.42,0,0,1,.74-.17l2,2.39a.42.42,0,0,0,.73-.37l-.75-3a.43.43,0,0,1,.57-.5l2.89,1.19a.41.41,0,0,0,.47-.66l-2.07-2.35a.43.43,0,0,1,.27-.7l3.12-.29A.42.42,0,0,0,831.11,374.78Zm-8.38,2.46a3.12,3.12,0,1,1,2.4-3.79A3.16,3.16,0,0,1,822.73,377.24Z"/></g></g></svg>