<svg xmlns="http://www.w3.org/2000/svg" width="522" height="500" fill="none"><path fill="#E3E6F0" d="M107.073 476.915c0 4.07-15.174 7.368-33.896 7.368s-33.884-3.298-33.884-7.368 15.174-7.367 33.884-7.367 33.896 3.297 33.896 7.367M521.611 314.667c0 23.325-7.26 33.812-16.208 33.812s-16.208-10.486-16.208-33.812c0-23.327 7.255-50.667 16.208-50.667s16.208 27.334 16.208 50.667"/><path fill="#E3E6F0" d="M505.894 343.568h-.982v41.257h.982zM494.106 326.067c0 18.173-5.5 26.342-12.279 26.342s-12.279-8.171-12.279-26.342 5.497-39.474 12.279-39.474 12.279 21.295 12.279 39.474"/><path fill="#E3E6F0" d="M482.318 348.479h-.982v36.346h.982zM440.079 484.283c0 8.676-63.761 15.717-142.437 15.717s-142.436-7.041-142.436-15.717 63.761-15.717 142.436-15.717c78.674 0 142.437 7.041 142.437 15.717"/><path fill="url(#a)" d="M210.216 484.283h-15.325c-11.548 0-21.238-9.388-21.613-21.04l-11.184-347.912c-.374-11.641 8.713-21.029 20.261-21.029h15.325c-11.548 0-20.635 9.388-20.261 21.029l11.184 347.912c.374 11.652 10.065 21.04 21.613 21.04"/><path fill="url(#b)" d="M210.216 484.283h-10.258c-11.603 0-21.338-9.388-21.715-21.04l-11.238-347.912c-.375-11.641 8.755-21.029 20.358-21.029h10.258c-11.603 0-20.733 9.388-20.358 21.029l11.238 347.912c.375 11.652 10.112 21.04 21.715 21.04"/><path fill="#fff" d="m395.359 115.342 11.309 347.901c.38 11.651-8.73 21.04-20.412 21.04H210.002c-11.683 0-21.486-9.389-21.864-21.04l-11.309-347.901c-.38-11.651 8.814-21.04 20.496-21.04h176.254c11.683 0 21.402 9.388 21.78 21.04"/><path fill="#fff" d="m260.761 439.306.533 16.28c.075 2.292-1.766 4.139-4.05 4.139h-37.293c-2.284 0-4.212-1.847-4.288-4.139l-.533-16.28a3.987 3.987 0 0 1 4.016-4.139h37.293c2.284 0 4.246 1.847 4.322 4.139"/><path fill="#E1E5E2" d="m319.7 439.306.534 16.28c.074 2.292-1.767 4.139-4.051 4.139H278.89c-2.284 0-4.212-1.847-4.288-4.139l-.533-16.28a3.987 3.987 0 0 1 4.016-4.139h37.293c2.284 0 4.246 1.847 4.322 4.139M378.639 439.306l.534 16.28c.074 2.292-1.767 4.139-4.051 4.139h-37.293c-2.284 0-4.212-1.847-4.288-4.139l-.533-16.28a3.99 3.99 0 0 1 4.016-4.139h37.293c2.284 0 4.246 1.847 4.322 4.139"/><path fill="#fff" d="m318.718 402.96.533 16.28c.075 2.292-1.767 4.139-4.05 4.139h-37.294c-2.283 0-4.211-1.847-4.287-4.139l-.533-16.28a3.987 3.987 0 0 1 4.016-4.139h37.293c2.283 0 4.246 1.847 4.322 4.139M376.686 402.96l.522 16.28c.073 2.292-1.729 4.139-3.964 4.139h-36.5c-2.235 0-4.122-1.847-4.196-4.139l-.522-16.28c-.073-2.292 1.695-4.139 3.93-4.139h36.5c2.235 0 4.156 1.847 4.23 4.139M258.797 366.614l.533 16.28c.074 2.293-1.767 4.139-4.051 4.139h-37.293c-2.284 0-4.211-1.846-4.287-4.139l-.534-16.28a3.99 3.99 0 0 1 4.016-4.139h37.293c2.284 0 4.246 1.847 4.323 4.139M316.765 366.614l.522 16.28c.073 2.293-1.73 4.139-3.965 4.139h-36.5c-2.235 0-4.121-1.846-4.196-4.139l-.522-16.28c-.073-2.292 1.696-4.139 3.931-4.139h36.5c2.235 0 4.155 1.847 4.23 4.139M375.692 366.614l.534 16.28c.074 2.293-1.767 4.139-4.051 4.139h-37.293c-2.284 0-4.211-1.846-4.288-4.139l-.533-16.28a3.99 3.99 0 0 1 4.016-4.139h37.293c2.284 0 4.246 1.847 4.322 4.139"/><path fill="#E1E5E2" d="m257.814 330.434.534 16.932c.074 2.383-1.767 4.304-4.051 4.304h-37.293c-2.284 0-4.212-1.921-4.288-4.304l-.533-16.932c-.075-2.384 1.732-4.304 4.016-4.304h37.293c2.284 0 4.246 1.92 4.322 4.304M315.782 330.434l.522 16.932c.073 2.383-1.729 4.304-3.964 4.304h-36.5c-2.235 0-4.122-1.921-4.196-4.304l-.522-16.932c-.073-2.384 1.695-4.304 3.93-4.304h36.5c2.235 0 4.156 1.92 4.23 4.304M374.71 330.434l.533 16.932c.075 2.383-1.767 4.304-4.05 4.304H333.9c-2.284 0-4.212-1.921-4.288-4.304l-.533-16.932c-.075-2.384 1.732-4.304 4.016-4.304h37.293c2.284 0 4.246 1.92 4.322 4.304"/><path fill="#F5F5F5" d="m376.775 159.317 4.358 135.164c.231 7.183-5.387 12.985-12.496 12.985H218.09c-7.144 0-13.101-5.802-13.333-12.985L200.4 159.317c-.23-7.148 5.353-12.952 12.497-12.952h150.547c7.11 0 13.101 5.802 13.333 12.952z"/><path fill="#fff" d="m360.703 168.408 2.751 84.599c.131 4.035-3.043 7.307-7.091 7.307h-128.95c-4.049 0-7.435-3.272-7.566-7.307l-2.751-84.599c-.131-4.036 3.043-7.308 7.091-7.308h128.951c4.046 0 7.434 3.272 7.565 7.308"/><path fill="url(#c)" d="M422.391 448.895c.195 5.982-4.523 10.83-10.54 10.83h-5.545l-9.449-289.784h5.545c6.018 0 11.055 4.848 11.252 10.83l8.739 268.124z"/><path fill="url(#d)" d="M417.479 448.895c.202 5.982-4.664 10.83-10.868 10.83h-.012l-9.742-289.784c6.205 0 11.398 4.848 11.602 10.83l9.022 268.124z"/><path fill="#fff" d="M317.266 197.205c.607 14.647-10.765 26.628-25.399 26.762-14.634.133-26.991-11.633-27.6-26.28-.607-14.647 10.764-26.628 25.398-26.763 14.635-.133 26.992 11.634 27.601 26.281"/><path fill="url(#e)" d="M269.156 197.452c.054 11.389 9.552 20.623 21.211 20.623 11.671 0 21.081-9.234 21.028-20.623-.055-11.399-9.553-20.635-21.224-20.635s-21.07 9.236-21.015 20.635"/><path fill="#fff" d="m302.512 195.127-14.069 9.691a2.68 2.68 0 0 1-1.806.474 2.79 2.79 0 0 1-1.911-.959l-4.14-4.816c-.956-1.095-.797-2.675.345-3.534 1.141-.847 2.839-.648 3.795.448l2.468 2.875 11.999-8.247c1.168-.822 2.852-.586 3.768.546.916 1.12.718 2.7-.45 3.522z"/><path fill="#E1E5E2" d="M366.352 116.391c-.3 1.977-2.015 3.452-4.2 3.452H219.084c-2.529 0-4.733-1.977-4.922-4.414a4.1 4.1 0 0 1 .028-.975c.3-1.977 2.015-3.452 4.199-3.452h143.069c2.529 0 4.731 1.989 4.934 4.427a4 4 0 0 1-.04.962"/><path fill="#fff" d="m347.542 13.2 5.11 102.714H227.197L222.086 13.2c-.181-3.646-1.817-6.95-4.323-9.335S211.892 0 208.251 0h25.424v.038q.466-.038.937-.038h99.09c7.279 0 13.477 5.909 13.84 13.2"/><path fill="#E1E5E2" d="m222.003 13.02.983 19.396h-26.505l-.983-19.397C195.133 5.828 200.774 0 208.092 0c3.66 0 7.044 1.46 9.564 3.812 2.52 2.353 4.165 5.611 4.347 9.207"/><path fill="#fff" d="m259.779 402.96.533 16.28c.075 2.292-1.767 4.139-4.05 4.139h-37.294c-2.283 0-4.211-1.847-4.287-4.139l-.533-16.28a3.987 3.987 0 0 1 4.015-4.139h37.294c2.283 0 4.246 1.847 4.322 4.139"/><path fill="url(#f)" d="M261.295 288.577a3.05 3.05 0 0 1-3.075 3.172h-33.669c-1.763 0-3.23-1.429-3.278-3.172v-.031l-.25-7.332c-.047-1.774 1.326-3.218 3.091-3.218h33.761c1.717.063 3.122 1.476 3.184 3.218l.234 7.363z"/><path fill="#fff" d="M257.365 285.553c.062 1.785-1.285 3.249-3.013 3.249h-33.084l-.245-7.51c-.046-1.817 1.299-3.296 3.029-3.296h33.085v.015z" opacity=".3"/><path fill="url(#g)" d="M313.357 288.577a3.05 3.05 0 0 1-3.074 3.172h-33.669c-1.763 0-3.23-1.429-3.278-3.172v-.031l-.25-7.332c-.047-1.774 1.326-3.218 3.091-3.218h33.761c1.717.063 3.121 1.476 3.184 3.218l.234 7.363z"/><path fill="#fff" d="M309.428 285.553c.062 1.785-1.285 3.249-3.013 3.249h-33.084l-.245-7.51c-.046-1.817 1.299-3.296 3.029-3.296h33.084v.015z" opacity=".3"/><path fill="url(#h)" stroke="#000" d="M325.899 288.546v-.009l-.001-.008-.25-7.33c-.038-1.5 1.117-2.703 2.59-2.703h33.752c1.447.058 2.64 1.255 2.694 2.735v.001l.233 7.361.005.148a2.55 2.55 0 0 1-2.576 2.508h-33.669c-1.492 0-2.734-1.212-2.778-2.679z"/><path fill="#fff" d="M361.491 285.553c.062 1.785-1.285 3.249-3.013 3.249h-33.085l-.245-7.51c-.045-1.817 1.3-3.296 3.028-3.296h33.085v.015l.228 7.542z" opacity=".3"/><path fill="#fff" d="m201.294 255.403-187.988-.04c-5.092 0-9.359-4.096-9.53-9.162L.006 133.969c-.17-5.066 3.821-9.175 8.912-9.175l187.987-.04c5.026 0 9.237 3.992 9.522 8.952l3.789 112.743c.048 4.961-3.896 8.952-8.92 8.952z"/><path fill="#fff" d="m51.314 146.731.746 22.86c.096 2.903-2.134 5.263-4.982 5.262l-22.346-.004c-2.838 0-5.223-2.36-5.317-5.263l-.748-22.86c-.096-2.914 2.134-5.272 4.974-5.272l22.346.003c2.848 0 5.231 2.36 5.326 5.274"/><path fill="url(#i)" d="m42.912 153.737.308 8.836c.067 1.899-1.486 3.439-3.466 3.439h-9.215c-1.98-.002-3.64-1.542-3.707-3.443l-.307-8.835c-.067-1.899 1.486-3.439 3.466-3.439h9.214c1.98.001 3.64 1.541 3.707 3.442"/><path fill="url(#j)" d="M73.672 219.062a2.82 2.82 0 0 1-2.838 2.942l-51.077-.007c-1.624 0-2.996-1.322-3.056-2.944a2.824 2.824 0 0 1 2.839-2.943l51.077.008a3.077 3.077 0 0 1 3.055 2.944"/><path fill="#fff" d="M91.354 235.274c.03.942-.269 1.8-.787 2.424-.511.619-1.235 1.005-2.049 1.005l-67.782-.015c-1.622 0-2.993-1.541-3.052-3.432-.03-.948.275-1.806.786-2.424.512-.626 1.235-1.005 2.05-1.005l67.781.016c1.629 0 2.991 1.533 3.053 3.431"/><path fill="url(#k)" d="M187.621 219.062a2.86 2.86 0 0 1-.783 2.08 2.81 2.81 0 0 1-2.042.862l-45.211-.009c-1.623 0-2.981-1.321-3.041-2.943a2.84 2.84 0 0 1 .783-2.08 2.8 2.8 0 0 1 2.042-.862l45.211.009c1.623 0 2.98 1.315 3.041 2.943"/><path fill="#fff" d="M128.682 219.061a2.86 2.86 0 0 1-.785 2.08 2.82 2.82 0 0 1-2.047.863l-41.268-.006c-1.626 0-2.988-1.322-3.048-2.945-.03-.814.268-1.55.786-2.08a2.8 2.8 0 0 1 2.046-.863l41.268.006c1.62 0 2.987 1.316 3.048 2.945"/><path fill="url(#l)" d="M187.623 155.206h-36.276c-.943.002-1.413-1.16-.725-1.771l17.602-15.66a1.02 1.02 0 0 1 1.34 0l18.665 15.658c.728.619.33 1.773-.606 1.773"/><path fill="#fff" d="M181.098 152.259h-23.252c-.602 0-.907-.773-.466-1.181l11.287-10.441a.633.633 0 0 1 .854 0l11.966 10.441c.467.408.214 1.181-.389 1.181M190.52 176.594l.049 1.444a.717.717 0 0 1-.725.744l-38.716-.007a.78.78 0 0 1-.784-.744l-.049-1.444a.72.72 0 0 1 .733-.752l38.717.007a.78.78 0 0 1 .775.752"/><path fill="#fff" d="m162.019 173.334.063 2.064c.008.239-.167.437-.395.437h-6.978c-.22 0-.416-.198-.422-.437l-.063-2.064c-.007-.248.176-.446.396-.446h6.977c.228 0 .416.198.424.447zM162.011 155.645l.071 2.063a.43.43 0 0 1-.445.445h-7.848a.476.476 0 0 1-.476-.447l-.071-2.063c-.009-.239.197-.437.445-.437h7.848c.256 0 .468.198.475.437zM173.807 155.645l.063 2.063c.008.248-.168.445-.396.445h-6.983c-.22 0-.408-.197-.416-.447l-.063-2.063c-.008-.239.168-.437.388-.437h6.983c.228 0 .416.198.422.437zM174.781 173.334l.071 2.064a.43.43 0 0 1-.445.437h-7.858a.465.465 0 0 1-.466-.437l-.071-2.064a.43.43 0 0 1 .437-.446h7.857c.257 0 .468.198.477.447zM185.595 155.645l.063 2.063c.008.248-.168.445-.388.445h-6.983c-.228 0-.416-.197-.424-.447l-.063-2.063c-.008-.239.168-.437.396-.437h6.983c.22 0 .408.198.414.437zM186.569 173.334l.071 2.064a.43.43 0 0 1-.437.437h-7.857a.467.467 0 0 1-.475-.437l-.071-2.064a.433.433 0 0 1 .445-.446h7.858c.248 0 .459.198.466.447z"/><path fill="#fff" d="M166.994 158.153h5.405l.489 14.735-5.407-.002zM184.188 158.155l.488 14.733h-5.407l-.487-14.735zM155.206 158.153h5.405l.489 14.735-5.406-.002z"/><path fill="#3C4150" d="M256.935 434.185h-37.299a4.47 4.47 0 0 0-3.226 1.348 4.46 4.46 0 0 0-1.28 3.288l.543 16.293c.083 2.546 2.226 4.611 4.771 4.611h37.299a4.51 4.51 0 0 0 3.253-1.362 4.44 4.44 0 0 0 1.28-3.275l-.543-16.293c-.083-2.546-2.238-4.61-4.797-4.61zm3.364 23.502a3.57 3.57 0 0 1-2.558 1.073h-37.299c-2.03 0-3.727-1.652-3.797-3.675l-.543-16.293c-.028-.991.32-1.899 1.002-2.587a3.5 3.5 0 0 1 2.532-1.06h37.299c2.045 0 3.768 1.651 3.825 3.675l.543 16.293a3.48 3.48 0 0 1-1.002 2.574zM315.001 434.185h-36.533a4.35 4.35 0 0 0-3.16 1.348c-.845.882-1.279 2.05-1.239 3.288l.518 16.293c.081 2.546 2.18 4.611 4.672 4.611h36.533a4.41 4.41 0 0 0 3.202-1.362 4.54 4.54 0 0 0 1.239-3.275l-.517-16.293c-.081-2.546-2.208-4.61-4.713-4.61zm3.297 23.502a3.44 3.44 0 0 1-2.506 1.073h-36.533c-1.988 0-3.65-1.652-3.719-3.675l-.517-16.293a3.5 3.5 0 0 1 .967-2.587 3.4 3.4 0 0 1 2.48-1.06h36.533c2.003 0 3.691 1.651 3.759 3.675l.518 16.293a3.52 3.52 0 0 1-.982 2.574M373.829 434.185h-37.296a4.5 4.5 0 0 0-3.241 1.348 4.44 4.44 0 0 0-1.266 3.288l.529 16.293c.082 2.546 2.226 4.611 4.772 4.611h37.31a4.55 4.55 0 0 0 3.27-1.362 4.42 4.42 0 0 0 1.265-3.275l-.528-16.293c-.083-2.546-2.24-4.61-4.814-4.61zm3.38 23.502a3.6 3.6 0 0 1-2.574 1.073h-37.31c-2.017 0-3.729-1.652-3.798-3.675l-.528-16.293c-.029-.991.319-1.899.987-2.587a3.5 3.5 0 0 1 2.546-1.06h37.295a3.855 3.855 0 0 1 3.84 3.673l.528 16.293a3.53 3.53 0 0 1-.987 2.574zM277.404 424.362h37.311a4.53 4.53 0 0 0 3.27-1.377 4.38 4.38 0 0 0 1.266-3.262l-.529-16.293c-.082-2.546-2.239-4.609-4.813-4.609h-37.297a4.5 4.5 0 0 0-3.242 1.349 4.41 4.41 0 0 0-1.265 3.288l.528 16.293c.083 2.531 2.227 4.611 4.772 4.611zm-4.327-20.93c-.028-.991.32-1.912.987-2.6a3.55 3.55 0 0 1 2.546-1.046h37.297c2.046 0 3.77 1.652 3.84 3.674l.528 16.293a3.47 3.47 0 0 1-.987 2.572 3.6 3.6 0 0 1-2.574 1.073h-37.312c-2.017 0-3.729-1.651-3.798-3.673zM336.358 424.362h37.297a4.53 4.53 0 0 0 3.269-1.377 4.38 4.38 0 0 0 1.266-3.262l-.529-16.293c-.082-2.546-2.239-4.609-4.813-4.609h-37.297a4.53 4.53 0 0 0-3.242 1.349 4.45 4.45 0 0 0-1.265 3.288l.543 16.293c.07 2.531 2.212 4.611 4.772 4.611zm-4.342-20.93c-.028-.991.32-1.912 1.002-2.6a3.52 3.52 0 0 1 2.533-1.046h37.297c2.059 0 3.77 1.652 3.84 3.674l.528 16.293a3.47 3.47 0 0 1-.987 2.572 3.59 3.59 0 0 1-2.574 1.073h-37.297c-2.031 0-3.742-1.651-3.812-3.673l-.528-16.293zM218.369 388.016h36.52a4.38 4.38 0 0 0 3.201-1.363 4.46 4.46 0 0 0 1.239-3.277l-.517-16.302c-.081-2.533-2.193-4.599-4.713-4.599h-36.52c-1.212 0-2.344.469-3.174 1.35-.845.867-1.28 2.037-1.239 3.29l.517 16.302c.081 2.533 2.18 4.599 4.686 4.599m-4.251-20.942c-.028-.977.313-1.9.966-2.589a3.44 3.44 0 0 1 2.493-1.046h36.52c.994 0 1.92.413 2.602 1.074a3.84 3.84 0 0 1 1.158 2.602l.517 16.302a3.54 3.54 0 0 1-.967 2.576 3.48 3.48 0 0 1-2.52 1.06h-36.52c-1.988 0-3.664-1.637-3.732-3.675l-.517-16.302zM276.436 388.016h37.297a4.53 4.53 0 0 0 3.27-1.363 4.4 4.4 0 0 0 1.265-3.277l-.528-16.302c-.083-2.533-2.239-4.599-4.814-4.599H275.63a4.473 4.473 0 0 0-4.508 4.64l.544 16.302c.083 2.533 2.211 4.599 4.772 4.599zm-4.34-20.942c-.028-.977.32-1.9 1.003-2.589a3.52 3.52 0 0 1 2.532-1.046h37.297c1.029 0 1.976.413 2.672 1.074a3.85 3.85 0 0 1 1.168 2.602l.528 16.302c.042.964-.32 1.872-.987 2.576a3.57 3.57 0 0 1-2.574 1.06h-37.297c-2.031 0-3.742-1.637-3.811-3.675l-.529-16.302zM335.374 388.016h37.285a4.52 4.52 0 0 0 3.269-1.363 4.43 4.43 0 0 0 1.28-3.277l-.543-16.302c-.083-2.533-2.239-4.599-4.798-4.599h-37.3c-1.237 0-2.378.469-3.225 1.35a4.4 4.4 0 0 0-1.28 3.29l.543 16.302c.082 2.533 2.225 4.599 4.77 4.599zm-4.339-20.942a3.497 3.497 0 0 1 3.534-3.635h37.3c2.045 0 3.756 1.638 3.825 3.676l.543 16.302a3.5 3.5 0 0 1-1.002 2.576 3.57 3.57 0 0 1-2.573 1.06h-37.285c-2.03 0-3.741-1.637-3.797-3.675l-.543-16.302zM216.515 351.67h37.297a4.53 4.53 0 0 0 3.27-1.363 4.4 4.4 0 0 0 1.265-3.275l-.528-16.292c-.083-2.531-2.24-4.61-4.814-4.61h-37.297a4.53 4.53 0 0 0-3.241 1.348 4.5 4.5 0 0 0-1.266 3.288l.542 16.292c.083 2.546 2.226 4.61 4.772 4.61zm-4.34-20.928a3.5 3.5 0 0 1 1.002-2.587 3.53 3.53 0 0 1 2.533-1.06h37.297c2.059 0 3.77 1.651 3.839 3.673l.544 16.292a3.52 3.52 0 0 1-1.002 2.573 3.53 3.53 0 0 1-2.575 1.074h-37.296c-2.031 0-3.742-1.652-3.812-3.674l-.528-16.291zM275.452 351.67h37.285a4.52 4.52 0 0 0 3.269-1.363 4.42 4.42 0 0 0 1.28-3.275l-.543-16.292c-.083-2.531-2.239-4.61-4.797-4.61h-37.3a4.47 4.47 0 0 0-3.226 1.348 4.45 4.45 0 0 0-1.28 3.288l.542 16.292c.082 2.546 2.225 4.61 4.77 4.61zm-4.34-20.928a3.5 3.5 0 0 1 1.002-2.587 3.53 3.53 0 0 1 2.532-1.06h37.3c1.015 0 1.96.413 2.656 1.073.695.675 1.141 1.582 1.167 2.6l.542 16.292a3.46 3.46 0 0 1-1.002 2.573 3.53 3.53 0 0 1-2.573 1.074h-37.285c-2.03 0-3.728-1.652-3.797-3.674l-.543-16.291zM334.268 351.67h36.534a4.4 4.4 0 0 0 3.202-1.363 4.52 4.52 0 0 0 1.239-3.275l-.532-16.292c-.068-2.531-2.193-4.61-4.699-4.61h-36.534a4.35 4.35 0 0 0-3.16 1.348c-.845.88-1.279 2.05-1.239 3.288l.518 16.292c.081 2.546 2.18 4.61 4.673 4.61zm-4.237-20.928a3.53 3.53 0 0 1 .967-2.587 3.44 3.44 0 0 1 2.48-1.06h36.534c.995 0 1.921.413 2.602 1.073a3.86 3.86 0 0 1 1.158 2.6l.517 16.292c.028.976-.313 1.885-.981 2.573a3.39 3.39 0 0 1-2.506 1.074h-36.534c-1.989 0-3.651-1.652-3.719-3.674zM227.897 261.297h128.954a7.48 7.48 0 0 0 5.463-2.319c1.433-1.487 2.179-3.459 2.123-5.571l-2.759-85.441c-.138-4.32-3.751-7.848-8.041-7.848H224.67c-4.285 0-7.716 3.477-7.573 7.889l2.744 85.427c.138 4.333 3.751 7.863 8.056 7.863M224.67 161.09h128.967c3.779 0 6.952 3.098 7.075 6.917l2.759 85.427a6.72 6.72 0 0 1-1.847 4.876 6.59 6.59 0 0 1-4.773 2.014H227.897c-3.794 0-6.965-3.111-7.09-6.918l-2.745-85.442c-.141-3.772 2.822-6.875 6.608-6.875z"/><path fill="#3C4150" d="M414.674 180.978c-.194-6.237-5.436-11.299-11.671-11.299h-5.062l-1.757-54.268c-.387-11.88-10.358-21.533-22.223-21.533h-21.836l-3.997-80.255C347.754 6.114 341.337 0 333.816 0H208.551c-7.558 0-13.371 6.108-13.001 13.665l.982 19.61a.484.484 0 0 0 .484.456h25.86l3.001 60.147-43.366.002c-11.963 0-21.337 9.631-20.951 21.552l.295 9.065h-.008l-152.453.028c-2.6 0-4.992 1.01-6.776 2.849-1.77 1.84-2.697 4.273-2.613 6.86l3.761 112.673c.18 5.324 4.675 9.653 9.999 9.653l152.375.028 6.718 207.145c.385 11.873 10.395 21.532 22.315 21.532h191.44c5.767 0 11.119-2.241 15.047-6.307 3.943-4.065 6.003-9.487 5.823-15.255l-.097-3.084h5.02c3.029 0 5.836-1.176 7.911-3.32s3.153-4.993 3.056-8.021l-8.699-268.301zM197.472 32.763l-.953-19.14C196.176 6.636 201.516.968 208.551.968c5.407 0 10.066 3.38 12.127 7.829a13.2 13.2 0 0 1 1.204 4.868l.955 19.098h-25.365m25.376-19.14c-.261-5.31-3.592-10.417-9.183-12.655h120.149c7.011 0 12.985 5.698 13.346 12.697 2.707 54.332 4.678 93.963 5.075 101.884H227.923c-.069-1.362-.149-2.737-5.075-101.926m4.109 101.926h-4.329a.49.49 0 0 0-.484.484c0 .277.22.484.484.484h134.945a.47.47 0 0 0 .484-.484.473.473 0 0 0-.484-.484h-4.37l-.179-3.623h8.546c2.282 0 4.288 1.868 4.467 4.163.264 1.861-1.246 4.066-3.761 4.066h-143.45c-2.283 0-4.273-1.853-4.453-4.15a5 5 0 0 1 .028-.899c.277-1.88 1.811-3.181 3.735-3.181h8.643l.179 3.622zm-44.445-20.7h9.049c-9.101 2.9-14.822 11.332-14.517 20.583l.293 9.052-14.512.013-.295-9.096c-.367-11.364 8.558-20.553 19.984-20.553zM4.734 246.863.974 134.205a8.4 8.4 0 0 1 2.35-6.169c1.592-1.632 3.735-2.544 6.072-2.544l187.745-.041c4.701 0 8.754 3.83 9.017 8.52.013.402.295 8.672 3.789 113.17.028 2.282-.83 4.426-2.421 6.015a8.06 8.06 0 0 1-3.581 2.129 5.7 5.7 0 0 1-.968.208 7 7 0 0 1-1.453.138l-187.76-.041c-4.813 0-8.863-3.914-9.03-8.726m202.89-97.957c1.603-.774 3.402-1.176 5.269-1.176h150.766c6.873 0 12.64 5.574 12.875 12.433l4.357 134.62c.111 3.319-1.078 6.445-3.36 8.795-2.268 2.351-5.352 3.637-8.672 3.637H218.093c-6.873 0-12.654-5.587-12.875-12.46l-1.245-38.476a9.27 9.27 0 0 0 4.245-2.449c1.77-1.783 2.725-4.163 2.697-6.722l-3.291-98.206zm-33.798 314.794-6.718-207.115h.008l14.506.013 6.718 207.132c.262 8.117 4.935 16.499 15.855 20.564h-9.022c-11.403 0-20.978-9.239-21.347-20.595zm227.143 14.579c-3.748 3.873-8.851 6.015-14.356 6.015H210.622c-11.381-.018-20.95-9.276-21.316-20.594l-5.107-157.476-1.608-49.624h18.932c.497 0 .996-.041 1.48-.125l1.245 38.309c.249 7.399 6.445 13.401 13.843 13.401h150.767c3.581 0 6.914-1.396 9.376-3.927 2.448-2.544 3.747-5.92 3.622-9.502l-4.357-134.62c-.248-7.37-6.458-13.373-13.843-13.373H212.89a13.1 13.1 0 0 0-5.298 1.092l-.471-13.926c-.304-5.298-4.688-9.446-9.985-9.446H178.3l-.29-9.072c-.34-11.556 8.688-20.562 19.977-20.562l.012-.002h27.929l.802 16.112h-8.602c-2.38 0-4.343 1.688-4.688 4.011a4.2 4.2 0 0 0-.028 1.107c.207 2.779 2.628 5.049 5.407 5.049H362.27c2.86 0 4.946-2.415 4.729-5.117-.221-2.78-2.67-5.049-5.436-5.049h-8.587l-.802-16.111h21.782c11.353 0 20.896 9.238 21.255 20.592l11.187 344.711.11 3.581c.18 5.505-1.798 10.678-5.546 14.549zm18.642-21.658c-1.881 1.95-4.44 3.028-7.206 3.028h-5.047l-9.363-289.003h5.006c5.725 0 10.524 4.647 10.703 10.359l8.699 268.301c.097 2.767-.899 5.365-2.792 7.317z"/><path fill="#3C4150" d="M291.128 224.951h.248c7.208-.069 13.867-2.937 18.759-8.081 4.631-4.882 7.154-11.239 7.154-18.036 0-.386-.013-.772-.028-1.159-.62-14.892-13.246-26.833-28.104-26.751-7.194.069-13.866 2.937-18.745 8.079-4.907 5.157-7.43 11.97-7.126 19.195.607 14.797 13.067 26.751 27.842 26.751zm-20.027-45.283c4.714-4.95 11.124-7.708 18.07-7.777h.247c7.126 0 13.701 2.881 18.567 7.556 4.866 4.674 8.007 11.128 8.311 18.27.289 6.95-2.15 13.528-6.863 18.478-4.714 4.965-11.124 7.721-18.07 7.79h-.235c-14.252 0-26.298-11.542-26.89-25.826-.289-6.963 2.15-13.527 6.863-18.491"/><path fill="#3C4150" d="M284.833 205.074a3.27 3.27 0 0 0 2.56 1.213c.654 0 1.294-.209 1.822-.614l14.08-10.349a3.08 3.08 0 0 0 1.196-2.034 3.2 3.2 0 0 0-.655-2.41c-1.071-1.406-3.061-1.713-4.438-.683l-11.631 8.525-2.17-2.702c-1.126-1.378-3.131-1.615-4.479-.557a3.07 3.07 0 0 0-1.142 2.09 3.23 3.23 0 0 0 .724 2.381l4.132 5.14zm-3.881-7.41a2.1 2.1 0 0 1 .765-1.435c.39-.307.863-.446 1.336-.446.654 0 1.322.292 1.78.849l2.477 3.065a.48.48 0 0 0 .668.098l11.992-8.817c.959-.71 2.351-.501 3.103.488.376.501.528 1.086.445 1.685a2.03 2.03 0 0 1-.806 1.393l-14.067 10.35c-.43.32-.961.459-1.489.403a2.22 2.22 0 0 1-1.559-.836l-4.146-5.155a2.17 2.17 0 0 1-.501-1.644zM219.447 424.362h37.312a4.56 4.56 0 0 0 3.269-1.377 4.38 4.38 0 0 0 1.266-3.262l-.528-16.293c-.083-2.546-2.24-4.609-4.814-4.609H218.64a4.5 4.5 0 0 0-3.226 1.349 4.42 4.42 0 0 0-1.266 3.288l.528 16.293c.083 2.531 2.227 4.611 4.773 4.611zm-4.327-20.93a3.5 3.5 0 0 1 .988-2.6 3.54 3.54 0 0 1 2.532-1.046h37.312c1.029 0 1.961.413 2.657 1.074.696.675 1.154 1.595 1.183 2.6l.528 16.293a3.48 3.48 0 0 1-1.002 2.572 3.55 3.55 0 0 1-2.559 1.073h-37.312c-2.031 0-3.729-1.651-3.798-3.673zM257.288 277.996h-33.671c-.987 0-1.892.378-2.574 1.078a3.65 3.65 0 0 0-1.002 2.631l.25 7.374c.056 2.014 1.739 3.652 3.77 3.652h33.671c.987 0 1.906-.392 2.587-1.091a3.5 3.5 0 0 0 .974-2.59l-.222-7.374c-.069-2.029-1.767-3.68-3.783-3.68m2.322 12.955a2.54 2.54 0 0 1-1.878.799h-33.671c-1.502 0-2.755-1.218-2.796-2.701l-.25-7.374a2.6 2.6 0 0 1 .724-1.918 2.6 2.6 0 0 1 1.878-.783h33.671c1.502 0 2.755 1.231 2.811 2.729l.222 7.374a2.51 2.51 0 0 1-.709 1.874zM309.353 277.996h-33.675c-.974 0-1.892.378-2.559 1.078a3.6 3.6 0 0 0-1.015 2.631l.25 7.374c.056 2.014 1.739 3.652 3.769 3.652h33.661a3.54 3.54 0 0 0 2.587-1.091 3.58 3.58 0 0 0 .987-2.59l-.237-7.374c-.069-2.029-1.767-3.68-3.769-3.68zm2.322 12.955c-.5.519-1.167.799-1.891.799h-33.661c-1.502 0-2.754-1.218-2.795-2.701l-.25-7.374c-.014-.728.236-1.413.737-1.918a2.58 2.58 0 0 1 1.863-.783h33.675c1.489 0 2.741 1.231 2.796 2.729l.237 7.374a2.63 2.63 0 0 1-.709 1.874zM361.415 277.996H327.74c-.973 0-1.891.378-2.558 1.078a3.59 3.59 0 0 0-1.015 2.631l.25 7.374c.056 2.014 1.752 3.652 3.769 3.652h33.674c.987 0 1.906-.392 2.574-1.091a3.58 3.58 0 0 0 .987-2.59l-.237-7.374c-.07-2.029-1.767-3.68-3.769-3.68m3.032 11.081a2.51 2.51 0 0 1-.709 1.874 2.54 2.54 0 0 1-1.878.799h-33.674c-1.502 0-2.754-1.218-2.796-2.701l-.25-7.374a2.68 2.68 0 0 1 .737-1.918 2.58 2.58 0 0 1 1.863-.783h33.675c1.489 0 2.739 1.231 2.795 2.729zM18.06 158.645s.004.012.004.018l.378 11.425c.112 3.172 2.786 5.747 5.979 5.747h23.005c1.554 0 2.996-.598 4.047-1.698a5.49 5.49 0 0 0 1.569-4.077l-.379-11.382v-.028c0-.028 0-.056-.013-.069l-.379-11.382c-.098-3.172-2.786-5.745-5.965-5.745H23.287c-1.54 0-2.982.598-4.033 1.683a5.54 5.54 0 0 0-1.569 4.09l.377 11.403s-.003.009-.003.014zm6.36 16.218c-2.662 0-4.9-2.157-4.999-4.802l-.363-10.922v-.007h7.659v.005l.14 4.091c.07 2.211 1.945 4.02 4.186 4.02h4.116l.252 7.611H24.419zm15.262-23.848c1.71 0 3.151 1.376 3.206 3.088l.154 4.549.153 4.577a2.9 2.9 0 0 1-.827 2.157c-.56.585-1.315.89-2.142.89H31.04c-1.722 0-3.15-1.377-3.206-3.088l-.153-4.536-.153-4.592a2.9 2.9 0 0 1 .825-2.157 2.97 2.97 0 0 1 2.142-.892h9.185zm11.089 22.456a4.64 4.64 0 0 1-3.346 1.392H36.39l-.251-7.611h4.087c1.093 0 2.101-.418 2.843-1.183a3.84 3.84 0 0 0 1.107-2.866l-.14-4.062h7.66l.363 10.964a4.56 4.56 0 0 1-1.29 3.368zm-1.007-29.636c.895.876 1.484 2.072 1.525 3.394l.364 10.936h-7.646l-.14-4.105c-.07-2.212-1.946-4.021-4.186-4.021h-4.125l-.255-7.611h11.003a5 5 0 0 1 3.458 1.405zm-29.811-.014c.868-.904 2.059-1.391 3.333-1.391H34.32l.255 7.61h-4.082c-1.091 0-2.1.418-2.855 1.183a3.89 3.89 0 0 0-1.092 2.866l.14 4.073h-7.673l-.363-10.959a4.58 4.58 0 0 1 1.302-3.382M20.238 222.972l51.092.014c1.933 0 3.326-1.789 3.326-3.812v-.131c-.07-2.156-1.67-3.915-3.55-3.915h-51.09c-2.006 0-3.396 1.89-3.313 3.943.056 2.156 1.655 3.9 3.535 3.9zm-.222-6.816h51.092c1.336 0 2.517 1.3 2.575 2.917.03 1.689-1.059 2.889-2.351 2.889l-51.093-.014c-1.364 0-2.519-1.306-2.575-2.917-.026-1.515.956-2.873 2.352-2.873zM87.87 231.841l-66.918-.014c-1.922 0-3.349 1.856-3.267 3.937.056 2.153 1.633 3.908 3.486 3.908l66.918.014c1.89 0 3.267-1.761 3.267-3.761v-.176c-.056-2.153-1.633-3.91-3.486-3.91zm.22 6.822-66.918-.014c-1.345 0-2.484-1.302-2.54-2.913-.025-1.486.93-2.882 2.32-2.882l66.918.014c1.314 0 2.484 1.288 2.54 2.928.029 1.624-1.007 2.868-2.32 2.868zM184.09 215.142l-45.219-.014c-1.936 0-3.366 1.821-3.309 3.937.069 2.152 1.662 3.907 3.532 3.907l45.219.014c1.855 0 3.31-1.71 3.31-3.82v-.117c-.069-2.151-1.648-3.907-3.533-3.907m.221 6.821-45.219-.014c-1.357 0-2.506-1.303-2.562-2.912-.028-1.588.977-2.885 2.34-2.885l45.219.016c1.387 0 2.508 1.326 2.563 2.912.029 1.658-1.054 2.885-2.341 2.885zM125.229 215.129H84.785c-1.82 0-3.31 1.688-3.25 3.944.067 2.155 1.617 3.899 3.469 3.899l40.429.014c1.843 0 3.251-1.74 3.251-3.767v-.176c-.068-2.156-1.618-3.915-3.455-3.915zm.204 6.833-40.43-.014c-1.345 0-2.461-1.306-2.516-2.917-.052-1.484.882-2.873 2.298-2.873h40.444c1.317 0 2.447 1.251 2.502 2.916.054 1.517-.925 2.888-2.298 2.888M20.854 199.694a.8.8 0 0 0 .198.515.65.65 0 0 0 .476.184.68.68 0 0 0 .582-.303l1.943-2.545 2.234 2.572c.144.183.33.276.54.276.226 0 .397-.066.517-.21a.63.63 0 0 0 .16-.489.64.64 0 0 0-.173-.435l-2.458-2.848 2.287-2.809a.63.63 0 0 0 .145-.422.7.7 0 0 0-.211-.462.74.74 0 0 0-.502-.184c-.238 0-.41.079-.529.264l-2.022 2.611-2.208-2.623c-.12-.172-.304-.252-.556-.252a.7.7 0 0 0-.475.184.64.64 0 0 0-.171.501c0 .144.066.29.171.435l2.446 2.848-2.248 2.77a.66.66 0 0 0-.144.422zM29.695 199.694a.8.8 0 0 0 .198.515.65.65 0 0 0 .476.184.68.68 0 0 0 .582-.303l1.943-2.531 2.233 2.558a.66.66 0 0 0 .542.276q.335 0 .516-.198a.67.67 0 0 0 .159-.501.64.64 0 0 0-.172-.435l-2.458-2.835 2.287-2.822a.6.6 0 0 0 .145-.422.7.7 0 0 0-.211-.462.74.74 0 0 0-.502-.184.6.6 0 0 0-.529.264l-2.022 2.611-2.208-2.611c-.12-.171-.304-.264-.556-.264a.7.7 0 0 0-.475.184.64.64 0 0 0-.172.501c0 .144.054.29.172.435l2.446 2.848-2.248 2.77a.66.66 0 0 0-.145.422zM38.536 199.693a.8.8 0 0 0 .198.515c.12.117.277.183.475.183a.68.68 0 0 0 .581-.303l1.944-2.53 2.247 2.571a.65.65 0 0 0 .529.264q.337 0 .516-.198a.67.67 0 0 0 .159-.501.64.64 0 0 0-.172-.434l-2.458-2.836 2.3-2.808a.66.66 0 0 0-.079-.884.69.69 0 0 0-.502-.198.6.6 0 0 0-.53.264l-2.021 2.611-2.208-2.611c-.12-.171-.304-.264-.556-.264a.7.7 0 0 0-.475.184.64.64 0 0 0-.172.501c0 .144.066.29.172.435l2.445 2.861-2.247 2.756a.65.65 0 0 0-.145.422zM50.563 195.408l-2.208-2.61c-.12-.171-.303-.264-.555-.264a.65.65 0 0 0-.475.198.61.61 0 0 0-.172.488c0 .145.066.291.172.435l2.445 2.861-2.247 2.755a.66.66 0 0 0-.145.422.8.8 0 0 0 .199.515c.12.117.276.183.475.183a.65.65 0 0 0 .582-.303l1.944-2.53 2.233 2.571c.145.171.33.264.541.264q.338 0 .515-.198a.64.64 0 0 0 .159-.488.68.68 0 0 0-.172-.449l-2.458-2.834 2.3-2.808a.72.72 0 0 0 .131-.422.66.66 0 0 0-.21-.462.69.69 0 0 0-.503-.198.6.6 0 0 0-.528.264zM70.406 196.51l-2.255 2.765a.7.7 0 0 0-.132.422c0 .21.066.382.185.5.12.132.29.183.489.183a.69.69 0 0 0 .58-.29l1.94-2.541 2.23 2.568a.66.66 0 0 0 .54.276.67.67 0 0 0 .515-.21.78.78 0 0 0 .158-.488.6.6 0 0 0-.185-.434l-2.454-2.844 2.295-2.804a.66.66 0 0 0 .145-.422.68.68 0 0 0-.21-.461.7.7 0 0 0-.516-.183c-.224 0-.396.078-.515.251l-2.018 2.607-2.204-2.607a.67.67 0 0 0-.554-.264.65.65 0 0 0-.475.198c-.132.119-.185.29-.185.487a.7.7 0 0 0 .185.435l2.441 2.858zM79.248 196.502l-2.256 2.77a.7.7 0 0 0-.132.422c0 .211.066.383.185.501.12.132.29.198.489.198a.7.7 0 0 0 .58-.303l1.941-2.545 2.23 2.572a.66.66 0 0 0 .54.276c.223 0 .396-.079.5-.21a.7.7 0 0 0 .172-.489.6.6 0 0 0-.185-.435l-2.454-2.848 2.295-2.809a.74.74 0 0 0 .145-.422.69.69 0 0 0-.21-.462.7.7 0 0 0-.516-.184c-.225 0-.396.079-.514.252l-2.019 2.611-2.204-2.611c-.132-.172-.303-.252-.554-.252a.64.64 0 0 0-.475.184.65.65 0 0 0-.185.488.7.7 0 0 0 .185.435l2.442 2.863zM88.088 196.502l-2.256 2.77a.7.7 0 0 0-.131.422c0 .211.065.383.185.501.12.132.29.198.488.198a.7.7 0 0 0 .582-.303l1.94-2.545 2.23 2.572a.66.66 0 0 0 .54.276c.223 0 .395-.066.513-.21a.75.75 0 0 0 .159-.489.6.6 0 0 0-.185-.435l-2.454-2.848 2.295-2.809a.63.63 0 0 0 .144-.422.69.69 0 0 0-.21-.462.77.77 0 0 0-.514-.184c-.225 0-.396.079-.515.252l-2.019 2.623-2.204-2.623c-.12-.172-.303-.252-.555-.252a.7.7 0 0 0-.474.184.65.65 0 0 0-.185.488.78.78 0 0 0 .185.449l2.441 2.849zM96.929 196.502l-2.256 2.77a.72.72 0 0 0-.132.422c0 .211.066.383.186.501.119.132.29.198.488.198a.7.7 0 0 0 .581-.303l1.94-2.545 2.229 2.572a.65.65 0 0 0 .54.276c.223 0 .396-.066.515-.21a.75.75 0 0 0 .159-.489.6.6 0 0 0-.186-.435l-2.453-2.848 2.295-2.809a.64.64 0 0 0 .144-.422.68.68 0 0 0-.21-.462.77.77 0 0 0-.515-.184c-.225 0-.396.079-.516.252l-2.018 2.623-2.203-2.623c-.132-.172-.318-.252-.555-.252a.7.7 0 0 0-.474.184.65.65 0 0 0-.185.488.78.78 0 0 0 .185.449l2.44 2.849zM117.924 196.516l-2.568 2.755a.6.6 0 0 0-.165.422.75.75 0 0 0 .226.513.8.8 0 0 0 .543.185.82.82 0 0 0 .665-.303l2.221-2.53 2.568 2.571a.8.8 0 0 0 .618.264c.241 0 .439-.066.574-.198a.62.62 0 0 0 .182-.501.6.6 0 0 0-.196-.434l-2.809-2.836 2.627-2.808a.67.67 0 0 0 .151-.435.58.58 0 0 0-.241-.449.85.85 0 0 0-.573-.198c-.272 0-.468.093-.605.264l-2.296 2.611-2.523-2.611c-.151-.171-.363-.264-.634-.264a.88.88 0 0 0-.56.184.6.6 0 0 0-.196.501c0 .144.076.29.213.435l2.778 2.86zM128.624 196.424l2.627-2.808a.66.66 0 0 0 .151-.422.58.58 0 0 0-.241-.462.85.85 0 0 0-.574-.198c-.271 0-.467.093-.604.264l-2.296 2.611-2.523-2.611c-.151-.171-.363-.264-.635-.264a.8.8 0 0 0-.559.198.56.56 0 0 0-.196.488c0 .145.076.291.212.435l2.779 2.861-2.568 2.755a.6.6 0 0 0-.166.422q.022.317.227.513a.8.8 0 0 0 .543.185c.288 0 .498-.092.665-.303l2.221-2.53 2.568 2.571a.8.8 0 0 0 .618.264c.241 0 .439-.066.574-.198a.62.62 0 0 0 .182-.501.6.6 0 0 0-.196-.434zM139.096 200.129a.8.8 0 0 0 .618.264c.241 0 .439-.066.574-.198a.6.6 0 0 0 .181-.488.65.65 0 0 0-.196-.447l-2.808-2.836 2.627-2.808c.106-.132.165-.276.151-.422a.58.58 0 0 0-.241-.462.85.85 0 0 0-.574-.198c-.271 0-.467.093-.604.264l-2.296 2.611-2.523-2.611c-.151-.171-.363-.264-.635-.264a.8.8 0 0 0-.559.198.57.57 0 0 0-.196.488c0 .145.076.291.212.435l2.778 2.861-2.567 2.755a.6.6 0 0 0-.166.434c.015.212.09.369.227.501a.8.8 0 0 0 .543.185c.288 0 .498-.092.665-.303l2.235-2.53 2.552 2.571zM144.448 196.514l-2.568 2.769a.57.57 0 0 0-.165.422c.014.212.09.369.227.501.136.132.316.185.543.185.287 0 .498-.092.665-.303l2.235-2.53 2.552 2.571c.151.184.363.264.618.264.241 0 .439-.066.574-.198a.6.6 0 0 0 .181-.488.65.65 0 0 0-.196-.447l-2.808-2.836 2.627-2.808a.66.66 0 0 0 .151-.422.58.58 0 0 0-.241-.462.85.85 0 0 0-.574-.198c-.271 0-.467.093-.604.264l-2.296 2.611-2.523-2.611c-.151-.171-.363-.264-.635-.264a.8.8 0 0 0-.559.198.57.57 0 0 0-.196.488c0 .145.076.303.212.435l2.778 2.861zM163.302 199.694c0 .212.066.383.186.501.119.132.276.198.488.198a.7.7 0 0 0 .582-.303l1.94-2.545 2.23 2.572a.64.64 0 0 0 .541.276c.223 0 .383-.066.501-.21a.7.7 0 0 0 .171-.489.65.65 0 0 0-.185-.435l-2.455-2.848 2.296-2.809a.62.62 0 0 0 .132-.422.59.59 0 0 0-.211-.462.74.74 0 0 0-.501-.184c-.237 0-.408.079-.514.252l-2.019 2.611-2.205-2.611c-.132-.172-.317-.252-.554-.252-.198 0-.357.054-.475.184a.65.65 0 0 0-.185.488c0 .159.066.303.185.435l2.442 2.861-2.256 2.77a.62.62 0 0 0-.132.422zM172.144 199.694c0 .212.066.383.186.501.119.132.276.198.488.198a.7.7 0 0 0 .582-.303l1.94-2.545 2.229 2.572a.64.64 0 0 0 .541.276c.223 0 .383-.066.501-.21a.7.7 0 0 0 .171-.489.65.65 0 0 0-.185-.435l-2.454-2.848 2.295-2.809a.62.62 0 0 0 .132-.422.59.59 0 0 0-.211-.462.74.74 0 0 0-.501-.184c-.237 0-.408.079-.515.252l-2.019 2.623-2.204-2.623c-.132-.172-.317-.252-.554-.252a.65.65 0 0 0-.475.184.65.65 0 0 0-.185.488c0 .159.066.303.185.448l2.441 2.848-2.256 2.77a.63.63 0 0 0-.132.422M180.985 199.694c0 .212.066.383.186.515a.66.66 0 0 0 .488.184.7.7 0 0 0 .582-.303l1.94-2.545 2.229 2.572a.64.64 0 0 0 .54.276c.224 0 .384-.066.502-.21a.7.7 0 0 0 .171-.489.65.65 0 0 0-.186-.435l-2.453-2.848 2.295-2.809a.63.63 0 0 0 .132-.422.59.59 0 0 0-.211-.462.74.74 0 0 0-.501-.184c-.237 0-.408.079-.515.252l-2.019 2.623-2.204-2.623c-.132-.172-.317-.252-.555-.252a.65.65 0 0 0-.474.184c-.132.132-.185.291-.185.501.012.144.066.29.185.435l2.441 2.848-2.256 2.77a.65.65 0 0 0-.132.422M193.824 196.424l2.296-2.822a.6.6 0 0 0 .132-.422.6.6 0 0 0-.211-.462.74.74 0 0 0-.501-.184c-.237 0-.409.093-.515.264l-2.019 2.611-2.204-2.611c-.132-.185-.318-.264-.555-.264a.65.65 0 0 0-.474.184c-.132.132-.186.291-.186.501 0 .144.066.29.186.435l2.441 2.848-2.256 2.77a.65.65 0 0 0-.132.422c0 .212.066.383.186.515a.66.66 0 0 0 .488.184.7.7 0 0 0 .581-.303l1.941-2.533 2.229 2.558a.64.64 0 0 0 .54.276c.223 0 .384-.066.501-.197a.74.74 0 0 0 .172-.501.65.65 0 0 0-.186-.435l-2.454-2.836zM151.704 155.168h1.522v.098l.069 2.035c.013.431.374.78.789.78h.664l.471 14.163h-.636a.75.75 0 0 0-.553.237.77.77 0 0 0-.221.558l.069 2.05c0 .028 0 .041.013.07h-2.282c-.305 0-.567.111-.774.32a1.07 1.07 0 0 0-.29.78l.041 1.436a1.13 1.13 0 0 0 1.12 1.074l37.812.013c.29 0 .566-.111.761-.32a1.07 1.07 0 0 0 .289-.781l-.041-1.435a1.117 1.117 0 0 0-1.106-1.087h-2.311v-.083l-.069-2.05a.796.796 0 0 0-.789-.78h-.663l-.471-14.148h.65a.71.71 0 0 0 .54-.238.78.78 0 0 0 .221-.571l-.069-2.035v-.013c0-.028 0-.041-.013-.07h1.506c1.282 0 1.789-1.591.83-2.411l-18.656-15.878a1.36 1.36 0 0 0-1.798 0l-17.593 15.878c-.917.831-.313 2.411.968 2.411zm2.281 2.12-.069-2.05.069-.07h7.468c.056 0 .111.042.111.098l.069 2.05.346-.013-.429.083h-7.468c-.041 0-.097-.042-.097-.098m23.513.028a.81.81 0 0 0 .802.78h.664l.471 14.148h-.651a.76.76 0 0 0-.761.795l.069 2.05c0 .028 0 .056.014.07h-3.098v-.098l-.069-2.035a.786.786 0 0 0-.789-.78h-.678l-.471-14.163h.65c.221 0 .415-.07.553-.223a.8.8 0 0 0 .221-.571l-.069-2.05c0-.028 0-.041-.013-.069h3.097c-.013.028-.013.069-.013.098l.069 2.049zm-10.816 17.745-.069-2.035-.346.013.415-.098h7.468c.056 0 .097.042.097.098l.069 2.05-.069.07h-7.468a.095.095 0 0 1-.097-.098m.858-16.978h4.771l.471 14.163h-4.771zm6.195-.767.346-.013-.428.083h-7.468c-.042 0-.098-.042-.098-.098l-.069-2.05-.346.013.415-.083h7.469c.207 0 .067.214.179 2.146zm-8.339 0a.805.805 0 0 0 .789.767h.678l.456 14.163h-.636a.72.72 0 0 0-.54.237.75.75 0 0 0-.22.558l.069 2.05c0 .028 0 .041.013.069h-3.098v-.098l-.069-2.035a.787.787 0 0 0-.789-.78h-.678l-.471-14.163h.65a.8.8 0 0 0 .554-.222.8.8 0 0 0 .22-.571l-.069-2.05c0-.028 0-.041-.013-.07h3.098c-.013.029-.013.07-.013.098l.069 2.05zm-9.958.767h4.77l.471 14.163h-4.77zm-.872 16.978-.069-2.035h-.346l.429-.083h7.468c.056 0 .097.041.097.098l.069 2.05-.069.069h-7.468c-.056 0-.111-.041-.111-.098zm34.853.795c.221 0 .402.194.415.418l.041 1.436a.32.32 0 0 1-.097.265.38.38 0 0 1-.264.111l-37.811-.013a.424.424 0 0 1-.428-.39l-.042-1.436c0-.111.028-.209.098-.278a.38.38 0 0 1 .276-.112h37.812zm-3.07-2.802.07 2.035.345-.013-.415.083h-7.468c-.056 0-.097-.042-.097-.083l-.069-2.05-.346.013.415-.098h7.468c.056 0 .097.057.097.111zm-1.452-.81h-4.771l-.471-14.148h4.771zm.871-16.978.069 2.05.346-.013-.415.097H178.3c-.056 0-.097-.056-.11-.111l-.07-2.05-.345.014.428-.083c7.557.056 7.565-.103 7.565.098zm-34.563-1.993 17.593-15.863a.65.65 0 0 1 .428-.168c.152 0 .318.057.456.168l18.658 15.877c.493.422.211 1.186-.387 1.186h-36.248999999999995c-.64 0-.945-.779-.497-1.199z"/><path fill="#3C4150" d="M157.25 152.259h24.445c.425 0 .794-.271.951-.67a1.05 1.05 0 0 0-.313-1.169l-12.576-10.674a1.05 1.05 0 0 0-1.376 0l-11.853 10.674a1.04 1.04 0 0 0-.27 1.14c.155.428.554.699.992.699m-.254-1.311 11.866-10.676a.35.35 0 0 1 .2-.071c.084 0 .17.029.226.085l12.576 10.674c.184.142.128.327.113.385-.029.057-.1.2-.284.2h-24.444c-.184 0-.284-.129-.326-.243a.304.304 0 0 1 .071-.356zM379.782 73.577c7.693-1.913 15.664-.72 22.443 3.358 6.714 4.038 11.441 10.421 13.311 17.977a.49.49 0 0 0 .953-.235c-1.933-7.809-6.818-14.407-13.757-18.58-7.004-4.212-15.237-5.444-23.186-3.47a.49.49 0 1 0 .237.95z"/><path fill="#3C4150" d="M406.706 96.886a.484.484 0 0 0 .587.349.48.48 0 0 0 .355-.58c-1.367-5.475-4.823-10.102-9.731-13.027-4.956-2.955-10.786-3.818-16.41-2.435a.48.48 0 0 0-.353.58.487.487 0 0 0 .587.35c5.371-1.323 10.939-.498 15.675 2.324 4.685 2.793 7.985 7.21 9.29 12.434zM393.722 91.162c-3.093-1.7-6.73-2.197-10.238-1.401-.268.06-.432.31-.365.553.068.246.346.392.607.333 3.251-.738 6.617-.277 9.48 1.295 2.829 1.556 4.822 4.015 5.61 6.924.056.208.26.348.485.348q.06 0 .121-.014c.268-.06.433-.308.367-.553-.852-3.147-3.006-5.806-6.065-7.489zM320.236 77.112c0 .267.201.491.469.491h13.797a.477.477 0 0 0 .469-.491.477.477 0 0 0-.469-.491h-13.797a.477.477 0 0 0-.469.491M239.686 77.112c0 .267.206.491.482.491h64.851a.492.492 0 0 0 0-.982h-64.851a.483.483 0 0 0-.482.491M316.307 64.342c0 .28.224.49.493.49h17.677c.269 0 .494-.21.494-.49a.49.49 0 0 0-.494-.491H316.8a.497.497 0 0 0-.493.49M238.703 64.342c0 .28.207.49.483.49h64.85c.276 0 .483-.21.483-.49a.476.476 0 0 0-.483-.491h-64.85a.484.484 0 0 0-.483.49M321.218 51.572c0 .28.211.49.462.49h11.846c.251 0 .462-.21.462-.49s-.211-.491-.462-.491H321.68c-.251 0-.462.225-.462.49M237.721 51.572c0 .28.223.49.489.49h65.819c.267 0 .49-.21.49-.49a.487.487 0 0 0-.49-.491H238.21a.496.496 0 0 0-.489.49M314.803 39.293h17.742c.263 0 .461-.224.461-.492 0-.28-.198-.49-.461-.49h-17.742c-.251 0-.461.21-.461.49 0 .281.21.492.461.492M237.721 38.802c0 .267.22.49.482.49h64.851a.49.49 0 0 0 .482-.49.483.483 0 0 0-.482-.492h-64.851a.483.483 0 0 0-.482.491M321.218 26.031c0 .268.226.492.495.492h10.797a.5.5 0 0 0 .496-.492.5.5 0 0 0-.496-.49h-10.797a.5.5 0 0 0-.495.49M236.739 26.031c0 .268.206.492.482.492h64.851a.485.485 0 0 0 .482-.492.485.485 0 0 0-.482-.49h-64.851a.484.484 0 0 0-.482.49M318.741 13.752h12.813c.255 0 .47-.224.47-.49a.487.487 0 0 0-.47-.492h-12.813a.486.486 0 0 0-.47.491c0 .268.214.491.47.491M235.261 13.752h66.793c.278 0 .5-.224.5-.49a.497.497 0 0 0-.5-.492h-66.793a.486.486 0 0 0-.487.491c0 .268.209.491.487.491M242.026 89.39h-1.734c-.33 0-.606.226-.606.492s.276.491.606.491h1.734c.347 0 .607-.225.607-.491s-.26-.491-.607-.491M258.826 89.39h-2.917a.496.496 0 0 0-.506.492c0 .266.217.491.506.491h2.917a.505.505 0 0 0 .506-.491.505.505 0 0 0-.506-.491M269.632 89.39h-2.918a.496.496 0 0 0-.506.492c0 .266.217.491.506.491h2.918a.505.505 0 0 0 .506-.491.505.505 0 0 0-.506-.491M275.526 89.39h-2.918a.496.496 0 0 0-.506.492c0 .266.217.491.506.491h2.918a.504.504 0 0 0 .505-.491.504.504 0 0 0-.505-.491M252.932 89.39h-2.917a.496.496 0 0 0-.506.492c0 .266.217.491.506.491h2.917a.496.496 0 0 0 .506-.491.496.496 0 0 0-.506-.491M247.039 89.39h-2.918a.496.496 0 0 0-.506.492c0 .266.217.491.506.491h2.918a.495.495 0 0 0 .505-.491.495.495 0 0 0-.505-.491M263.864 89.39h-2.188c-.217 0-.379.226-.379.492s.162.491.379.491h2.188c.207 0 .38-.225.38-.491s-.173-.491-.38-.491M319.858 89.39h-2.191c-.206 0-.378.226-.378.492s.172.491.378.491h2.191c.206 0 .378-.225.378-.491s-.172-.491-.378-.491M325.626 90.373a.504.504 0 0 0 .504-.491.504.504 0 0 0-.504-.491h-2.922a.504.504 0 0 0-.504.491c0 .266.23.491.504.491zM332.024 89.882a.503.503 0 0 0-.504-.491h-2.922a.504.504 0 0 0-.504.491c0 .266.23.491.504.491h2.922a.504.504 0 0 0 .504-.491M280.564 89.39h-2.189c-.216 0-.379.226-.379.492s.163.491.379.491h2.189c.206 0 .379-.225.379-.491s-.173-.491-.379-.491M306.005 90.373h2.921a.504.504 0 0 0 .504-.491.504.504 0 0 0-.504-.491h-2.921a.504.504 0 0 0-.504.491c0 .266.23.491.504.491M311.899 90.373h2.921a.504.504 0 0 0 .504-.491.504.504 0 0 0-.504-.491h-2.921a.504.504 0 0 0-.504.491c0 .266.23.491.504.491M292.227 89.39h-2.922a.503.503 0 0 0-.503.492c0 .266.229.491.503.491h2.922a.504.504 0 0 0 .504-.491.504.504 0 0 0-.504-.491M303.033 90.373a.503.503 0 0 0 .503-.491.503.503 0 0 0-.503-.491h-2.922a.504.504 0 0 0-.504.491c0 .266.23.491.504.491zM298.121 89.39h-2.922a.503.503 0 0 0-.503.492c0 .266.229.491.503.491h2.922a.504.504 0 0 0 .504-.491.504.504 0 0 0-.504-.491M286.333 89.39h-2.921a.504.504 0 0 0-.504.492c0 .266.229.491.504.491h2.921a.504.504 0 0 0 .504-.491.504.504 0 0 0-.504-.491M333.988 89.882c0 .267.185.491.405.491h1.155c.221 0 .405-.225.405-.491s-.184-.491-.405-.491h-1.155c-.22 0-.405.225-.405.491"/><path fill="url(#m)" d="M131.629 360.158s-18.302 4.065-25.45 18.868c-7.15 14.803-20.588 25.689-20.588 25.689s-4.719-26.268 5.29-38.315 20.018-16.109 40.75-6.24z"/><path fill="url(#n)" d="M116.896 294.739s-47.407-4.315-39.354 72.648c0 0 14.701-12.911 19.216-36.346 4.516-23.433 20.138-36.302 20.138-36.302"/><path fill="url(#o)" d="M28.487 312.655s47.644-17.303 40.534 76.343c0 0-13.607-8.344-17.36-28.864-3.755-20.519-13.636-44.563-23.174-47.481z"/><path fill="url(#p)" d="M11.788 373.564s39.71-20.119 47.35 18.831c0 0 4.053 16.843 2.315 24.913s-18.197-28.39-24.616-34.742c-9.086-8.991-25.05-9.004-25.05-9.004z"/><path fill="#fff" d="m45.188 437.132 8.485 37.562c.488 2.159 2.434 3.695 4.68 3.695h29.66c2.248 0 4.195-1.536 4.682-3.695l8.484-37.562H45.187zM102.663 425.344h-58.96c-.809 0-1.463.666-1.463 1.487v8.813c0 .822.654 1.488 1.462 1.488h58.961c.808 0 1.463-.666 1.463-1.488v-8.813c0-.821-.655-1.487-1.463-1.487"/><path fill="#3C4150" d="M132.331 359.311c-21.931-10.235-31.994-5.426-41.965 6.34-10.08 11.892-5.781 36.876-5.49 38.488a261 261 0 0 0-.91 20.29h-7.185c-.598-16.655-.857-39.566 1.102-57.114 1.493-1.374 14.855-14.208 19.088-36.096 4.395-22.73 19.667-35.504 19.82-35.631a.483.483 0 0 0-.264-.854c-.145-.012-14.662-1.186-26.185 10.435-11.94 12.039-16.451 32.869-13.41 61.911-1.98 17.604-1.722 40.621-1.122 57.348h-7.316c-.436-28.383 1.842-31.924 1.282-35.861 2.892-37.668-2.696-62.109-16.608-72.644-11.578-8.767-24.88-4.143-25.012-4.093a.483.483 0 0 0 .025.917c9.406 2.842 19.306 26.637 23.085 47.052 3.534 19.089 15.804 27.852 17.56 29.018.469 3.616-1.728 7.767-1.302 35.612H61.59l-.208-5.936q.313-.381.466-1.076c1.756-8.034-2.169-24.275-2.332-24.943-2.143-10.757-6.984-18.041-14.39-21.648-14.422-7.024-33.857 2.509-34.052 2.606a.484.484 0 0 0 .217.915c.158 0 16.01.12 24.92 8.805 5.78 5.632 19.771 35.683 24.217 35.792l.191 5.485H43.126a1.97 1.97 0 0 0-1.974 1.965v8.775c0 1.083.885 1.964 1.974 1.964h1.886l8.301 37.173a5.23 5.23 0 0 0 1.2 2.349 5.23 5.23 0 0 0 3.914 1.734h29.399a5.2 5.2 0 0 0 5.114-4.083c10.387-46.52 7.557-33.851 8.301-37.173h1.886a1.97 1.97 0 0 0 1.974-1.964v-8.775a1.97 1.97 0 0 0-1.974-1.965H84.94c.038-5.932.276-12.746.894-20.071 1.564-1.282 14.08-11.806 20.881-25.612 7.07-14.354 25.333-18.486 25.517-18.528a.483.483 0 0 0 .102-.909zm-41.312-53.445c9.298-9.387 20.594-10.204 24.231-10.204h.01c-3.414 3.185-15.409 15.555-19.243 35.376-3.734 19.312-14.643 31.441-17.942 34.745 3.832-30.365 20.99-59.107 21.167-59.398a.485.485 0 1 0-.834-.498c-.17.283-16.354 27.385-20.888 56.855-2.151-26.507 2.37-45.644 13.499-56.876m-38.8 53.759c-3.654-19.743-13.08-42.64-22.41-47.263 3.564-.884 13.71-2.53 22.77 4.334 13.113 9.93 18.768 33.814 16.414 69.139-6.025-13.718-10.698-37.776-12.75-51.825a.486.486 0 0 0-.961.138c.05.349 5.14 35.125 12.776 51.95.198.437.355.884.485 1.336-3.184-2.352-13.2-10.936-16.324-27.809m-15.33 22.838c-7.25-7.063-18.872-8.633-23.55-8.98 5.116-2.139 19.919-7.36 31.361-1.784 7.116 3.467 11.78 10.523 13.864 20.987.038.155 3.49 14.443 2.61 22.738-2.258-24.056-20.833-36.539-21.03-36.666a.484.484 0 1 0-.535.805c.198.13 19.647 13.215 20.77 38.403-3.402-.089-17.958-30.108-23.492-35.501zm55.909 88.021H53.453l-7.446-33.349h54.236l-7.447 33.349zm11.33-44.089v8.775a1 1 0 0 1-1.003.998c1.106-.005-10.76-.097-60 0a1 1 0 0 1-1.004-.998v-8.775a1 1 0 0 1 1.003-.997h60.001a1 1 0 0 1 1.003.997m1.712-48.071c-6.055 12.289-16.694 21.939-19.853 24.638 2.77-22.914 28.432-42.747 28.695-42.947a.483.483 0 1 0-.59-.768c-.257.197-24.62 19.021-28.73 41.386-.88-7.434-2.001-25.217 5.746-34.359 5.996-7.075 12.034-11.553 20.857-11.553 5.125 0 11.19 1.511 18.73 4.904-4.42 1.267-18.71 6.224-24.855 18.697zM313.223 100.68q.137 1.108.137 2.437v.758l-.021 2.215h-1.345l.021-2.215.01-.863q0-1.176-.126-2.117a12 12 0 0 0-.504-2.103l1.261-.56q.429 1.341.567 2.448M314.789 106.861q.131-.343.141-.66v-1.093h1.376v.949q-.01.532-.325 1.089t-.799.909l-.84-.379q.315-.47.447-.814zM320.116 100.072q.122.374.353.525.229.152.588.152.313 0 .497-.17.185-.17.185-.507 0-.117-.011-.186l-.201-1.4 1.41-.244.212 1.469q.034.21.034.396 0 .677-.302 1.208a2.2 2.2 0 0 1-.795.823 2 2 0 0 1-1.029.291q-.404 0-.705-.116.011.256.011.781v.781l-.022 2.215h-1.432l.022-2.215.011-.863q0-1.176-.134-2.117-.133-.939-.537-2.103l1.343-.56q.323.909.503 1.842zM324.771 101.755q.606-1.075 1.702-2.063l-.447-.308.918-1.152a14 14 0 0 1 2.231 1.927q.925 1.004 1.395 1.965.472.96.471 1.76 0 .692-.299 1.19-.3.499-.801.758a2.34 2.34 0 0 1-1.089.258q-.693 0-1.189-.493a2.1 2.1 0 0 1-.641.355 2.3 2.3 0 0 1-.761.128q-.553 0-1.036-.275a2 2 0 0 1-.771-.796q-.288-.521-.289-1.236 0-.944.607-2.019zm3.609 2.272q0 .21-.036.395.083.12.236.187.153.066.353.066a.74.74 0 0 0 .53-.203q.212-.201.212-.621-.023-.702-.56-1.558-.536-.857-1.597-1.778-.978.857-1.46 1.662-.483.807-.483 1.508 0 .495.2.731.2.235.554.235a.77.77 0 0 0 .56-.208q.217-.21.217-.593 0-.065-.024-.242l1.213-.208q.084.308.083.625zM333.008 105.82q-.45-.27-.717-.72a1.9 1.9 0 0 1-.267-.98q0-.529.267-.979.267-.452.717-.714.451-.266.974-.266c.348 0 .684.089.986.266q.45.264.718.709t.267.984c0 .36-.089.679-.267.98q-.267.45-.718.72-.452.27-.986.27a1.84 1.84 0 0 1-.974-.27m.473-1.171a.68.68 0 0 0 .501.214.68.68 0 0 0 .501-.214.72.72 0 0 0 .212-.529.72.72 0 0 0-.206-.524.69.69 0 0 0-.507-.208.67.67 0 0 0-.501.214.7.7 0 0 0-.212.518c0 .203.07.386.212.529M296.512 105.84a1.63 1.63 0 0 1-.622-.679 2.1 2.1 0 0 1-.212-.954q0-.303.096-.66t.237-.679l.718.296q-.263.59-.263 1.043 0 .483.239.732.24.248.793.248h.32q.412 0 .616-.07a.43.43 0 0 0 .279-.239q.074-.17.074-.503l.006-4.178h.808l.006 4.178q0 .791-.436 1.253-.437.462-1.354.462h-.321q-.578 0-.989-.251zM300.984 104.66q-.395-.45-.395-1.206v-3.257h1.014v3.257q0 .28.037.397a.23.23 0 0 0 .16.158q.123.04.419.041h.287l.048.544-.048.514h-.287q-.838 0-1.233-.448z"/><path fill="#3C4150" d="M301.572 105.355h.935v.735h-.935zm.44-1.628h.872q.354 0 .503-.094a.27.27 0 0 0 .132-.273 7 7 0 0 0-.204-1.016l.944-.183q.094.325.176.692.083.367.084.594 0 .305-.173.57-.174.263-.523.428t-.861.165h-.952v-.881zm1.029 1.628h.945v.735h-.945zM306.483 102.161v1.887q0 .964-.418 1.503-.419.539-1.195.539h-.351v-.963h.351q.351 0 .544-.097a.55.55 0 0 0 .273-.328q.081-.23.081-.652v-1.887h.715z"/><path fill="url(#q)" d="M275.467 239.056q.217 1.37.217 2.887l-.016 1.533-.033 3.066h-2.582l.033-3.066.017-1.485q0-1.42-.186-2.526-.187-1.104-.782-2.96l2.451-.904q.662 2.082.879 3.453z"/><path fill="url(#r)" d="M277.741 247.759q.217-.67.234-1.25v-2.371h2.549v2.048q-.018 1.081-.565 2.21-.549 1.129-1.388 1.839l-1.614-.759q.565-1.05.782-1.719z"/><path fill="url(#s)" d="M288.811 241.871q-.687.637-1.138 1.202-.452.565-1.21 1.613l-.613.855-1.129 1.549-2.098-1.485 1.113-1.549 1.258-1.759a2.95 2.95 0 0 1-1.742-1.096 3.7 3.7 0 0 1-.822-2.324q0-.806.339-1.524.339-.719.985-1.235.662-.516 1.258-.679.597-.161 1.903-.322l.437 2.404q-.92.128-1.308.25a1.9 1.9 0 0 0-.709.412q-.21.16-.323.395a1.1 1.1 0 0 0-.114.492q0 .355.21.629a1 1 0 0 0 .839.403q.791 0 1.984-.904.63-.533 1.227-.968l1.469 2.162q-1.13.84-1.815 1.477z"/><path fill="url(#t)" d="M295.886 245.032q-.065-.669-.081-2.445h-.759q-1.582 0-2.437-.968t-.855-2.791q0-.936.42-1.758a3.5 3.5 0 0 1 1.163-1.331 2.92 2.92 0 0 1 1.694-.509c.636 0 1.185.157 1.686.468q.751.468 1.186 1.388t.436 2.21q0 2.791.016 3.775.015.984.073 1.541t.25 1.589l-2.549.517a23 23 0 0 1-.242-1.686zm-1.51-5.453q.233.217.653.217h.774v-.5q0-1.259-.79-1.258a.83.83 0 0 0-.621.258q-.25.26-.25.693 0 .371.234.59"/><path fill="url(#u)" d="M302.121 245.823a3.16 3.16 0 0 1-1.097-1.097 2.84 2.84 0 0 1-.411-1.492q0-.806.411-1.492a3.1 3.1 0 0 1 1.097-1.088 2.87 2.87 0 0 1 1.477-.403c.528 0 1.037.135 1.5.403q.694.403 1.105 1.082.412.677.411 1.5c0 .548-.136 1.036-.411 1.492a3.1 3.1 0 0 1-1.105 1.096 2.9 2.9 0 0 1-1.5.412 2.8 2.8 0 0 1-1.477-.412zm.871-1.952q.267.282.604.282a.85.85 0 0 0 .621-.275.9.9 0 0 0 .267-.645.87.87 0 0 0-.267-.638.85.85 0 0 0-.621-.266c-.235 0-.428.092-.604.275a.88.88 0 0 0-.267.629q0 .354.267.637z"/><path fill="url(#v)" d="M309.091 247.759q.217-.67.234-1.25v-2.371h2.548v2.048q-.017 1.081-.564 2.21-.55 1.129-1.388 1.839l-1.614-.759q.565-1.05.782-1.719z"/><path fill="url(#w)" d="M315.932 245.823a3.16 3.16 0 0 1-1.097-1.097 2.84 2.84 0 0 1-.411-1.492q0-.806.411-1.492a3.1 3.1 0 0 1 1.097-1.088 2.87 2.87 0 0 1 1.477-.403c.529 0 1.037.135 1.5.403q.694.403 1.105 1.082.412.677.411 1.5c0 .548-.136 1.036-.411 1.492a3.1 3.1 0 0 1-1.105 1.096 2.9 2.9 0 0 1-1.5.412 2.8 2.8 0 0 1-1.477-.412zm.871-1.952q.267.282.604.282a.85.85 0 0 0 .621-.275.9.9 0 0 0 .267-.645.87.87 0 0 0-.267-.638.85.85 0 0 0-.621-.266c-.235 0-.428.092-.604.275a.88.88 0 0 0-.267.629q0 .354.267.637z"/><path fill="url(#x)" d="M324.515 245.823a3.15 3.15 0 0 1-1.096-1.097 2.85 2.85 0 0 1-.412-1.492q0-.806.412-1.492t1.096-1.088a2.87 2.87 0 0 1 1.477-.403c.529 0 1.038.135 1.5.403q.695.403 1.105 1.082.412.677.412 1.5c0 .548-.137 1.036-.412 1.492a3.1 3.1 0 0 1-1.105 1.096 2.9 2.9 0 0 1-1.5.412 2.8 2.8 0 0 1-1.477-.412zm.871-1.952q.267.282.605.282a.85.85 0 0 0 .62-.275.9.9 0 0 0 .267-.645.87.87 0 0 0-.267-.638.85.85 0 0 0-.62-.266c-.236 0-.428.092-.605.275a.88.88 0 0 0-.266.629q0 .354.266.637z"/><path fill="url(#y)" d="M333.099 245.823a3.16 3.16 0 0 1-1.097-1.097 2.84 2.84 0 0 1-.411-1.492q0-.806.411-1.492a3.1 3.1 0 0 1 1.097-1.088 2.87 2.87 0 0 1 1.477-.403c.528 0 1.037.135 1.5.403a3.1 3.1 0 0 1 1.105 1.082q.412.677.411 1.5c0 .548-.136 1.036-.411 1.492a3.1 3.1 0 0 1-1.105 1.096 2.9 2.9 0 0 1-1.5.412 2.8 2.8 0 0 1-1.477-.412zm.872-1.952q.267.282.605.282a.85.85 0 0 0 .62-.275.9.9 0 0 0 .267-.645.87.87 0 0 0-.267-.638.85.85 0 0 0-.62-.266c-.236 0-.428.092-.605.275a.88.88 0 0 0-.266.629q0 .354.266.637z"/><path fill="url(#z)" d="M246.105 247.945a3.16 3.16 0 0 1-1.191-1.325q-.405-.835-.405-1.867 0-.591.184-1.29.185-.7.455-1.325l1.375.578q-.504 1.154-.504 2.038 0 .946.461 1.431.46.485 1.516.486h.615q.785 0 1.178-.135.393-.136.534-.466.141-.332.142-.983l.011-8.165h1.548l.011 8.165q0 1.545-.834 2.45-.835.902-2.592.902h-.614q-1.104-.001-1.892-.491z"/><path fill="url(#A)" d="M254.067 244.592q-.607-.748-.607-2.013v-5.44h1.559v5.44q0 .467.056.663a.37.37 0 0 0 .245.264q.191.067.646.067h.441l.074.909-.074.86h-.441q-1.29 0-1.897-.75z"/><path fill="url(#B)" d="M255.583 246.84h1.461v1.474h-1.461zm.689-3.267h1.363q.554.001.785-.191.233-.19.21-.546-.062-.76-.32-2.039l1.474-.369q.149.651.276 1.388.129.738.129 1.191 0 .614-.27 1.143-.27.528-.817.859t-1.345.331h-1.485v-1.768zm1.608 3.267h1.474v1.474h-1.474z"/><path fill="url(#C)" d="M264.412 241.227v3.463q0 1.769-.92 2.756-.921.988-2.628.988h-.774v-1.768h.774q.773 0 1.197-.178.423-.178.601-.601.178-.424.178-1.197v-3.463z"/><defs><linearGradient id="a" x1="186.149" x2="186.149" y1="94.302" y2="484.283" gradientUnits="userSpaceOnUse"><stop stop-color="#7A70D9"/><stop offset="1" stop-color="#4D4690"/></linearGradient><linearGradient id="b" x1="188.605" x2="188.605" y1="94.302" y2="484.283" gradientUnits="userSpaceOnUse"><stop stop-color="#7A70D9"/><stop offset="1" stop-color="#4D4690"/></linearGradient><linearGradient id="c" x1="409.627" x2="409.627" y1="169.941" y2="459.725" gradientUnits="userSpaceOnUse"><stop stop-color="#7A70D9"/><stop offset="1" stop-color="#4D4690"/></linearGradient><linearGradient id="d" x1="407.171" x2="407.171" y1="169.941" y2="459.725" gradientUnits="userSpaceOnUse"><stop stop-color="#7A70D9"/><stop offset="1" stop-color="#4D4690"/></linearGradient><linearGradient id="e" x1="290.275" x2="290.275" y1="176.817" y2="218.075" gradientUnits="userSpaceOnUse"><stop stop-color="#7A70D9"/><stop offset="1" stop-color="#4D4690"/></linearGradient><linearGradient id="f" x1="241.159" x2="241.159" y1="277.996" y2="291.749" gradientUnits="userSpaceOnUse"><stop stop-color="#7A70D9"/><stop offset="1" stop-color="#4D4690"/></linearGradient><linearGradient id="g" x1="293.222" x2="293.222" y1="277.996" y2="291.749" gradientUnits="userSpaceOnUse"><stop stop-color="#7A70D9"/><stop offset="1" stop-color="#4D4690"/></linearGradient><linearGradient id="h" x1="345.285" x2="345.285" y1="277.996" y2="291.749" gradientUnits="userSpaceOnUse"><stop stop-color="#7A70D9"/><stop offset="1" stop-color="#4D4690"/></linearGradient><linearGradient id="i" x1="34.872" x2="34.872" y1="150.295" y2="166.012" gradientUnits="userSpaceOnUse"><stop stop-color="#7A70D9"/><stop offset="1" stop-color="#4D4690"/></linearGradient><linearGradient id="j" x1="45.187" x2="45.187" y1="216.11" y2="222.004" gradientUnits="userSpaceOnUse"><stop stop-color="#7A70D9"/><stop offset="1" stop-color="#4D4690"/></linearGradient><linearGradient id="k" x1="162.083" x2="162.083" y1="216.11" y2="222.004" gradientUnits="userSpaceOnUse"><stop stop-color="#7A70D9"/><stop offset="1" stop-color="#4D4690"/></linearGradient><linearGradient id="l" x1="169.45" x2="169.45" y1="137.525" y2="155.206" gradientUnits="userSpaceOnUse"><stop stop-color="#7A70D9"/><stop offset="1" stop-color="#4D4690"/></linearGradient><linearGradient id="m" x1="108.055" x2="108.055" y1="354.617" y2="404.715" gradientUnits="userSpaceOnUse"><stop stop-color="#B2E2BC"/><stop offset="1" stop-color="#4C9058"/></linearGradient><linearGradient id="n" x1="96.758" x2="96.758" y1="294.696" y2="367.387" gradientUnits="userSpaceOnUse"><stop stop-color="#7A70D9"/><stop offset="1" stop-color="#4D4690"/></linearGradient><linearGradient id="o" x1="49.116" x2="49.116" y1="311.395" y2="388.998" gradientUnits="userSpaceOnUse"><stop stop-color="#B2E2BC"/><stop offset="1" stop-color="#4C9058"/></linearGradient><linearGradient id="p" x1="36.837" x2="36.837" y1="368.369" y2="418.468" gradientUnits="userSpaceOnUse"><stop stop-color="#7A70D9"/><stop offset="1" stop-color="#4D4690"/></linearGradient><linearGradient id="q" x1="273.909" x2="273.909" y1="235.601" y2="246.542" gradientUnits="userSpaceOnUse"><stop stop-color="#303030"/><stop offset="1" stop-color="#999"/></linearGradient><linearGradient id="r" x1="278.74" x2="278.74" y1="244.138" y2="250.235" gradientUnits="userSpaceOnUse"><stop stop-color="#303030"/><stop offset="1" stop-color="#999"/></linearGradient><linearGradient id="s" x1="286.529" x2="286.529" y1="235.117" y2="247.09" gradientUnits="userSpaceOnUse"><stop stop-color="#303030"/><stop offset="1" stop-color="#999"/></linearGradient><linearGradient id="t" x1="295.216" x2="295.216" y1="235.23" y2="246.718" gradientUnits="userSpaceOnUse"><stop stop-color="#303030"/><stop offset="1" stop-color="#999"/></linearGradient><linearGradient id="u" x1="303.614" x2="303.614" y1="240.251" y2="246.236" gradientUnits="userSpaceOnUse"><stop stop-color="#303030"/><stop offset="1" stop-color="#999"/></linearGradient><linearGradient id="v" x1="310.09" x2="310.09" y1="244.138" y2="250.235" gradientUnits="userSpaceOnUse"><stop stop-color="#303030"/><stop offset="1" stop-color="#999"/></linearGradient><linearGradient id="w" x1="317.425" x2="317.425" y1="240.251" y2="246.236" gradientUnits="userSpaceOnUse"><stop stop-color="#303030"/><stop offset="1" stop-color="#999"/></linearGradient><linearGradient id="x" x1="326.008" x2="326.008" y1="240.251" y2="246.236" gradientUnits="userSpaceOnUse"><stop stop-color="#303030"/><stop offset="1" stop-color="#999"/></linearGradient><linearGradient id="y" x1="334.591" x2="334.591" y1="240.251" y2="246.236" gradientUnits="userSpaceOnUse"><stop stop-color="#303030"/><stop offset="1" stop-color="#999"/></linearGradient><linearGradient id="z" x1="248.272" x2="248.272" y1="236.922" y2="248.439" gradientUnits="userSpaceOnUse"><stop stop-color="#303030"/><stop offset="1" stop-color="#999"/></linearGradient><linearGradient id="A" x1="254.97" x2="254.97" y1="237.139" y2="245.342" gradientUnits="userSpaceOnUse"><stop stop-color="#303030"/><stop offset="1" stop-color="#999"/></linearGradient><linearGradient id="B" x1="257.886" x2="257.886" y1="240.428" y2="248.314" gradientUnits="userSpaceOnUse"><stop stop-color="#303030"/><stop offset="1" stop-color="#999"/></linearGradient><linearGradient id="C" x1="262.251" x2="262.251" y1="241.227" y2="248.434" gradientUnits="userSpaceOnUse"><stop stop-color="#303030"/><stop offset="1" stop-color="#999"/></linearGradient></defs></svg>