<svg width="519" height="493" fill="none" xmlns="http://www.w3.org/2000/svg"><path opacity=".2" d="M59.073 181.365c58.889-59.41 111.26-86.153 202.976-98.088 91.717-11.934 162.954 14.82 213.712 80.265 50.757 65.445 55.924 136.408 15.5 212.891-40.423 76.482-125.35 122.307-222.927 106.672-97.577-15.635-161.973-43.7-225.335-98.647C-20.363 329.511.185 240.775 59.073 181.365z" fill="url(#a)"/><path opacity=".4" d="M116.254 434.218c48.111 53.586 107.064 70.374 176.859 50.363 69.794-20.011 127.078-58.792 171.851-116.343 44.773-57.551 47.397-115.112 7.871-172.682C433.309 137.985 382.751 91.81 321.16 57.03c-61.591-34.78-130.822-33.735-207.693 3.134-76.872 36.87-107.653 95.033-92.344 174.489 15.309 79.456 47.02 145.978 95.131 199.565z" fill="url(#b)"/><path d="M441.826 106.715 258.539 1.145c-5.258-3.025-11.82.77-11.82 6.837V173.8a21.296 21.296 0 0 0 10.678 18.462l181.67 104.641c5.71 3.285 12.835-.836 12.835-7.423V124.136a20.099 20.099 0 0 0-10.076-17.421z" fill="url(#c)"/><path d="M434.913 110.17 251.624 4.6c-5.258-3.025-11.821.77-11.821 6.836v165.82a21.296 21.296 0 0 0 10.679 18.462l181.67 104.641c5.71 3.284 12.835-.836 12.835-7.423V127.59a20.096 20.096 0 0 0-10.076-17.42h.002z" fill="url(#d)"/><path d="M438.481 127.6v165.336c0 .591-.199 1.084-.607 1.462a2.092 2.092 0 0 1-1.463.607c-.346 0-.673-.098-1.002-.28l-181.675-104.65a14.795 14.795 0 0 1-7.412-12.817V11.431c0-1.034.953-1.38 1.38-1.38.229 0 .46.066.673.196l183.287 105.571a13.604 13.604 0 0 1 6.821 11.782h-.002z" fill="#fff"/><path d="M438.481 127.6v8.808L246.319 24.953V11.43c0-1.034.953-1.38 1.381-1.38.229 0 .46.065.673.196l183.286 105.571a13.603 13.603 0 0 1 6.822 11.781v.003z" fill="url(#e)"/><path d="m223.049 29.688 61.045 36.18a6.84 6.84 0 0 1 3.399 5.911v114.582c0 2.917-3.165 4.737-5.686 3.268l-60.188-35.679a5.95 5.95 0 0 1-2.958-5.144V32.208c0-2.251 2.442-3.655 4.388-2.522v.002z" fill="#878AA0"/><path d="m220.75 30.844 61.046 36.18a6.84 6.84 0 0 1 3.399 5.911v114.582c0 2.918-3.166 4.737-5.686 3.268l-60.189-35.679a5.95 5.95 0 0 1-2.957-5.144V33.367c0-2.252 2.441-3.656 4.387-2.523z" fill="#F4F4F4"/><path d="m265.943 72.5-27.279-16.504c-.566-.341-1.028-1.084-1.028-1.65 0-.564.462-.746 1.028-.405l27.279 16.504c.565.341 1.028 1.084 1.028 1.65 0 .564-.463.747-1.028.406z" fill="url(#f)"/><g opacity=".75" fill="#AAADAD"><path d="M241.981 66.026v1.976l37.245 21.515V87.54l-37.245-21.515zM241.981 71.728v1.976l37.245 21.442V93.17l-37.245-21.442zM241.981 77.427v1.976l37.245 21.442v-1.976l-37.245-21.442z"/></g><path d="M236.019 63.288v11.794l-10.821-6.272V56.972l10.821 6.316z" fill="#AAADAD"/><path d="m226.537 62.328 1.537 6.7 7.174-2.734v-1.908l-6.051 2.259-1.38-4.922-1.28.605z" fill="#fff"/><g opacity=".75" fill="#AAADAD"><path d="M241.981 90.995v1.977l37.245 21.514v-1.976l-37.245-21.515zM241.981 96.697v1.976l37.245 21.44v-1.973l-37.245-21.443zM241.981 102.396v1.976l37.245 21.443v-1.976l-37.245-21.443z"/></g><path d="M236.019 88.258v11.793l-10.821-6.271V81.942l10.821 6.316z" fill="#AAADAD"/><path d="m226.537 87.298 1.537 6.699 7.174-2.733v-1.908l-6.051 2.258-1.38-4.921-1.28.605z" fill="#fff"/><g opacity=".75" fill="#AAADAD"><path d="M241.981 115.965v1.976l37.245 21.515v-1.976l-37.245-21.515zM241.981 121.667v1.976l37.245 21.44v-1.974l-37.245-21.442zM241.981 127.366v1.976l37.245 21.443v-1.976l-37.245-21.443z"/></g><path d="M236.019 113.227v11.794l-10.821-6.272v-11.838l10.821 6.316z" fill="#AAADAD"/><path d="m226.537 112.268 1.537 6.699 7.174-2.733v-1.909l-6.051 2.259-1.38-4.921-1.28.605z" fill="#fff"/><g opacity=".75" fill="#AAADAD"><path d="M241.981 140.935v1.976l37.245 21.515v-1.976l-37.245-21.515zM241.981 146.636v1.976l37.245 21.441v-1.974l-37.245-21.443zM241.981 152.336v1.976l37.245 21.442v-1.976l-37.245-21.442z"/></g><path d="M236.019 138.197v11.793l-10.821-6.271v-11.838l10.821 6.316z" fill="#AAADAD"/><path d="m226.537 137.237 1.537 6.699 7.174-2.733v-1.908l-6.051 2.259-1.38-4.922-1.28.605z" fill="#fff"/><path d="m261.502 48.923-2.839-1.663c.063-.301.101-.63.101-.988 0-3.142-2.547-7.178-5.689-9.02-3.142-1.841-5.688-.788-5.688 2.354 0 .357.037.729.1 1.105l-2.838-1.663c-2.762-1.617-5.018-.683-5.018 2.076 0 2.759 2.259 6.342 5.018 7.958l16.85 9.873c2.762 1.617 5.018.683 5.018-2.076 0-2.759-2.259-6.342-5.018-7.958l.003.002zm-8.427-3.141c-1.57-.92-2.841-2.936-2.841-4.506 0-1.57 1.271-2.095 2.841-1.175 1.57.92 2.841 2.936 2.841 4.506 0 1.57-1.273 2.095-2.841 1.175z" fill="url(#g)"/><path d="m260.726 49.514-2.838-1.663c.063-.301.1-.63.1-.988 0-3.142-2.546-7.178-5.689-9.02-3.142-1.841-5.688-.788-5.688 2.354 0 .357.037.728.1 1.105l-2.838-1.663c-2.761-1.617-5.018-.683-5.018 2.076 0 2.759 2.259 6.342 5.018 7.958l16.851 9.873c2.761 1.617 5.018.682 5.018-2.076 0-2.759-2.259-6.342-5.018-7.958l.002.002zm-8.424-3.144c-1.57-.92-2.841-2.936-2.841-4.505 0-1.57 1.271-2.096 2.841-1.175 1.57.92 2.841 2.936 2.841 4.505 0 1.57-1.274 2.096-2.841 1.175z" fill="url(#h)"/><path d="m413.736 144.889 66.066 39.155a7.403 7.403 0 0 1 3.677 6.398v103.11c0 3.158-3.424 5.125-6.153 3.537l-65.139-38.615a6.442 6.442 0 0 1-3.2-5.567v-105.29c0-2.436 2.642-3.954 4.749-2.728z" fill="#878AA0"/><path d="m411.248 146.143 66.067 39.155a7.405 7.405 0 0 1 3.677 6.398v103.111c0 3.158-3.425 5.124-6.154 3.536L409.7 259.728a6.44 6.44 0 0 1-3.201-5.566V148.871c0-2.436 2.642-3.954 4.749-2.728z" fill="#EFEFEF"/><g opacity=".75" fill="#AAADAD"><path d="M417.862 223.988v2.81l43.207 25.222v-2.81l-43.207-25.222zM417.862 232.098v2.812l49.529 28.761v-2.813l-49.529-28.76zM417.862 240.21v2.812l49.529 28.759v-2.81l-49.529-28.761zM417.862 248.322v2.81l49.529 28.761v-2.81l-49.529-28.761z"/></g><path d="m426.615 194.482 4.462.986a9.148 9.148 0 0 1 1.066-2.322l-2.161-6.01.834-.766c.43-.397.934-.686 1.495-.852l1.086-.33 4.124 4.889a9.312 9.312 0 0 1 2.553.257l1.399-4.33 1.353.574c.35.15.703.325 1.056.528.353.203.703.434 1.053.689l1.353.988 1.369 5.928a27.742 27.742 0 0 1 2.546 2.691l4.138-.114 1.081 1.581a19.354 19.354 0 0 1 1.486 2.579l.827 1.726-2.189 3.497a27.174 27.174 0 0 1 1.047 3.543l4.455 4.169.175 1.661c.091.86.089 1.677-.007 2.427l-.185 1.453-4.464-.986a9.195 9.195 0 0 1-1.063 2.324l2.161 6.008-.834.768c-.43.397-.934.685-1.495.853l-1.089.327-4.123-4.889a9.263 9.263 0 0 1-2.553-.259l-1.397 4.33-1.355-.574a9.427 9.427 0 0 1-1.054-.528 11.687 11.687 0 0 1-1.056-.691l-1.353-.991-1.368-5.93a27.267 27.267 0 0 1-2.547-2.689l-4.14.115-1.081-1.582a18.915 18.915 0 0 1-1.486-2.578l-.827-1.729 2.187-3.494a27.163 27.163 0 0 1-1.049-3.546l-4.455-4.167-.175-1.661a10.451 10.451 0 0 1 .007-2.427l.184-1.453.009.007zm17.19 20.112c3.544 2.048 6.426.401 6.438-3.677.012-4.081-2.852-9.046-6.396-11.097-3.546-2.051-6.429-.404-6.441 3.674-.012 4.078 2.853 9.046 6.399 11.097M379.384 238.517l-82.59-47.461c-1.383-.794-2.514-2.576-2.514-3.957 0-1.383 1.131-1.864 2.514-1.07l82.59 47.461c1.383.794 2.513 2.576 2.513 3.957 0 1.383-1.13 1.864-2.513 1.07zM379.384 250.305l-82.59-47.46c-1.383-.795-2.514-2.577-2.514-3.957 0-1.383 1.131-1.864 2.514-1.07l82.59 47.461c1.383.794 2.513 2.576 2.513 3.957 0 1.383-1.13 1.864-2.513 1.069z" fill="#AAADAD"/><path d="M418.306 349.345s-3.661-.292-10.055-.799L194.683 226.153a14.567 14.567 0 0 0-14.738.056L7.238 328.045l-6.758-.708v8.953l.04.005a6.252 6.252 0 0 0 3.107 4.835l220.422 126.38a11.303 11.303 0 0 0 11.442-.044L416.054 360.98c1.481-.879 2.222-2.38 2.24-3.889l.01-.005v-7.739l.002-.002z" fill="url(#i)"/><path d="M418.306 348.873s-3.661-.292-10.055-.799L194.683 225.682a14.567 14.567 0 0 0-14.738.056L7.238 327.576c-3.782-.4-6.758-.71-6.758-.71v8.953l.04.004c.189 1.906 1.221 3.738 3.107 4.835l220.422 126.38a11.3 11.3 0 0 0 11.442-.044l180.563-106.486c1.481-.878 2.222-2.38 2.24-3.889l.01-.005v-7.738l.002-.003z" fill="url(#j)"/><path d="M416.023 344.664 194.681 217.749a14.569 14.569 0 0 0-14.739.056L3.587 321.804c-4.16 2.462-4.138 8.49.042 10.92l220.422 126.38a11.303 11.303 0 0 0 11.442-.045l180.563-106.486c3.014-1.784 2.997-6.15-.03-7.911l-.003.002z" fill="url(#k)"/><path d="M416.056 351.959 235.493 458.445a11.3 11.3 0 0 1-11.442.044L3.629 332.109c-1.995-1.161-3.032-3.139-3.13-5.159-.106 2.226.932 4.498 3.13 5.776l220.422 126.38a11.303 11.303 0 0 0 11.442-.044l180.563-106.487c1.605-.95 2.322-2.63 2.213-4.262-.094 1.425-.811 2.817-2.213 3.646z" fill="url(#l)"/><path d="M371.188 215.848S346.105 228.9 345.563 228.9c-.542 0-19.666-13.94-19.666-13.94s-3.072-.995-4.779 2.208c-1.708 3.202-1.159 3.431-1.159 3.431s23.52 20.251 26.957 19.347c3.436-.904 26.333-11.401 26.333-11.401l-2.061-12.697z" fill="url(#m)"/><path d="M382.724 347.593s-5.569 6.802-7.261 8.141c-1.691 1.34-4.097 1.934-2.1 3.111 1.997 1.177 2.647 2.607 5.896 1.294 3.25-1.313 10.931-5.84 12.277-8.43 1.343-2.59-.687-4.478-.687-4.478l-8.127.362h.002zM365.981 338.25s-9.319 8.397-9.377 9.276c-.059.878 2.572 4.557 7.352 1.91 4.779-2.646 11.318-6.636 11.844-7.923.525-1.289-.846-3.662-.846-3.662l-8.975.399h.002z" fill="#404363"/><path d="M364.995 266.544s-4.607 34.64-2.661 39.713c1.946 5.073 2.649 16.703 3.168 21.842.519 5.139.477 10.684.477 10.684s-.736 2.709 3.653 2.513c4.388-.196 5.978-3.135 5.978-3.135s2.5-12.536 1.986-19.777c-.514-7.241-3.093-13.648-3.093-13.648l7.583-31.472-17.089-6.72h-.002z" fill="#1D2035"/><path d="m376.65 279.599 1.61 36.078s2.852 8.666 3.775 16.463c.92 7.797.689 15.453.689 15.453s.5 2.654 3.745 2.509c3.243-.145 5.256-2.147 5.256-2.147s1.965-15.953 2.154-24.563c.189-8.61-1.49-11.975-1.49-11.975s-1.201-14.092 2.317-20.938c3.518-6.847 2.444-13.541 2.444-13.541s-4.701 4.994-20.5 2.663v-.002z" fill="#2D2F4F"/><path d="M398.818 226.415s-23.053-11.172-27.013-10.747c-3.96.425-7.366 13.903-7.226 16.306.143 2.404 1.002 7.776 1.145 12.067.142 4.291-.848 30.106-.848 30.106s1.838 5.51 13.718 7.381c11.879 1.871 20.224-6.456 20.224-6.456s-3.18-21.076-1.874-29.354c1.308-8.276 5.126-19.305 1.874-19.305v.002z" fill="url(#n)"/><path d="m374.227 280.136-9.648-30.977 18.794-10.329 9.649 30.977-18.795 10.329z" fill="url(#o)"/><path d="M398.818 226.415c-5.231.175-5.373 6.223-4.243 15.131 1.131 8.909 1.862 17.659 1.862 17.659l-20.801 11.032s-.43 1.364.185 3.419c1.156 3.866 2.425 2.855 2.425 2.855s27.783-6.541 29.622-12.198c1.838-5.657-.565-38.181-9.053-37.898h.003z" fill="url(#p)"/><path d="M375.636 270.234s-1.943-1.231-3.42-1.231c-1.476 0-4.432 1.231-4.432 1.231s-.184.862 1.909.862 2.584.309 2.584.309-2.589 1.852-4.986 2.029c-2.396.178-2.707 0-2.831.678-.124.677 3.261 2.828 5.969 3.074 2.708.247 6.427-1.206 6.427-1.206s-1.862-4.085-1.222-5.746h.002z" fill="url(#q)"/><path d="M370.506 198.196s-1.313 6.905-1.145 9.339c.169 2.434 2.023 9.558 3.416 10.534 1.392.977 3.422.713 3.422.713l-.388.579s-.392 3.044 4.965 3.95c5.356.906 8.758-.785 8.758-.785s-1.257-4.753-.582-8.995c.673-4.24 1.026-14.884-3.366-17.021-4.39-2.137-15.078 1.686-15.078 1.686h-.002z" fill="url(#r)"/><path d="M376.047 218.693s3.383.236 5.037-1.409c1.652-1.644 2.152-2.085 2.152-2.085s-.806 2.102-2.629 4.276c-1.819 2.173-.901 3.609-.901 3.609s-3.904-.549-3.862-3.071c.026-1.554.203-1.318.203-1.318v-.002z" fill="#B7766E"/><path d="M382.654 200.521s-2.437 2.23-.647 4.183c1.789 1.95 1.588 5.536 1.588 5.536l1.43-.645s-.184-3.966 1.371-3.707c1.556.257 2.409 1.072 1.795 3.287-.615 2.214.679 3.777 2.432 3.239 1.752-.539 5.356-7.096 5.91-10.1.554-3.003-2.523-6.052-2.523-6.052s-.755-5.44-4.126-6.582c-3.371-1.142-15.248 2.784-19.813 1.901-4.564-.882-4.42 4.429-.857 6.506 3.563 2.076 7.079 4.809 13.442 2.438l-.002-.004z" fill="#3B3E5E"/><path d="M324.372 214.813s-.416-3.604-1.909-5.809-2.904-3.452-2.904-3.452-1.824-.617-.913 1.808l.913 2.424s-4.978-2.707-6.139-5.169c-1.161-2.462-4.109 2.116-.748 7.472 3.362 5.356 7.203 7.3 7.203 7.3s1.177-3.282 4.495-4.576l.002.002z" fill="url(#s)"/><path d="M188.002 242.541s6.219 4.006 5.637 5.001c-.579.995-5.151 3.815-5.151 3.815l-4.801-4.408s.418-3.936 4.315-4.408z" fill="url(#t)"/><path d="M167.082 299.595s1.203 4.913-1.958 5.964c-1.85.616-3.574-.563-3.574-.563l-7.499 3.471 14.122 12.977s.75 3.305-2.369 3.581c-3.119.276-4.679-2.934-4.679-2.934s-11.494-9.812-13.499-9.812c-2.004 0-11.269 8.897-11.269 8.897s-.367 3.118-4.128 4.309c-3.761 1.191-4.813-2.908-4.306-4.127.51-1.222 12.653-13.024 12.653-13.024l-9.541-5.041s-2.294.364-4.77-1.105c-2.477-1.467-.858-4.91-.858-4.91l20.946 6.928 9.999-.528 3.768.243 6.959-4.328.003.002z" fill="#9297A5"/><path d="m154.562 309.16 12.982 10.684c.998.82.806 2.399-.36 2.957l-.556.267a1.767 1.767 0 0 1-1.859-.208l-15.043-11.91a1.762 1.762 0 0 0-1.151-.381l-2.467.075a1.762 1.762 0 0 0-1.094.422l-13.809 11.796a1.763 1.763 0 0 1-1.777.306l-.367-.14a1.767 1.767 0 0 1-.626-2.892l10.774-10.91a1.77 1.77 0 0 0 .227-2.201l-1.007-1.557a1.775 1.775 0 0 0-.699-.624l-11.37-5.646c-1.187-.588-1.327-2.228-.257-3.008l.876-.64a1.767 1.767 0 0 1 1.776-.18l10.524 4.802c.168.077 4.574 1.635 4.759 1.656l4.502 1.138c.313.037 4.997-1.128 5.286-1.257l10.137-4.143a1.768 1.768 0 0 1 1.857.268l.647.551a1.766 1.766 0 0 1-.437 2.965l-10.8 4.379a1.77 1.77 0 0 0-.827.745l-.254.446a1.763 1.763 0 0 0 .413 2.238v.002z" fill="url(#u)"/><path d="M141.118 305.267v1.354c0 1.857 2.207 3.362 4.936 3.362s4.936-1.505 4.936-3.362v-1.354h-.023c-.243 1.705-2.346 3.036-4.913 3.036s-4.67-1.331-4.913-3.036h-.023z" fill="url(#v)"/><path d="M141.118 304.937c0 .112.007.22.023.33.243 1.705 2.346 3.036 4.913 3.036s4.67-1.331 4.913-3.036a2.25 2.25 0 0 0 .023-.33c0-1.857-2.207-3.361-4.936-3.361s-4.936 1.504-4.936 3.361z" fill="#ADB1BC"/><path d="M143.571 295.211v9.497c0 .935 1.112 1.692 2.483 1.692s2.483-.757 2.483-1.692v-9.497h-.011c-.122.857-1.18 1.528-2.472 1.528s-2.35-.671-2.472-1.528h-.011z" fill="url(#w)"/><path d="M143.571 295.048c0 .056.002.109.011.165.122.858 1.18 1.528 2.472 1.528s2.35-.67 2.472-1.528a.995.995 0 0 0 .011-.165c0-.935-1.112-1.691-2.483-1.691s-2.483.756-2.483 1.691z" fill="#ADB1BC"/><path d="M141.118 285.973v7.818c0 1.857 2.207 3.361 4.936 3.361s4.936-1.504 4.936-3.361v-7.818h-.023c-.243 1.705-2.346 3.037-4.913 3.037s-4.67-1.332-4.913-3.037h-.023z" fill="url(#x)"/><path d="M141.118 285.644c0 .112.007.219.023.329.243 1.705 2.346 3.037 4.913 3.037s4.67-1.332 4.913-3.037c.016-.107.023-.217.023-.329 0-1.857-2.207-3.361-4.936-3.361s-4.936 1.504-4.936 3.361z" fill="#ADB1BC"/><path d="M141.209 196.073a3.536 3.536 0 0 0-3.626-.079l-26.856 15.253a5.17 5.17 0 0 0-2.563 5.419l8.247 48a20.88 20.88 0 0 0 8.87 13.641l34.517 22.706v-9.787l-13.933-92.24-4.654-2.917-.002.004z" fill="url(#y)"/><path d="m143.076 199.418-24.747 13.875a5.169 5.169 0 0 0-2.563 5.419l7.186 40.306a20.884 20.884 0 0 0 8.87 13.641l27.971 18.567 35.061-20.408-40.439-25.429-6.406-43.549c-.341-2.314-2.894-3.569-4.933-2.424v.002z" fill="url(#z)"/><path d="M198.615 318.006s2.831 2.217 5.976 4.637c3.144 2.417 4.273 2.59 1.371 4.358-2.901 1.768-4.917 1.619-8.305 0-3.385-1.619-10.078-3.714-10.562-5.568-.483-1.855-.649-4.233-.649-4.233l12.169.804v.002z" fill="#2D2F4F"/><path d="M164.463 250.028s28.059 10.261 30.785 13.274c2.727 3.013 5.434 57.456 5.434 57.456s-1.369 1.235-4.308 1.798c-2.938.563-3.628-.28-3.628-1.098 0-.383.767-24.383-9.685-38.592-11.901-16.177-35.208-22.79-35.208-22.79l16.607-10.046.003-.002zM198.615 324.88s2.831 2.217 5.976 4.637c3.144 2.42 4.273 2.59 1.371 4.358-2.901 1.768-4.917 1.619-8.305 0-3.385-1.618-10.078-3.714-10.562-5.568-.483-1.855-.649-4.233-.649-4.233l12.169.804v.002z" fill="#2D2F4F"/><path d="M136.635 256.696s-1.035 15.052 8.999 19.66c10.033 4.609 34.71 13.286 34.71 13.286s.047 11.021 1.514 19.135c1.467 8.115 4.586 15.3 4.586 15.3s2.983 3.118 7.863 2.305c4.88-.813 5.016-2.441 5.016-2.441s-6.525-27.693-5.983-36.91c.542-9.219-38.759-28.849-38.759-28.849l-17.946-1.486z" fill="#383B5B"/><path d="M168.955 201.483s2.523 1.841 2.883 6.496c.36 4.655 2.163 21.47 2.163 21.47l14.536 13.466s-3.364-.119-3.965 2.037c-.6 2.156-1.081 3.356-1.081 3.356s-18.021-9.009-18.981-14.654c-.961-5.646 4.445-32.171 4.445-32.171z" fill="url(#A)"/><path d="M168.955 201.483c-3.791-1.467-10.835.525-15.729 2.894-4.894 2.371-19.68 9.039-19.855 10.857-.175 1.817 1.853 41.838 1.853 41.838s8.73 5.069 19.658 1.049c10.926-4.02 10.053-11.532 10.053-11.532s6.674-44.078 4.02-45.106z" fill="url(#B)"/><path d="M166.22 189.591s.215 6.228-.264 8.337-3.068 8.098-4.42 8.764c-1.353.668-3.093.161-3.093.161l.261.56s-.067 2.722-4.884 2.787c-4.818.068-7.565-1.873-7.565-1.873s1.745-3.994 1.731-7.799c-.014-3.805 1.122-13.179 5.257-14.454 4.134-1.278 12.979 3.52 12.979 3.52l-.002-.003z" fill="url(#C)"/><path d="M162.475 191.182c-4.866.322-7.212-1.203-7.212-1.203s1.145 2.149-.297 3.28c-1.441 1.128-1.102 6.103-1.81 6.087-.708-.017-.304-4.469-2.427-4.501-2.124-.035-1.526 1.2-1.369 2.945.156 1.745.605 2.889-1.084 3.286-1.689.398-5.114-4.398-4.929-9.025.182-4.627 3.219-6.005 3.219-6.005s-1.033-5.996 7.415-5.391c8.447.607 11.486 2.693 13.9 1.256 2.413-1.434 4.653 8.608-5.406 9.271z" fill="#2D2F4F"/><path d="M158.585 206.794s-2.997-.252-4.221-1.917c-1.224-1.666-1.603-2.119-1.603-2.119s.421 1.951 1.722 4.102c1.301 2.151.299 3.284.299 3.284s3.493.049 3.801-2.168c.189-1.364 0-1.182 0-1.182h.002z" fill="#B7766E"/><path d="m232.358 292.149 25.492-14.248-31.517-17.914-25.492 14.249 31.517 17.913z" fill="#fff"/><path d="m200.841 274.236 31.517 17.913v1.317l-31.517-17.915v-1.315z" fill="#CCC4CC"/><path d="M257.85 277.901v1.317l-25.492 14.248v-1.317l25.492-14.248z" fill="#E5E5E5"/><path d="m227.025 274.986 10.746-6.055-11.05-6.283-10.749 6.057 11.053 6.281z" fill="#C1C1C1"/><path d="m229.791 276.775 10.746-6.057-.757-.43-10.746 6.055.757.432z" fill="#584FAA"/><path d="m222.885 283.058 19.616-11.086-.756-.429-19.617 11.085.757.43zM224.675 284.21l19.616-11.086-.757-.43-19.616 11.086.757.43zM226.464 285.359l19.617-11.084-.757-.432-19.617 11.086.757.43zM228.253 286.51l19.617-11.085-.757-.43-19.616 11.086.756.429zM230.043 287.662l19.616-11.086-.757-.43-19.616 11.084.757.432zM231.832 288.811l19.617-11.086-.757-.429-19.617 11.085.757.43zM217.881 280.624l6.908-3.891-11.052-6.284-6.906 3.892 11.05 6.283z" fill="#C1C1C1"/><path d="M265.144 349.672v64.118l3.543-2.362v-58.682l63.621-35.66v57.972l3.42-1.89v-63.169l-70.584 39.673z" fill="url(#D)"/><path d="m143.503 342.067-.084-60.847 121.725 68.452v64.118l-2.488-1.306v-58.423l-116.908-65.596v55.316l-2.245-1.714z" fill="url(#E)"/><path d="m333.322 304.528-112.189-64.766a11.737 11.737 0 0 0-11.615-.042l-63.852 36.013c-2.871 1.619-2.887 5.751-.028 7.39l112.21 64.779a13.358 13.358 0 0 0 13.211.049l62.23-35.1c3.233-1.824 3.249-6.475.03-8.323h.003z" fill="url(#F)"/><path d="M333.322 300.457 221.133 235.69a11.742 11.742 0 0 0-11.615-.042l-63.852 36.014c-2.871 1.618-2.887 5.75-.028 7.39l112.21 64.778a13.356 13.356 0 0 0 13.211.049l62.23-35.099c3.233-1.825 3.25-6.475.03-8.323h.003z" fill="url(#G)"/><path d="m212.262 304.223 36.5 21.22a2.783 2.783 0 0 0 2.834-.023l26.912-16.131a1.168 1.168 0 0 0-.016-2.011L241.67 285.87a2.412 2.412 0 0 0-2.456.021l-26.97 16.164a1.26 1.26 0 0 0 .018 2.168z" fill="#5A5C66"/><path d="m212.263 303.592 36.5 21.221a2.779 2.779 0 0 0 2.833-.024l26.913-16.131a1.168 1.168 0 0 0-.017-2.011L241.67 285.24a2.406 2.406 0 0 0-2.455.021l-26.971 16.163a1.259 1.259 0 0 0 .019 2.168z" fill="#D0D5E2"/><path d="M250.159 323.953c-.273 0-.542-.072-.775-.21l-36.5-21.221c-.014-.012-.014-.03-.009-.035l26.98-16.171a1.183 1.183 0 0 1 1.196-.009l36.726 21.351-26.816 16.073a1.548 1.548 0 0 1-.797.222h-.005z" fill="#fff"/><path d="m245.233 293.415 15.145 8.801c.243.143.645.126.895-.033.247-.158.252-.404.009-.546l-15.145-8.801c-.243-.143-.645-.127-.895.032-.248.159-.252.404-.009.547z" fill="url(#H)"/><path d="m237.974 293.317 15.353 8.915c.243.143.645.127.895-.032.248-.159.252-.404.009-.547l-15.353-8.915c-.243-.143-.645-.127-.895.032-.247.159-.252.404-.009.547zM235.362 294.936l15.354 8.915c.243.143.644.126.894-.032.248-.159.253-.405.01-.547l-15.353-8.916c-.243-.142-.645-.126-.895.033-.248.159-.253.404-.01.547zM232.753 296.554l15.353 8.916c.243.142.645.126.895-.033.247-.159.252-.404.009-.546l-15.353-8.916c-.243-.143-.645-.126-.895.033-.247.158-.252.404-.009.546zM229.337 299.145l15.353 8.915c.243.143.645.126.895-.032.248-.159.252-.405.01-.547l-15.354-8.916c-.243-.142-.644-.126-.894.033-.248.159-.253.404-.01.547zM226.728 300.763l15.353 8.916c.243.142.645.126.895-.033.247-.159.252-.404.009-.546l-15.353-8.916c-.243-.143-.645-.126-.895.033-.247.158-.252.404-.009.546zM224.119 302.384l15.353 8.916c.243.142.644.126.894-.033.248-.159.253-.404.01-.546l-15.353-8.916c-.243-.142-.645-.126-.895.033-.248.159-.252.404-.009.546z" fill="#AAADAD"/><path d="m219.855 228.868-40.043 22.853v34.387l40.043-22.853 1.591-33.607-1.591-.78z" fill="#C6C6C6"/><path d="m221.446 229.648-40.044 22.853v34.388l40.044-22.854v-34.387z" fill="#EFEFEF"/><path d="m181.402 286.889-24.861-16.573 24.861-14.559v31.132z" fill="#B2B1B1"/><path d="M156.541 270.316v1.733l24.861 14.84v-34.388l-1.591-.78v32.815l-23.27-14.22z" fill="#C6C6C6"/><path d="m179.811 265.827-9.814 6.012 9.814 5.685v-11.697z" fill="#827F7F"/><path d="M160.529 266.67s2.759 2.172 5.163 1.25c2.406-.925 3.714 2.992 4.887 2.606 1.173-.385 1.995-3.485.612-5.148-1.383-1.665-7.219-3.015-7.219-3.015s-3.52 1.072-3.445 4.309l.002-.002z" fill="url(#I)"/><path d="M138.266 215.236c-4.836-2.939-6.927-.582-7.021 8.014-.105 9.504.795 26.922 2.117 29.085 1.322 2.163 27.63 16.274 27.63 16.274s-1.398-2.502.658-4.305c2.054-1.801 3.427-2.782 3.427-2.782s-22.583-11.707-22.223-14.351c.359-2.642 1.901-27.995-4.586-31.935h-.002z" fill="url(#J)"/><path d="M176.492 413.455s-.077 4.21 2.668 3.537c2.745-.671 4.574-4.025 4.574-4.025s10.512-8.112 11.325-7.927c.813.182 11.062 6.769 11.062 6.769s2.378 3.155 5.672 3.529c3.294.374 3.988-3.102 4.039-3.279.052-.178-15.811-11.595-15.811-11.595l10.492-4.634s3.051.609 3.6-1.341c.549-1.953-2.268-3.478-2.268-3.478l-14.375 6.057-19.056-5.7s-.474 3.424 1.54 4.34a71.215 71.215 0 0 0 3.782 1.586l7.258 4.819-14.5 11.345-.002-.003z" fill="url(#K)"/><path d="m189.378 400.674-12.499 11.616a1.25 1.25 0 0 0 .192 1.96l1.402.892a1.254 1.254 0 0 0 1.481-.101l13.972-11.44a1.25 1.25 0 0 1 1.488-.096l16.138 10.42c.377.243.853.266 1.253.061l2.443-1.259a1.25 1.25 0 0 0 .122-2.152l-14.372-9.586a1.25 1.25 0 0 1 .187-2.184l11.192-4.958a1.25 1.25 0 0 0 .325-2.077l-1.481-1.317a1.245 1.245 0 0 0-1.322-.215l-13.564 5.811a1.247 1.247 0 0 1-.974.005l-14.209-5.921a1.243 1.243 0 0 0-.995.014l-1.068.481c-.929.42-.992 1.717-.107 2.223l10.165 5.833c.724.416.845 1.413.24 1.99h-.009z" fill="url(#L)"/><path d="M190.591 396.579v2.939c0 1.282 1.999 2.322 4.469 2.322 2.469 0 4.469-1.04 4.469-2.322v-2.939h-8.938z" fill="url(#M)"/><path d="M199.526 396.243c0 1.282-2 2.322-4.469 2.322-2.469 0-4.469-1.04-4.469-2.322s2-2.322 4.469-2.322c2.467 0 4.469 1.04 4.469 2.322z" fill="url(#N)"/><path d="M191.936 386.129v9.918c0 .894 1.397 1.621 3.121 1.621s3.121-.727 3.121-1.621v-9.918h-6.242z" fill="url(#O)"/><path d="M198.181 385.893c0 .895-1.397 1.621-3.121 1.621-1.725 0-3.122-.726-3.122-1.621 0-.894 1.397-1.621 3.122-1.621 1.724 0 3.121.727 3.121 1.621z" fill="url(#P)"/><path d="M190.591 373.96v14.194c0 1.283 1.999 2.322 4.469 2.322 2.469 0 4.469-1.039 4.469-2.322V373.96h-8.938z" fill="url(#Q)"/><path d="M195.06 375.945c2.468 0 4.469-1.039 4.469-2.322 0-1.282-2.001-2.321-4.469-2.321-2.469 0-4.469 1.039-4.469 2.321 0 1.283 2 2.322 4.469 2.322z" fill="url(#R)"/><path d="M218.486 382.226s-1.376 3.726-.78 4.674c.596.946 6.427 4.041 9.76-.72 3.334-4.76 4.771-9.401 3.993-11.305-.778-1.903-3.635-1.903-5.182-.476-1.546 1.427-7.791 7.827-7.791 7.827z" fill="url(#S)"/><path d="M234.65 385.515s-.794 5.307 0 6.376c.794 1.073 4.602 4.046 6.983 2.976 2.38-1.072 18.093-9.051 19.163-10.595 1.072-1.544-1.904-4.877-7.261-3.924-5.357.953-9.284 1.072-9.284 1.072l-9.601 4.095z" fill="url(#T)"/><path d="M206.042 340.046s11.844-6.334 17.904-5.921c6.06.414 5.509 6.059 5.922 10.74.414 4.681-2.203 33.047-2.203 33.047s.827 3.581-2.616 4.543c-3.444.965-7.254 0-7.072-.827.185-.827-.504-32.888-.504-32.888l-14.599 6.587 3.168-15.285v.004z" fill="url(#U)"/><path d="m230.863 364.936-36.558-22.822s4.833 35.975 12.136 37.48c7.303 1.504 24.42-14.658 24.42-14.658h.002z" fill="url(#V)"/><path d="M200.615 276.49s.224 5.108 0 6.131l-.224 1.023s.479 2.336.324 3.326c-.154.988-.892 6.211-1.602 6.949-.71.738-4.799.624-4.799.624v2.997h-11.129s1.591-8.257 1.532-8.694c-.056-.435-2.782-7.533-1.532-11.109 1.25-3.576 15.722-5.62 17.43-1.25v.003z" fill="url(#W)"/><path d="M201.299 274.334s.454 3.008-1.703 3.69c-2.158.682-1.42 4.599-2.27 5.167-.853.568-.115 2.896-.624 3.235-.512.341-1.192-2.838-2.612-2.838-1.42 0-1.362 2.044-.624 3.635.739 1.59-.341 4.258-2.782 4.258s-5.735-.164-6.927-1.614c-1.191-1.451-4.144-6.221-3.691-9.57.453-3.35 1.533-4.541 1.533-4.541s.511-5.052 5.847-5.678c5.338-.624 10.788 1.647 12.435 1.647 1.647 0 1.421 2.611 1.421 2.611l-.003-.002z" fill="#2D2F4F"/><path d="M177.279 356.885s1.248 10.277 6.495 13.193c5.247 2.915 12.395 3.456 15.596 5.503 3.2 2.043 17.352-7.561 25.2-11.163l7.847-3.602s-.514 3.772 1.03 13.55c1.544 9.775 1.201 11.149 1.201 11.149s3.945 2.23 8.062 1.03c4.116-1.201 3.946-3.027 3.946-3.027s3.202-37.973-2.115-41.404c-5.317-3.432-16.271 2.064-26.013 5.332-10.087 3.385-9.629 3.913-9.629 3.913l-31.62 5.526z" fill="url(#X)"/><path d="M209.263 349.831s-1.077-38.127-3.784-41.657c-2.708-3.529-9.66-5.799-9.66-5.799l-.463-4.791-11.58-5.295-4.291 1.567s-5.782-3.567-6.841-2.861c-1.058.705-5.527 1.025-3.999 22.517 1.528 21.491 5.882 40.673 5.882 40.673s6.869 9.315 20.5 6.718c13.631-2.598 14.239-11.072 14.239-11.072h-.003z" fill="url(#Y)"/><path d="m200.54 383.321-34.804-19.791a12.237 12.237 0 0 1-5.948-8.385l-5.611-37.613c-.449-2.411 2.021-4.319 4.238-3.268 10.043 4.763 31.099 15.309 33.872 21.274 2.777 5.978 5.929 30.326 7.284 41.706.292 2.452 3.114 7.306.969 6.077z" fill="url(#Z)"/><path d="m156.314 313.766 30.77 18.834a11.674 11.674 0 0 1 5.492 8.525l4.593 37.107c.61 4.921 6.069 7.603 10.337 5.073l22.747-13.475a2.465 2.465 0 0 0 1.21-2.121v-1.518a1.642 1.642 0 0 0-2.448-1.432L209.98 375.45c-2.927 1.644-6.588-.196-7.015-3.527l-4.229-33.01a15.607 15.607 0 0 0-7.281-11.298l-26.623-16.46a3.563 3.563 0 0 0-3.595-.091l-4.918 2.705-.005-.003z" fill="url(#aa)"/><path d="M236.147 310.826s3.388-6.377 4.126-6.973c.738-.595 7.086-4.557 7.086-4.557s1.095 1.845.049 2.621c-1.047.778-4.329 3.2-4.329 3.2s2.165 4.13 1.635 5.76c-.528 1.63-4.485 6.001-4.485 6.001s-2.773-4.955-4.084-6.052h.002z" fill="url(#ab)"/><path d="M199.973 306.462c-3.89 1.699-6.388 7.559.876 13.852 7.263 6.292 13.344 10.338 18.39 9.397 5.048-.939 22.602-12.387 22.602-12.387s.547-1.778-1.642-4.651c-2.189-2.873-4.652-2.873-4.652-2.873s-14.285 9.738-17.367 8.234c-3.081-1.504-13.432-13.66-18.21-11.574l.003.002z" fill="url(#ac)"/><path d="m111.005 93.112 54.292-31.975c2.609-1.52 5.885.362 5.885 3.382v45.427a6.664 6.664 0 0 1-3.306 5.753l-56.432 33.222c-2.507 1.462-5.656-.348-5.656-3.249v-43.483c0-3.738 1.986-7.195 5.217-9.077z" fill="url(#ad)"/><path d="m170.56 63.178-54.292 31.975a10.505 10.505 0 0 0-5.216 9.077v43.483c0 2.901 3.147 4.709 5.656 3.249l6.274-3.695v21.108l18.4-31.939 31.757-18.696a6.66 6.66 0 0 0 3.306-5.753V66.561c0-3.02-3.275-4.903-5.885-3.383z" fill="url(#ae)"/><path d="m167.051 81.512-32.262 18.712c-.799.46-1.45.182-1.45-.614v-.395c0-.799.654-1.827 1.45-2.287l32.262-18.712c.799-.46 1.451-.182 1.451.615v.394c0 .8-.654 1.827-1.451 2.287zM167.051 89.052l-41.585 24.204c-.799.46-1.451.182-1.451-.615v-.395c0-.798.654-1.826 1.451-2.286l41.585-24.204c.799-.46 1.451-.182 1.451.615v.394c0 .8-.654 1.827-1.451 2.287zM167.051 96.592l-41.585 24.203c-.799.461-1.451.183-1.451-.614v-.395c0-.799.654-1.826 1.451-2.286l41.585-24.204c.799-.46 1.451-.182 1.451.614v.395c0 .8-.654 1.827-1.451 2.287zM154.791 112.637 125.466 129.8c-.799.46-1.451.182-1.451-.614v-.395c0-.799.654-1.827 1.451-2.287l29.325-17.163c.799-.46 1.451-.182 1.451.614v.395c0 .799-.654 1.826-1.451 2.287z" fill="#FEFFFF"/><path d="M118.312 150.016v16.077l4.67 2.282v-21.108l-4.67 2.749z" fill="url(#af)"/><path d="M349.787 170.954v11.576c0 3.226-3.722 5.029-6.254 3.032l-7.903-6.234a8.075 8.075 0 0 1-3.075-6.339v-12.504a6.346 6.346 0 0 0 2.101 3.025l9.442 7.475c1.811 1.431 4.138 1.214 5.689-.028v-.003z" fill="#7E8282"/><path d="M366.635 142.182c0 6.045-2.373 10.121-6.237 11.859-.622.28-1.278.504-1.97.661-.803.187-1.651.287-2.537.303h-.03c-1.687.035-3.046 1.383-3.046 3.07v3.494a5.044 5.044 0 0 1-1.911 4.001c-1.755 1.404-4.383 1.649-6.427.033l-10.667-8.442a7.144 7.144 0 0 1-2.715-5.613v-11.006c0-.654-.205-1.291-.595-1.817a54.07 54.07 0 0 1-.977-1.355 53.25 53.25 0 0 1-1.964-3.015c-3.869-6.382-6.238-13.293-6.238-19.343 0-12.513 10.146-16.568 22.656-9.072 6.576 3.938 12.489 10.287 16.629 17.238 3.744 6.288 6.032 13.069 6.032 19.006l-.003-.002z" fill="url(#ag)"/><path d="M350.901 165.57v13.076c0 3.644-4.202 5.681-7.064 3.424l-8.929-7.042a9.118 9.118 0 0 1-3.471-7.162v-14.124a7.165 7.165 0 0 0 2.371 3.417l10.667 8.442c2.044 1.616 4.672 1.371 6.426-.033v.002z" fill="#AAADAD"/><path d="M335.992 158.887v-33.081c0-1.547 2.114-1.99 2.736-.575l2.441 5.557 3.397-2.618c1.145-.883 2.806-.068 2.806 1.378v37.171" stroke="#fff" stroke-width="4" stroke-miterlimit="10"/><path d="m344.477 168.361-10.667-8.441a7.149 7.149 0 0 1-2.371-3.417v3.361a7.167 7.167 0 0 0 2.371 3.417l10.667 8.442c2.044 1.616 4.672 1.371 6.426-.033v-3.361c-1.754 1.404-4.382 1.649-6.426.032z" fill="#7E8282"/><path d="m344.477 174.481-10.667-8.441a7.147 7.147 0 0 1-2.371-3.418v3.362a7.172 7.172 0 0 0 2.371 3.417l10.667 8.441c2.044 1.617 4.672 1.371 6.426-.032v-3.362c-1.754 1.404-4.382 1.65-6.426.033z" fill="#7E8282"/><path d="M420.558 31.82c-.103-.172-.206-.352-.308-.525-4.262-7.157-10.354-13.697-17.127-17.752-7.77-4.655-14.65-4.977-18.89-1.68l-5.817 3.953 2.771-.06c-.904 1.945-1.397 4.33-1.397 7.13 0 6.232 2.439 13.35 6.424 19.922a53.725 53.725 0 0 0 2.023 3.107c2.523 3.613 5.502 6.97 8.763 9.805a43.565 43.565 0 0 0 4.544 3.485c.353.232.699.456 1.054.68.173.11.352.217.525.32.18.103.36.213.533.315.353.199.698.393 1.054.584 3.415 1.818 6.625 2.785 9.48 2.946.411.026.815.032 1.207.026.911-.02-.002 1.936.825 1.744.713-.16 3.969-2.146 4.612-2.436 3.98-1.791 5.63-6.29 5.63-12.517 0-6.228-2.227-12.721-5.906-19.049v.003z" fill="url(#ah)"/><path d="M414.62 35.1c-4.262-7.157-10.354-13.697-17.127-17.752-12.884-7.72-23.333-3.543-23.333 9.346 0 6.231 2.439 13.349 6.424 19.921a53.725 53.725 0 0 0 2.023 3.107c2.523 3.614 5.502 6.97 8.763 9.806a43.565 43.565 0 0 0 4.544 3.485c.353.231.701.455 1.054.68.173.11.352.217.525.32.18.102.36.212.533.315.353.198.698.392 1.054.584 3.903 2.078 7.541 3.04 10.687 2.97a12.57 12.57 0 0 0 2.612-.315 10.707 10.707 0 0 0 2.028-.68c3.978-1.79 6.424-5.988 6.424-12.213 0-6.225-2.354-13.1-6.214-19.574h.003z" fill="#91C89C"/><path d="M397.498 28.18c-7.56-4.322-13.688-1.697-13.688 5.862 0 7.558 6.128 17.189 13.688 21.51 7.56 4.321 13.687 1.696 13.687-5.863 0-7.558-6.127-17.189-13.687-21.51zm5.429 27.325c1.462-.581 2.373-2.043 2.373-4.239 0-3.749-2.644-8.388-6.169-11.153 1.317.137 2.233-.673 2.233-2.224 0-2.135-1.731-4.854-3.866-6.075-2.135-1.22-3.867-.48-3.867 1.656 0 1.55.916 3.408 2.234 4.776-3.525-1.263-6.17.353-6.17 4.1 0 2.198.911 4.7 2.374 6.95-3.815-4.15-6.427-9.618-6.427-14.208 0-6.547 5.308-8.82 11.856-5.078s11.856 12.083 11.856 18.628c0 4.59-2.61 7.075-6.427 6.863v.005z" fill="#fff"/><path d="M475.887 106.244c-.121-.206-.243-.419-.364-.624-5.049-8.477-12.265-16.225-20.29-21.032-9.204-5.517-17.355-5.897-22.378-1.99l-6.889 4.684 3.285-.07c-1.07 2.303-1.657 5.131-1.657 8.448 0 7.383 2.89 15.816 7.612 23.601a63.377 63.377 0 0 0 2.394 3.679c2.988 4.281 6.518 8.257 10.38 11.618a51.757 51.757 0 0 0 5.384 4.13c.419.273.83.539 1.248.805.205.129.418.26.624.381.212.122.425.25.63.374.419.236.83.465 1.248.691 4.046 2.152 7.847 3.301 11.232 3.49.486.03.965.037 1.43.03 1.079-.023-.003 2.294.979 2.065.843-.189 4.702-2.544 5.462-2.885 4.714-2.12 6.669-7.453 6.669-14.827 0-7.047-2.64-15.071-6.997-22.566l-.002-.002z" fill="url(#ai)"/><path d="M468.853 110.128c-5.048-8.477-12.265-16.225-20.289-21.031-15.262-9.147-27.642-4.198-27.642 11.069 0 7.383 2.89 15.815 7.612 23.601a63.014 63.014 0 0 0 2.394 3.678c2.988 4.282 6.518 8.257 10.38 11.619a51.609 51.609 0 0 0 5.384 4.129c.419.274.83.54 1.248.806.205.129.418.259.624.381.212.121.425.25.63.371.419.236.83.465 1.248.692 4.623 2.464 8.936 3.604 12.662 3.52a15.225 15.225 0 0 0 3.095-.372 12.623 12.623 0 0 0 2.404-.806c4.714-2.12 7.611-7.093 7.611-14.467 0-7.246-2.791-15.519-7.361-23.19z" fill="#91C89C"/><path d="M430.676 107.858s5.121 4.283 7.37 10.067c2.25 5.783 3.126 10.751 3.126 10.751s6.151-4.438 13.199-6.477c7.048-2.039 8.817-1.333 8.817-1.333l.306-11.116s-6.413.448-11.555 3.34c-5.141 2.891-7.907 4.98-7.907 4.98s-.288-4.913-2.215-8.32c-1.927-3.408-3.039-5.104-3.039-5.104l-8.1 3.209-.002.003z" fill="#fff"/><path d="m448.017 337.965-20.231-12.3v95.473l20.231 12.303v-95.476z" fill="url(#aj)"/><path d="m448.017 338.115 18.019-10.644v95.473l-18.019 10.644v-95.473z" fill="url(#ak)"/><path d="m448.017 338.115-20.231-12.45 18.019-10.609 20.231 12.45-18.019 10.609z" fill="url(#al)"/><path d="m421.179 375.952-20.233-12.3v73.007l20.233 12.303v-73.01z" fill="url(#am)"/><path d="m421.179 376.102 18.019-10.645v73.01l-18.019 10.642v-73.007z" fill="url(#an)"/><path d="m421.179 376.102-20.233-12.45 18.021-10.609 20.231 12.449-18.019 10.61z" fill="url(#ao)"/><path d="m393.797 407.604-20.231-12.302v57.556l20.231 12.3v-57.554z" fill="url(#ap)"/><path d="m393.798 407.752 18.021-10.642v57.554l-18.021 10.644v-57.556z" fill="url(#aq)"/><path d="m393.797 407.752-20.231-12.45 18.019-10.609 20.233 12.449-18.021 10.61z" fill="url(#ar)"/><path d="M367.07 449.803 346.839 437.5v31.694l20.231 12.301v-31.692z" fill="url(#as)"/><path d="m367.07 449.95 18.018-10.642V471l-18.018 10.644V449.95z" fill="url(#at)"/><path d="m367.07 449.95-20.231-12.45 18.018-10.609 20.231 12.45-18.018 10.609z" fill="url(#au)"/><defs><linearGradient id="K" x1="176.489" y1="404.035" x2="215.832" y2="404.035" gradientUnits="userSpaceOnUse"><stop stop-color="#454C5B"/><stop offset="1" stop-color="#7D838C"/></linearGradient><linearGradient id="a" x1="261.163" y1="80.516" x2="261.163" y2="486.155" gradientUnits="userSpaceOnUse"><stop stop-color="#B2E2BC"/><stop offset="1" stop-color="#4C9058"/></linearGradient><linearGradient id="c" x1="343.318" y1="225.114" x2="353.297" y2="97.872" gradientUnits="userSpaceOnUse"><stop stop-color="#454C5B"/><stop offset="1" stop-color="#7D838C"/></linearGradient><linearGradient id="d" x1="352.385" y1="36.763" x2="335.929" y2="227.002" gradientUnits="userSpaceOnUse"><stop stop-color="#3A4151"/><stop offset="1" stop-color="#272735"/></linearGradient><linearGradient id="e" x1="342.4" y1="10.049" x2="342.4" y2="136.408" gradientUnits="userSpaceOnUse"><stop stop-color="#7A70D9"/><stop offset="1" stop-color="#4D4690"/></linearGradient><linearGradient id="f" x1="252.303" y1="53.769" x2="252.303" y2="72.673" gradientUnits="userSpaceOnUse"><stop stop-color="#B2E2BC"/><stop offset="1" stop-color="#4C9058"/></linearGradient><linearGradient id="g" x1="239.631" y1="48.05" x2="266.52" y2="48.05" gradientUnits="userSpaceOnUse"><stop stop-color="#3A4151"/><stop offset="1" stop-color="#272735"/></linearGradient><linearGradient id="h" x1="252.298" y1="36.937" x2="252.298" y2="60.34" gradientUnits="userSpaceOnUse"><stop stop-color="#7A70D9"/><stop offset="1" stop-color="#4D4690"/></linearGradient><linearGradient id="i" x1="205.331" y1="346.699" x2="282.405" y2="344.498" gradientUnits="userSpaceOnUse"><stop stop-color="#5C5F69"/><stop offset="1" stop-color="#888C94"/></linearGradient><linearGradient id="j" x1="205.331" y1="346.229" x2="282.405" y2="344.026" gradientUnits="userSpaceOnUse"><stop stop-color="#DADCDE"/><stop offset="1" stop-color="#A4A8AF"/></linearGradient><linearGradient id="k" x1="256.638" y1="252.305" x2="165.225" y2="417.604" gradientUnits="userSpaceOnUse"><stop stop-color="#EEEFF0"/><stop offset="1" stop-color="#F5F6F7"/></linearGradient><linearGradient id="l" x1="209.385" y1="364.687" x2="209.385" y2="437.533" gradientUnits="userSpaceOnUse"><stop stop-color="#EEEFF0"/><stop offset="1" stop-color="#fff"/></linearGradient><linearGradient id="m" x1="346.562" y1="214.814" x2="346.562" y2="239.976" gradientUnits="userSpaceOnUse"><stop stop-color="#B2E2BC"/><stop offset="1" stop-color="#4C9058"/></linearGradient><linearGradient id="n" x1="394.169" y1="248.969" x2="371.186" y2="248.649" gradientUnits="userSpaceOnUse"><stop stop-color="#C6C9D4"/><stop offset="1" stop-color="#F4F5F7"/></linearGradient><linearGradient id="o" x1="378.8" y1="280.136" x2="378.8" y2="238.83" gradientUnits="userSpaceOnUse"><stop stop-color="#B2E2BC"/><stop offset="1" stop-color="#4C9058"/></linearGradient><linearGradient id="p" x1="391.969" y1="226.413" x2="391.969" y2="276.63" gradientUnits="userSpaceOnUse"><stop stop-color="#B2E2BC"/><stop offset="1" stop-color="#4C9058"/></linearGradient><linearGradient id="q" x1="376.858" y1="273.107" x2="364.458" y2="273.107" gradientUnits="userSpaceOnUse"><stop stop-color="#B26F67"/><stop offset="1" stop-color="#E7B8B6"/></linearGradient><linearGradient id="r" x1="389.532" y1="209.719" x2="369.345" y2="209.719" gradientUnits="userSpaceOnUse"><stop stop-color="#B26F67"/><stop offset="1" stop-color="#E7B8B6"/></linearGradient><linearGradient id="s" x1="324.372" y1="211.662" x2="311.117" y2="211.662" gradientUnits="userSpaceOnUse"><stop stop-color="#B26F67"/><stop offset="1" stop-color="#E7B8B6"/></linearGradient><linearGradient id="t" x1="183.687" y1="246.949" x2="193.679" y2="246.949" gradientUnits="userSpaceOnUse"><stop stop-color="#B26F67"/><stop offset="1" stop-color="#E7B8B6"/></linearGradient><linearGradient id="u" x1="168.189" y1="309.247" x2="125.379" y2="309.247" gradientUnits="userSpaceOnUse"><stop stop-color="#C6C9D4"/><stop offset="1" stop-color="#F4F5F7"/></linearGradient><linearGradient id="v" x1="150.99" y1="307.626" x2="141.118" y2="307.626" gradientUnits="userSpaceOnUse"><stop stop-color="#C6C9D4"/><stop offset="1" stop-color="#F4F5F7"/></linearGradient><linearGradient id="w" x1="148.537" y1="300.805" x2="143.571" y2="300.805" gradientUnits="userSpaceOnUse"><stop stop-color="#C6C9D4"/><stop offset="1" stop-color="#F4F5F7"/></linearGradient><linearGradient id="x" x1="150.99" y1="291.563" x2="141.118" y2="291.563" gradientUnits="userSpaceOnUse"><stop stop-color="#C6C9D4"/><stop offset="1" stop-color="#F4F5F7"/></linearGradient><linearGradient id="y" x1="108.082" y1="248.273" x2="159.795" y2="248.273" gradientUnits="userSpaceOnUse"><stop stop-color="#878AA0"/><stop offset=".99" stop-color="#B7BCBC"/></linearGradient><linearGradient id="z" x1="115.687" y1="245.111" x2="194.856" y2="245.111" gradientUnits="userSpaceOnUse"><stop stop-color="#72758D"/><stop offset=".99" stop-color="#383B5B"/></linearGradient><linearGradient id="A" x1="176.466" y1="201.483" x2="176.466" y2="248.308" gradientUnits="userSpaceOnUse"><stop stop-color="#7A70D9"/><stop offset="1" stop-color="#4D4690"/></linearGradient><linearGradient id="B" x1="151.47" y1="200.982" x2="151.47" y2="259.671" gradientUnits="userSpaceOnUse"><stop stop-color="#7A70D9"/><stop offset="1" stop-color="#4D4690"/></linearGradient><linearGradient id="C" x1="146.253" y1="198.026" x2="166.267" y2="198.026" gradientUnits="userSpaceOnUse"><stop stop-color="#B26F67"/><stop offset="1" stop-color="#E7B8B6"/></linearGradient><linearGradient id="D" x1="265.144" y1="361.893" x2="335.728" y2="361.893" gradientUnits="userSpaceOnUse"><stop stop-color="#B7B2B2"/><stop offset="1" stop-color="#D1CECF"/></linearGradient><linearGradient id="E" x1="143.419" y1="347.505" x2="265.144" y2="347.505" gradientUnits="userSpaceOnUse"><stop stop-color="#C6C9D4"/><stop offset="1" stop-color="#F4F5F7"/></linearGradient><linearGradient id="F" x1="319.751" y1="322.484" x2="175.333" y2="270.935" gradientUnits="userSpaceOnUse"><stop stop-color="#C6C9D4"/><stop offset="1" stop-color="#F4F5F7"/></linearGradient><linearGradient id="G" x1="143.503" y1="289.867" x2="335.728" y2="289.867" gradientUnits="userSpaceOnUse"><stop stop-color="#C6C9D4"/><stop offset="1" stop-color="#F4F5F7"/></linearGradient><linearGradient id="H" x1="253.257" y1="292.738" x2="253.257" y2="302.314" gradientUnits="userSpaceOnUse"><stop stop-color="#B2E2BC"/><stop offset="1" stop-color="#4C9058"/></linearGradient><linearGradient id="I" x1="160.529" y1="266.455" x2="171.915" y2="266.455" gradientUnits="userSpaceOnUse"><stop stop-color="#B26F67"/><stop offset="1" stop-color="#E7B8B6"/></linearGradient><linearGradient id="J" x1="148.157" y1="214.032" x2="148.157" y2="268.609" gradientUnits="userSpaceOnUse"><stop stop-color="#7A70D9"/><stop offset="1" stop-color="#4D4690"/></linearGradient><linearGradient id="b" x1="258.972" y1="31.706" x2="258.972" y2="492.742" gradientUnits="userSpaceOnUse"><stop stop-color="#B2E2BC"/><stop offset="1" stop-color="#4C9058"/></linearGradient><linearGradient id="L" x1="176.492" y1="402.685" x2="215.921" y2="402.685" gradientUnits="userSpaceOnUse"><stop stop-color="#DADCDE"/><stop offset="1" stop-color="#A4A8AF"/></linearGradient><linearGradient id="M" x1="190.591" y1="399.21" x2="199.526" y2="399.21" gradientUnits="userSpaceOnUse"><stop stop-color="#DADCDE"/><stop offset="1" stop-color="#A4A8AF"/></linearGradient><linearGradient id="N" x1="190.59" y1="396.243" x2="199.526" y2="396.243" gradientUnits="userSpaceOnUse"><stop stop-color="#454C5B"/><stop offset="1" stop-color="#7D838C"/></linearGradient><linearGradient id="O" x1="191.936" y1="391.898" x2="198.181" y2="391.898" gradientUnits="userSpaceOnUse"><stop stop-color="#DADCDE"/><stop offset="1" stop-color="#A4A8AF"/></linearGradient><linearGradient id="P" x1="191.936" y1="385.893" x2="198.181" y2="385.893" gradientUnits="userSpaceOnUse"><stop stop-color="#DADCDE"/><stop offset="1" stop-color="#A4A8AF"/></linearGradient><linearGradient id="Q" x1="190.591" y1="382.217" x2="199.526" y2="382.217" gradientUnits="userSpaceOnUse"><stop stop-color="#DADCDE"/><stop offset="1" stop-color="#A4A8AF"/></linearGradient><linearGradient id="R" x1="190.591" y1="373.623" x2="199.526" y2="373.623" gradientUnits="userSpaceOnUse"><stop stop-color="#DADCDE"/><stop offset="1" stop-color="#A4A8AF"/></linearGradient><linearGradient id="S" x1="217.559" y1="381.072" x2="231.667" y2="381.072" gradientUnits="userSpaceOnUse"><stop stop-color="#3A4151"/><stop offset="1" stop-color="#272735"/></linearGradient><linearGradient id="T" x1="234.297" y1="387.638" x2="261.013" y2="387.638" gradientUnits="userSpaceOnUse"><stop stop-color="#3A4151"/><stop offset="1" stop-color="#272735"/></linearGradient><linearGradient id="U" x1="202.874" y1="358.483" x2="229.91" y2="358.483" gradientUnits="userSpaceOnUse"><stop stop-color="#3A4151"/><stop offset="1" stop-color="#272735"/></linearGradient><linearGradient id="V" x1="194.305" y1="360.903" x2="230.863" y2="360.903" gradientUnits="userSpaceOnUse"><stop stop-color="#454C5B"/><stop offset="1" stop-color="#7D838C"/></linearGradient><linearGradient id="W" x1="182.858" y1="285.777" x2="200.746" y2="285.777" gradientUnits="userSpaceOnUse"><stop stop-color="#B26F67"/><stop offset="1" stop-color="#E7B8B6"/></linearGradient><linearGradient id="X" x1="177.279" y1="363.962" x2="247.613" y2="363.962" gradientUnits="userSpaceOnUse"><stop stop-color="#3A4151"/><stop offset="1" stop-color="#272735"/></linearGradient><linearGradient id="Y" x1="188.798" y1="290.902" x2="188.798" y2="361.36" gradientUnits="userSpaceOnUse"><stop stop-color="#B2E2BC"/><stop offset="1" stop-color="#4C9058"/></linearGradient><linearGradient id="Z" x1="170.198" y1="369.863" x2="188.38" y2="321.55" gradientUnits="userSpaceOnUse"><stop stop-color="#454C5B"/><stop offset="1" stop-color="#7D838C"/></linearGradient><linearGradient id="aa" x1="156.314" y1="347.446" x2="231.459" y2="347.446" gradientUnits="userSpaceOnUse"><stop stop-color="#DADCDE"/><stop offset="1" stop-color="#A4A8AF"/></linearGradient><linearGradient id="ab" x1="237.311" y1="306.428" x2="245.989" y2="308.638" gradientUnits="userSpaceOnUse"><stop stop-color="#B26F67"/><stop offset="1" stop-color="#E7B8B6"/></linearGradient><linearGradient id="ac" x1="219.054" y1="306.22" x2="219.054" y2="329.846" gradientUnits="userSpaceOnUse"><stop stop-color="#B2E2BC"/><stop offset="1" stop-color="#4C9058"/></linearGradient><linearGradient id="ad" x1="105.791" y1="105.017" x2="171.182" y2="105.017" gradientUnits="userSpaceOnUse"><stop stop-color="#3A4151"/><stop offset="1" stop-color="#272735"/></linearGradient><linearGradient id="ae" x1="143.748" y1="62.64" x2="143.748" y2="168.375" gradientUnits="userSpaceOnUse"><stop stop-color="#7A70D9"/><stop offset="1" stop-color="#4D4690"/></linearGradient><linearGradient id="af" x1="120.648" y1="167.513" x2="120.648" y2="147.727" gradientUnits="userSpaceOnUse"><stop stop-color="#3A4151"/><stop offset="1" stop-color="#272735"/></linearGradient><linearGradient id="ag" x1="343.979" y1="102.179" x2="343.979" y2="166.721" gradientUnits="userSpaceOnUse"><stop stop-color="#B2E2BC"/><stop offset="1" stop-color="#4C9058"/></linearGradient><linearGradient id="ah" x1="402.44" y1="9.673" x2="402.44" y2="65.834" gradientUnits="userSpaceOnUse"><stop stop-color="#AEEAA7"/><stop offset="1" stop-color="#4A8F57"/></linearGradient><linearGradient id="ai" x1="454.426" y1="80.003" x2="454.426" y2="146.54" gradientUnits="userSpaceOnUse"><stop stop-color="#AEEAA7"/><stop offset="1" stop-color="#4A8F57"/></linearGradient><linearGradient id="aj" x1="441.943" y1="407.235" x2="418.086" y2="243.748" gradientUnits="userSpaceOnUse"><stop stop-color="#3A4151"/><stop offset="1" stop-color="#272735"/></linearGradient><linearGradient id="ak" x1="457.026" y1="327.471" x2="457.026" y2="433.588" gradientUnits="userSpaceOnUse"><stop stop-color="#7A70D9"/><stop offset="1" stop-color="#4D4690"/></linearGradient><linearGradient id="al" x1="446.911" y1="315.056" x2="446.911" y2="338.115" gradientUnits="userSpaceOnUse"><stop stop-color="#7A70D9"/><stop offset="1" stop-color="#4D4690"/></linearGradient><linearGradient id="am" x1="408.973" y1="391.98" x2="382.814" y2="212.715" gradientUnits="userSpaceOnUse"><stop stop-color="#3A4151"/><stop offset="1" stop-color="#272735"/></linearGradient><linearGradient id="an" x1="430.189" y1="365.457" x2="430.189" y2="449.109" gradientUnits="userSpaceOnUse"><stop stop-color="#7A70D9"/><stop offset="1" stop-color="#4D4690"/></linearGradient><linearGradient id="ao" x1="420.072" y1="353.043" x2="420.072" y2="376.102" gradientUnits="userSpaceOnUse"><stop stop-color="#7A70D9"/><stop offset="1" stop-color="#4D4690"/></linearGradient><linearGradient id="ap" x1="388.845" y1="465.588" x2="376.964" y2="384.185" gradientUnits="userSpaceOnUse"><stop stop-color="#3A4151"/><stop offset="1" stop-color="#272735"/></linearGradient><linearGradient id="aq" x1="402.808" y1="397.11" x2="402.808" y2="465.308" gradientUnits="userSpaceOnUse"><stop stop-color="#7A70D9"/><stop offset="1" stop-color="#4D4690"/></linearGradient><linearGradient id="ar" x1="392.692" y1="384.693" x2="392.692" y2="407.752" gradientUnits="userSpaceOnUse"><stop stop-color="#7A70D9"/><stop offset="1" stop-color="#4D4690"/></linearGradient><linearGradient id="as" x1="361.227" y1="488.775" x2="355.311" y2="448.224" gradientUnits="userSpaceOnUse"><stop stop-color="#3A4151"/><stop offset="1" stop-color="#272735"/></linearGradient><linearGradient id="at" x1="376.079" y1="439.308" x2="376.079" y2="481.644" gradientUnits="userSpaceOnUse"><stop stop-color="#7A70D9"/><stop offset="1" stop-color="#4D4690"/></linearGradient><linearGradient id="au" x1="365.963" y1="426.891" x2="365.963" y2="449.95" gradientUnits="userSpaceOnUse"><stop stop-color="#7A70D9"/><stop offset="1" stop-color="#4D4690"/></linearGradient></defs></svg>