<svg xmlns="http://www.w3.org/2000/svg" viewBox="0 0 725.26 592.55"><defs><style>.cls-1{fill:none;stroke:#000;stroke-miterlimit:10;}.cls-2{fill:#52b122;}.cls-3{fill:#e6e6e6;}</style></defs><g id="Layer_1" data-name="Layer 1"><path class="cls-1" d="M6731,7303.64" transform="translate(-6821.13 -6900.81)"/><path class="cls-2" d="M7000.22,6819.35" transform="translate(-6821.13 -6900.81)"/><path class="cls-3" d="M7075.5,6909.07" transform="translate(-6821.13 -6900.81)"/><path class="cls-3" d="M7061,7161.52q-.26,70.41-.52,140.82l-21.29,17q-.25-74.39-.52-148.77c.48-1.06,3.84-8.21,11.43-10.22A15.89,15.89,0,0,1,7061,7161.52Z" transform="translate(-6821.13 -6900.81)"/><path class="cls-3" d="M7033,7188.45q-.26,67.43-.52,134.86l-21.29,16.31q-.25-71.23-.52-142.47c.48-1,3.83-7.87,11.42-9.79A16.57,16.57,0,0,1,7033,7188.45Z" transform="translate(-6821.13 -6900.81)"/><path class="cls-3" d="M7005.48,7214.34q-.27,64-.52,128l-21.3,15.48-.51-135.21c.47-1,3.83-7.46,11.42-9.29A17.36,17.36,0,0,1,7005.48,7214.34Z" transform="translate(-6821.13 -6900.81)"/><path class="cls-3" d="M7174.47,7297c-16,9.84-33.38,19-49.56,27.55A542.23,542.23,0,0,1,6976.4,7377l40.51-23.89a367.71,367.71,0,0,0,83.6-59.2c27-25.5,49.63-46.95,49-71q0-1.62-.21-3.24c-1.57-14.09-10.5-22.78-47.79-51.93-79.94-62.51-108.6-77-116.32-109.58-2.42-10.24-3.77-26.45,4.68-48.81a43.81,43.81,0,0,0,0,6.23c2.13,30.38,35.1,50.77,63.87,68,87.46,52.49,94.52,55.48,113.21,69.07,44.16,32.1,67.08,48.78,68,72.71C7236.09,7252.55,7208.17,7276.25,7174.47,7297Z" transform="translate(-6821.13 -6900.81)"/><path class="cls-3" d="M7364.2,7228.34c3.32,11.47,5.18,29.22-4.17,54.19A234.72,234.72,0,0,0,7323.3,7230c-35.57-38.27-64.45-42.78-117.37-78.94-54.11-37-81.76-55.88-82.86-82.91-1.18-28.92,28.4-55.18,60.52-75.53,19.84-12.59,40.66-22.92,55.8-30.22a454.22,454.22,0,0,1,102.92-35.09s3.48-4.18-22.31-26.49l71.11,12.55-35.56,54.39a157.8,157.8,0,0,0-3.48-30.69,854,854,0,0,0-97.36,65.13c-32.08,24.86-47.42,40.51-46.77,59.54.33,9.53,4.31,17.44,9.93,25.92,1.66,2.52,3.48,5.08,5.38,7.76,16.52,23.17,35.53,35.4,47.07,43.18C7321.17,7172.84,7354.67,7195.42,7364.2,7228.34Z" transform="translate(-6821.13 -6900.81)"/><path class="cls-3" d="M7391.11,6913.36l-35.56,54.39a157.8,157.8,0,0,0-3.48-30.69,854,854,0,0,0-97.36,65.13c-32.08,24.86-47.42,40.51-46.77,59.54.33,9.53,4.31,17.44,9.93,25.92-.68-.35-1.34-.73-2-1.12-36.37-21.75-32.88-85.12-32.32-93.46,0-.15,0-.31,0-.46,19.84-12.59,40.66-22.92,55.8-30.22a454.22,454.22,0,0,1,102.92-35.09s3.48-4.18-22.31-26.49Z" transform="translate(-6821.13 -6900.81)"/><path class="cls-3" d="M7174.81,7294.39c-.09.86-.21,1.71-.34,2.56-16,9.84-33.38,19-49.56,27.55A542.23,542.23,0,0,1,6976.4,7377l40.51-23.89a367.71,367.71,0,0,0,83.6-59.2c27-25.5,49.63-46.95,49-71C7154.38,7228.11,7179.24,7256.33,7174.81,7294.39Z" transform="translate(-6821.13 -6900.81)"/></g><g id="Layer_2" data-name="Layer 2"><rect class="cls-3" x="708.44" y="484.91" width="16.82" height="69.3"/><rect class="cls-3" x="343.79" y="484.24" width="16.82" height="69.3"/><rect class="cls-3" x="59.2" y="484.91" width="16.82" height="69.3"/><path class="cls-3" d="M7524.85,7425.42l-20.18,4.71-2-6.06,20.85-7.4s-3.13-8.32-11.12-11c-3.08-1-6-.58-11.76.25-6.78,1-10.55,1.55-13.45,4.72a14.56,14.56,0,0,0-3.37,8.24,18.79,18.79,0,0,0,2.69,11.94H7469l.67-18.16h-17.49v18.16H7434.7c-5.4-13.64-14-23.1-22.2-24.22a19,19,0,0,0-8.07.67c-4.58,1.61-7.11,4.94-9.43,8.08a38.5,38.5,0,0,0-6.72,15.47l-11.44-.67V7386.4h-17.49q.33,28.26.67,56.51c2.31,5.05,5.2,7.47,7.4,8.75,3.68,2.12,7.38,2.16,20.18,2l8.08-5.39,6,6.06,22.88.68c.45-2.93.9-5.84,1.34-8.75q3.38,3.69,6.74,7.4l20.85.67a13.46,13.46,0,0,0,4.7-3.36c1.32-1.49,1.83-2.78,2.7-2.7s1.07,1.62,2.69,3.37a10,10,0,0,0,2.69,2,137.84,137.84,0,0,0,34.31-.68,136.35,136.35,0,0,0,24.89-6.05Zm-109.77,5.05-5.47.16-5.48.15a.14.14,0,0,1-.13-.2l2.61-4.82,1.06-2a2,2,0,0,1,3.49-.1l1.17,1.9,2.87,4.67A.14.14,0,0,1,7415.08,7430.47Z" transform="translate(-6821.13 -6900.81)"/><path class="cls-3" d="M6845.35,7392.45l-11.44,16.15,18.84,16.15v5.38h-15.48v-6.73h-16.14v16.82a20.8,20.8,0,0,0,4.71,9.42,20.52,20.52,0,0,0,6.05,4.71l28.26-.67a26.25,26.25,0,0,0,8.07-9.42c3.05-6.15,2.69-12.11,1.35-29.6h0Z" transform="translate(-6821.13 -6900.81)"/><path class="cls-3" d="M7330.42,7391.11,7319,7407.26l18.84,16.14v5.38h-15.47v-6.72H7306.2v16.82a21,21,0,0,0,4.71,9.42,20.58,20.58,0,0,0,6.05,4.7l28.26-.67a26.4,26.4,0,0,0,8.08-9.42c3.05-6.15,2.68-12.11,1.34-29.6h0Z" transform="translate(-6821.13 -6900.81)"/><path class="cls-3" d="M7275.25,7407.93l1.35,22.87-19.51.68V7412l-18.17.68V7453l-15.47,15.48,14.8,14.13a61.35,61.35,0,0,0,18.84-28.26h25.56a26.74,26.74,0,0,0,11.44-10.76v-35.66h-18.84Z" transform="translate(-6821.13 -6900.81)"/><path class="cls-3" d="M7210,7393.13l-11.43,15.47,17.49,16.82,2,2-1.35,2.69h-14.8l-.67-6.06h-15.48v18.17s2.69,10.09,11.44,11.44,27.58.67,27.58.67,8.75-5.38,9.42-11.44.68-26.91.68-26.91Z" transform="translate(-6821.13 -6900.81)"/><path class="cls-3" d="M7120.51,7412v18.84h-6.72l-.68-17.49H7097v16.82h-6.06v-15.47h-17.49l-.67,40.36h-18.84l-.67-31h-16.15q.33,18.18.67,36.34a18.56,18.56,0,0,0,4.71,10.76c3.3,3.5,7.2,4.51,10.77,5.38l26.23-.67h0a15.43,15.43,0,0,0,8.75-6.06,15.7,15.7,0,0,0,2-4.71c.83-3,.67-10.76.67-10.76h10.77q2.68-3,5.38-6.05l3.36,3.36,3.37,3.36,13.45-.67a15.5,15.5,0,0,0,6.06-3.36,15.86,15.86,0,0,0,4.71-8.08v-29.6h0V7412Z" transform="translate(-6821.13 -6900.81)"/><path class="cls-3" d="M7009.51,7409.27l.67,20.86h-8.08v-17.49h-15.47v17.49h-7.4v-17.49h-15.47a65.73,65.73,0,0,1-.68,11.43,64.06,64.06,0,0,1-1.34,6.73H6953q-6-15.81-12.11-31.62l-16.82,5.38,8.08,23.55v2.69h-14.81v-6.73h-16.14q.33,9.42.67,18.84c3.9,8.21,9,10.22,10.77,10.77,1.52.48,4.15.54,9.41.67,7.27.18,9.31-.42,10.1-.67a18.35,18.35,0,0,0,7.4-4.71l8.07,5.38h16.82l5.38-4.71,5.38,4.71h13.46l6.05-4.71,6.73,4.71h14.13a17.25,17.25,0,0,0,7.4-5.38,17.6,17.6,0,0,0,3.36-8.08c.49-2.6,0-30.94,0-30.94h0Z" transform="translate(-6821.13 -6900.81)"/><path class="cls-3" d="M7142.72,7412v41l-16.15,15.48,14.13,14.13a39.19,39.19,0,0,0,14.13-14.13,38.59,38.59,0,0,0,4.7-13.46q.35-21.53.68-43.06Z" transform="translate(-6821.13 -6900.81)"/><path class="cls-3" d="M7120.51,7411.29" transform="translate(-6821.13 -6900.81)"/><path class="cls-3" d="M6961.07,7428.78" transform="translate(-6821.13 -6900.81)"/><path class="cls-3" d="M7108.32,7393.5l-3-.75a.42.42,0,0,1-.17-.73l2.4-2a.42.42,0,0,0-.38-.72l-3,.75a.42.42,0,0,1-.49-.57l1-2.49h0l.17-.39a.4.4,0,0,0-.15-.49.39.39,0,0,0-.53,0l-2.34,2.08a.41.41,0,0,1-.68-.28l-.12-1.15-.06-.71-.13-1.26a.42.42,0,0,0-.81-.1l-1.11,2.92a.41.41,0,0,1-.74.08l-1.71-2.62a.42.42,0,0,0-.77.28l.38,3.12a.42.42,0,0,1-.63.41l-2.73-1.51a.41.41,0,0,0-.55.59l1.79,2.58a.42.42,0,0,1-.36.66l-3.13-.08a.42.42,0,0,0-.2.79l2.78,1.45a.42.42,0,0,1,0,.75l-2.81,1.39a.42.42,0,0,0,.19.8h3.13a.43.43,0,0,1,.35.67l-1.85,2.53a.42.42,0,0,0,.53.62l2.78-1.46a.42.42,0,0,1,.61.43l-.45,3.1a.41.41,0,0,0,.75.29l1.78-2.57a.42.42,0,0,1,.74.1l1,2.94a.42.42,0,0,0,.82-.09l.37-3.1a.42.42,0,0,1,.7-.26l2.29,2.14a.42.42,0,0,0,.68-.46l-1.12-2.93a.42.42,0,0,1,.51-.55l3,.82a.42.42,0,0,0,.4-.72l-2.35-2.07a.42.42,0,0,1,.19-.73l3.05-.67A.41.41,0,0,0,7108.32,7393.5Zm-6,.93a3.22,3.22,0,1,1-2.8-3.5A3.18,3.18,0,0,1,7102.28,7394.43Z" transform="translate(-6821.13 -6900.81)"/><path class="cls-3" d="M7124.38,7391.7l-3.11-.36a.42.42,0,0,1-.26-.71l2.12-2.3a.42.42,0,0,0-.46-.67l-2.91,1.12a.42.42,0,0,1-.56-.5l.82-3a.42.42,0,0,0-.72-.39l-2.07,2.35a.41.41,0,0,1-.72-.18l-.69-3.06a.42.42,0,0,0-.82,0l-.73,3.05a.42.42,0,0,1-.73.17l-.24-.28-1.79-2.11a.42.42,0,0,0-.72.37l0,.14.72,2.9a.42.42,0,0,1-.57.49l-1.22-.49-1.28-.53-.4-.16a.43.43,0,0,0-.47.68l2.09,2.33a.41.41,0,0,1-.28.69l-3.12.32a.42.42,0,0,0-.1.81l2.94,1.09a.43.43,0,0,1,.08.75l-2.61,1.71a.43.43,0,0,0,.28.78l3.1-.39a.42.42,0,0,1,.42.62l-1.52,2.74a.42.42,0,0,0,.61.54l2.58-1.79a.42.42,0,0,1,.65.36l-.07,3.13a.42.42,0,0,0,.8.2l1.44-2.78a.41.41,0,0,1,.74,0l1.4,2.8a.42.42,0,0,0,.79-.19v-3.12a.42.42,0,0,1,.67-.34l2.54,1.83a.42.42,0,0,0,.61-.54l-1.47-2.76a.42.42,0,0,1,.43-.61l3.11.44a.42.42,0,0,0,.29-.76l-2.58-1.77a.42.42,0,0,1,.09-.75l3-1A.42.42,0,0,0,7124.38,7391.7Zm-9.1,4.79a3.12,3.12,0,1,1,3.22-3.12A3.15,3.15,0,0,1,7115.28,7396.49Z" transform="translate(-6821.13 -6900.81)"/><path class="cls-3" d="M7116.3,7378.24l-3.11-.36a.42.42,0,0,1-.26-.7l2.14-2.3a.42.42,0,0,0-.46-.67l-2.93,1.12a.42.42,0,0,1-.55-.51l.81-3a.42.42,0,0,0-.72-.38l-2.07,2.35a.42.42,0,0,1-.72-.18l-.69-3.06a.41.41,0,0,0-.81,0l-.74,3a.42.42,0,0,1-.73.17l-2-2.38a.42.42,0,0,0-.73.37l.76,3a.43.43,0,0,1-.57.49l-2.9-1.18a.42.42,0,0,0-.47.68l2.09,2.32a.43.43,0,0,1-.27.7l-3.12.3a.43.43,0,0,0-.11.83l2.93,1.09a.41.41,0,0,1,.08.74l-2.61,1.72a.42.42,0,0,0,.28.77l3.11-.39a.42.42,0,0,1,.41.62l-1.42,2.59-.08.15a.41.41,0,0,0,.14.56.39.39,0,0,0,.46,0L7104,7385a.42.42,0,0,1,.66.36l0,.77,0,.88h0l0,1.46a.43.43,0,0,0,.8.21l1.44-2.78a.43.43,0,0,1,.76,0l.9,1.81.49,1a.42.42,0,0,0,.79-.19v-3.13a.42.42,0,0,1,.66-.35l.42.31,2.12,1.54a.38.38,0,0,0,.35.06.41.41,0,0,0,.27-.6l-1.47-2.77a.43.43,0,0,1,.44-.62l3.09.45a.42.42,0,0,0,.3-.76l-2.58-1.77a.42.42,0,0,1,.1-.74l2.94-1.05A.42.42,0,0,0,7116.3,7378.24Zm-9.1,4.8a3.13,3.13,0,1,1,3.22-3.13A3.17,3.17,0,0,1,7107.2,7383Z" transform="translate(-6821.13 -6900.81)"/><path class="cls-3" d="M7286.51,7470.17a.43.43,0,0,1,0-.76l2.8-1.39a.42.42,0,0,0-.19-.8l-3.13,0a.41.41,0,0,1-.33-.66l1.82-2.54a.42.42,0,0,0-.53-.62l-2.77,1.47a.43.43,0,0,1-.62-.42l.45-3.11a.42.42,0,0,0-.76-.29l-1.77,2.59a.42.42,0,0,1-.74-.11l-1.05-2.94a.42.42,0,0,0-.81.09l-.36,3.1a.43.43,0,0,1-.71.27l-2.29-2.12a.42.42,0,0,0-.68.45l1.13,2.92a.42.42,0,0,1-.51.56l-3-.82a.42.42,0,0,0-.38.72l2.35,2.07a.42.42,0,0,1-.18.72l-3.06.69a.42.42,0,0,0,0,.82l3,.73a.42.42,0,0,1,.18.73l-2.38,2a.42.42,0,0,0,.37.73l3-.77a.42.42,0,0,1,.49.56l-1,2.5h0l-.17.4a.4.4,0,0,0,.15.49.41.41,0,0,0,.53,0l2.32-2.09a.42.42,0,0,1,.7.27l.11,1.14v0l.08.69.13,1.26a.42.42,0,0,0,.81.1l1.09-2.92a.42.42,0,0,1,.75-.09l1.72,2.62a.42.42,0,0,0,.77-.29l-.4-3.11a.42.42,0,0,1,.62-.41l2.75,1.5a.41.41,0,0,0,.54-.6l-1.79-2.57a.42.42,0,0,1,.35-.66l3.14.07a.42.42,0,0,0,.2-.79Zm-2.92-.28a3.21,3.21,0,1,1-2.83-3.48A3.18,3.18,0,0,1,7283.59,7469.89Z" transform="translate(-6821.13 -6900.81)"/><path class="cls-3" d="M7273.28,7471.21l-2.93-1.09a.41.41,0,0,1-.08-.74l2.61-1.72a.42.42,0,0,0-.3-.76l-3.1.39a.42.42,0,0,1-.42-.62l1.51-2.74a.42.42,0,0,0-.61-.54l-2.56,1.78a.42.42,0,0,1-.67-.34l.06-3.13a.42.42,0,0,0-.79-.2l-1.44,2.79a.41.41,0,0,1-.74,0l-1.4-2.8a.42.42,0,0,0-.79.19l0,3.14a.42.42,0,0,1-.66.34l-2.56-1.82a.41.41,0,0,0-.6.54l1.47,2.75a.42.42,0,0,1-.43.62l-3.1-.44a.43.43,0,0,0-.3.77l2.59,1.75a.42.42,0,0,1-.09.75l-2.95,1a.42.42,0,0,0,.09.81l3.12.36a.42.42,0,0,1,.26.7l-2.13,2.31a.42.42,0,0,0,.46.67l2.93-1.13a.41.41,0,0,1,.55.5l-.8,3a.42.42,0,0,0,.72.38l2.06-2.36a.41.41,0,0,1,.72.18l.7,3.06a.42.42,0,0,0,.82,0l.72-3.05a.42.42,0,0,1,.73-.17l.24.28,1.8,2.11a.42.42,0,0,0,.72-.39l0-.12-.73-2.9a.42.42,0,0,1,.56-.5l1.22.49,1.29.51.4.16a.42.42,0,0,0,.47-.66l-2.11-2.33a.43.43,0,0,1,.27-.7l3.12-.33A.42.42,0,0,0,7273.28,7471.21Zm-9.07,2.14a3.12,3.12,0,1,1,3.21-3.14A3.18,3.18,0,0,1,7264.21,7473.35Z" transform="translate(-6821.13 -6900.81)"/><path class="cls-3" d="M7281.4,7484.65l-2.93-1.1a.42.42,0,0,1-.08-.74l2.61-1.73a.42.42,0,0,0-.29-.77l-3.11.41a.42.42,0,0,1-.42-.62l1.43-2.6.08-.14a.39.39,0,0,0-.16-.55v0a.41.41,0,0,0-.45,0l-2.56,1.8a.42.42,0,0,1-.66-.35v-.77l0-.89h0l0-1.46a.41.41,0,0,0-.78-.2l-1.44,2.78a.42.42,0,0,1-.75,0l-.91-1.83-.49-1a.43.43,0,0,0-.8.2v.27l0,2.85a.42.42,0,0,1-.66.35l-.41-.29-2.14-1.53a.36.36,0,0,0-.34-.07.41.41,0,0,0-.26.6l1.47,2.76a.42.42,0,0,1-.43.61l-3.1-.43a.42.42,0,0,0-.29.76l2.58,1.76a.43.43,0,0,1-.09.75l-2.94,1.05a.42.42,0,0,0,.09.81l3.11.35a.43.43,0,0,1,.26.71l-2.13,2.31a.42.42,0,0,0,.47.67l2.92-1.13a.41.41,0,0,1,.55.49l-.8,3a.42.42,0,0,0,.72.38l2.06-2.35a.41.41,0,0,1,.72.18l.7,3.06a.42.42,0,0,0,.81,0l.73-3.05a.42.42,0,0,1,.73-.17l2,2.37a.42.42,0,0,0,.73-.37l-.78-3a.43.43,0,0,1,.56-.5l2.92,1.17a.42.42,0,0,0,.46-.67l-2.09-2.33a.42.42,0,0,1,.27-.7l3.11-.31A.42.42,0,0,0,7281.4,7484.65Zm-9.06,2.13a3.13,3.13,0,1,1,3.19-3.14A3.18,3.18,0,0,1,7272.34,7486.78Z" transform="translate(-6821.13 -6900.81)"/><path class="cls-3" d="M7159.37,7392.37l-3.12-.36a.42.42,0,0,1-.26-.71l2.13-2.29a.42.42,0,0,0-.45-.68l-2.93,1.13a.43.43,0,0,1-.56-.51l.82-3a.42.42,0,0,0-.72-.39l-2.07,2.36a.42.42,0,0,1-.72-.18l-.69-3.06a.42.42,0,0,0-.82,0l-.73,3a.42.42,0,0,1-.73.17l-2-2.38a.41.41,0,0,0-.72.37l.75,3a.42.42,0,0,1-.56.5l-2.9-1.18a.42.42,0,0,0-.48.66l2.1,2.34a.43.43,0,0,1-.27.7l-3.12.3a.42.42,0,0,0-.11.82l2.93,1.1a.42.42,0,0,1,.08.74l-2.61,1.72a.41.41,0,0,0,.28.76l3.11-.38a.42.42,0,0,1,.41.62l-1.51,2.73a.42.42,0,0,0,.6.55l2.58-1.78a.42.42,0,0,1,.65.36l-.07,3.12a.43.43,0,0,0,.8.21l1.44-2.78a.42.42,0,0,1,.76,0l1.38,2.8a.42.42,0,0,0,.8-.19v-3.13a.42.42,0,0,1,.66-.35L7156,7401a.42.42,0,0,0,.62-.54l-1.47-2.77a.43.43,0,0,1,.43-.62l3.1.45a.42.42,0,0,0,.29-.76l-2.57-1.77a.41.41,0,0,1,.09-.74l3-1A.42.42,0,0,0,7159.37,7392.37Zm-9.11,4.79a3.12,3.12,0,1,1,3.22-3.12A3.15,3.15,0,0,1,7150.26,7397.16Z" transform="translate(-6821.13 -6900.81)"/><path class="cls-3" d="M7436.82,7391.84l-.16-.1h0l0,0h-.05l-3.12-.36a.43.43,0,0,1-.26-.71l2.14-2.3a.42.42,0,0,0-.46-.67l-2.93,1.12a.42.42,0,0,1-.55-.5l.81-3a.42.42,0,0,0-.72-.39l-2.07,2.35a.41.41,0,0,1-.72-.18L7428,7384a.42.42,0,0,0-.81,0l-.75,3.05a.41.41,0,0,1-.72.17l-2-2.39a.42.42,0,0,0-.73.37l.76,3a.42.42,0,0,1-.57.49l-2.9-1.18a.42.42,0,0,0-.46.68l2.08,2.33a.42.42,0,0,1-.27.69l-3.12.32a.42.42,0,0,0-.11.81l2.93,1.09a.42.42,0,0,1,.09.75l-2.62,1.71a.43.43,0,0,0,.28.78l3.11-.39a.42.42,0,0,1,.43.62l-1.52,2.74a.42.42,0,0,0,.61.54l2.56-1.79a.42.42,0,0,1,.66.36l-.06,3.13a.41.41,0,0,0,.78.2l1.44-2.78a.43.43,0,0,1,.76,0l1.39,2.8a.42.42,0,0,0,.79-.19v-3.12a.42.42,0,0,1,.67-.34l2.53,1.83a.42.42,0,0,0,.62-.54l-1.46-2.76a.41.41,0,0,1,.43-.61l3.09.44a.42.42,0,0,0,.3-.76l-2.28-1.57a.05.05,0,0,1,0,0l-.17-.12h0l-.08-.05a.43.43,0,0,1,.1-.75l3-1A.44.44,0,0,0,7436.82,7391.84Zm-9.36,4.65a3.12,3.12,0,1,1,3.2-3.12A3.17,3.17,0,0,1,7427.46,7396.49Z" transform="translate(-6821.13 -6900.81)"/><path class="cls-3" d="M7452.13,7394l-2.93-1.12a.42.42,0,0,1-.08-.74l2.62-1.71a.41.41,0,0,0-.28-.76l-3.1.37a.42.42,0,0,1-.42-.62l1.53-2.73a.43.43,0,0,0-.61-.56l-2.57,1.78a.41.41,0,0,1-.65-.36l.07-3.13a.41.41,0,0,0-.78-.2l-1.47,2.77a.41.41,0,0,1-.74,0l-1.38-2.81a.42.42,0,0,0-.8.19v3.12a.41.41,0,0,1-.66.34l-2.54-1.84a.41.41,0,0,0-.61.53l1.45,2.77a.42.42,0,0,1-.43.61l-3.1-.46a.42.42,0,0,0-.3.76l2.25,1.57,0,0h0l.16.1.11.08a.42.42,0,0,1-.1.74l-3,1a.42.42,0,0,0-.2.65h0l.17.12a.05.05,0,0,0,0,0h.06l3.11.38a.41.41,0,0,1,.25.7l-2.14,2.28a.43.43,0,0,0,.46.69l2.93-1.11a.41.41,0,0,1,.55.5l-.83,3a.42.42,0,0,0,.72.39l2.08-2.34a.41.41,0,0,1,.72.19l.67,3.06a.42.42,0,0,0,.81,0l.76-3a.42.42,0,0,1,.73-.17l2,2.39a.42.42,0,0,0,.73-.37l-.75-3a.43.43,0,0,1,.57-.49l2.89,1.19a.42.42,0,0,0,.48-.66l-2.07-2.35a.42.42,0,0,1,.27-.7l3.11-.29A.42.42,0,0,0,7452.13,7394Zm-8.38,2.46a3.12,3.12,0,1,1,2.39-3.79A3.16,3.16,0,0,1,7443.75,7396.41Z" transform="translate(-6821.13 -6900.81)"/></g></svg>