<svg xmlns="http://www.w3.org/2000/svg" viewBox="0 0 725.26 674.02"><defs><style>.cls-1{fill:none;stroke:#000;stroke-miterlimit:10;}.cls-2{fill:#52b122;}.cls-3{fill:#3b347f;}.cls-4{fill:#4eaf1d;}.cls-5{fill:#469319;}.cls-6{fill:#2a255b;}</style></defs><g id="Layer_1" data-name="Layer 1"><path class="cls-1" d="M6731,7303.64" transform="translate(-6836.26 -6819.35)"/><path class="cls-2" d="M7000.22,6819.35" transform="translate(-6836.26 -6819.35)"/><path class="cls-2" d="M7075.5,6909.07" transform="translate(-6836.26 -6819.35)"/><path class="cls-2" d="M7055.18,7124.65q-.3,82.47-.61,164.92l-24.93,20q-.3-87.12-.61-174.23c.56-1.24,4.49-9.62,13.38-12A18.73,18.73,0,0,1,7055.18,7124.65Z" transform="translate(-6836.26 -6819.35)"/><path class="cls-2" d="M7022.34,7156.2q-.3,79-.61,157.93l-24.93,19.11q-.3-83.43-.61-166.85c.56-1.2,4.49-9.22,13.38-11.47A19.38,19.38,0,0,1,7022.34,7156.2Z" transform="translate(-6836.26 -6819.35)"/><path class="cls-2" d="M6990.11,7186.51q-.3,74.94-.61,149.88l-24.93,18.13q-.32-79.17-.61-158.34c.56-1.13,4.49-8.74,13.38-10.88A20.41,20.41,0,0,1,6990.11,7186.51Z" transform="translate(-6836.26 -6819.35)"/><path class="cls-3" d="M7188,7283.26c-18.77,11.53-39.09,22.26-58,32.26A634.84,634.84,0,0,1,6956.05,7377l47.44-28a431.19,431.19,0,0,0,97.92-69.34c31.56-29.86,58.12-55,57.42-83.17,0-1.26-.12-2.53-.26-3.79-1.83-16.5-12.29-26.68-55.95-60.82-93.63-73.21-127.19-90.21-136.23-128.32-2.84-12-4.42-31,5.47-57.17a54.37,54.37,0,0,0,0,7.29c2.5,35.58,41.12,59.46,74.81,79.68,102.42,61.46,110.69,65,132.57,80.89,51.72,37.59,78.57,57.13,79.67,85.14C7260.18,7231.26,7227.49,7259,7188,7283.26Z" transform="translate(-6836.26 -6819.35)"/><path class="cls-4" d="M7410.21,7202.91c3.88,13.43,6.06,34.22-4.89,63.47a274.38,274.38,0,0,0-43-61.53c-41.66-44.82-75.48-50.11-137.45-92.46-63.37-43.31-95.74-65.43-97-97.09-1.38-33.86,33.26-64.61,70.87-88.46,23.25-14.74,47.62-26.83,65.35-35.38a530.68,530.68,0,0,1,120.54-41.09s4.07-4.9-26.14-31l83.29,14.69-41.65,63.69a184.93,184.93,0,0,0-4.07-35.93,997.75,997.75,0,0,0-114,76.27c-37.57,29.11-55.53,47.44-54.77,69.73.38,11.15,5,20.42,11.62,30.35,1.95,3,4.07,6,6.3,9.09,19.35,27.13,41.61,41.45,55.13,50.57C7359.82,7137.92,7399.05,7164.35,7410.21,7202.91Z" transform="translate(-6836.26 -6819.35)"/><path class="cls-5" d="M7441.73,6834l-41.65,63.69a184.93,184.93,0,0,0-4.07-35.93,997.75,997.75,0,0,0-114,76.27c-37.57,29.11-55.53,47.44-54.77,69.73.38,11.15,5,20.42,11.62,30.35-.79-.41-1.56-.86-2.34-1.31-42.59-25.48-38.51-99.69-37.84-109.45l0-.55c23.25-14.74,47.62-26.83,65.35-35.38a530.68,530.68,0,0,1,120.54-41.09s4.07-4.9-26.14-31Z" transform="translate(-6836.26 -6819.35)"/><path class="cls-6" d="M7188.42,7280.27c-.11,1-.25,2-.41,3-18.77,11.53-39.09,22.26-58,32.26A634.84,634.84,0,0,1,6956.05,7377l47.44-28a431.19,431.19,0,0,0,97.92-69.34c31.56-29.86,58.12-55,57.42-83.17C7164.49,7202.64,7193.6,7235.69,7188.42,7280.27Z" transform="translate(-6836.26 -6819.35)"/></g><g id="Layer_2" data-name="Layer 2"><rect class="cls-3" x="708.44" y="566.38" width="16.82" height="69.3"/><rect class="cls-3" x="343.79" y="565.71" width="16.82" height="69.3"/><rect class="cls-3" x="59.2" y="566.38" width="16.82" height="69.3"/><path class="cls-3" d="M7540,7425.42l-20.18,4.71-2-6.06,20.86-7.4s-3.13-8.32-11.13-11c-3.07-1-6-.58-11.75.25-6.79,1-10.55,1.55-13.46,4.72a14.46,14.46,0,0,0-3.36,8.24,18.73,18.73,0,0,0,2.69,11.94h-17.49l.67-18.16h-17.49v18.16h-17.49c-5.4-13.64-14-23.1-22.21-24.22a19,19,0,0,0-8.06.67c-4.58,1.61-7.11,4.94-9.43,8.08a38.67,38.67,0,0,0-6.73,15.47l-11.44-.67V7386.4h-17.49q.35,28.26.68,56.51c2.3,5.05,5.19,7.47,7.4,8.75,3.68,2.12,7.38,2.16,20.18,2l8.08-5.39,6.05,6.06,22.88.68c.45-2.93.9-5.84,1.34-8.75,2.25,2.46,4.48,4.93,6.73,7.4l20.86.67a13.46,13.46,0,0,0,4.7-3.36c1.32-1.49,1.82-2.78,2.7-2.7s1.07,1.62,2.69,3.37a9.8,9.8,0,0,0,2.69,2,137.84,137.84,0,0,0,34.31-.68,136.35,136.35,0,0,0,24.89-6.05Zm-109.77,5.05-5.48.16-5.48.15a.13.13,0,0,1-.12-.2l2.61-4.82,1.06-2a2,2,0,0,1,3.48-.1l1.17,1.9,2.87,4.67A.13.13,0,0,1,7430.22,7430.47Z" transform="translate(-6836.26 -6819.35)"/><path class="cls-3" d="M6860.48,7392.45l-11.43,16.15,18.83,16.15v5.38h-15.47v-6.73h-16.15v16.82a21,21,0,0,0,4.71,9.42,20.67,20.67,0,0,0,6.06,4.71l28.25-.67a26.4,26.4,0,0,0,8.08-9.42c3.05-6.15,2.68-12.11,1.34-29.6h0Z" transform="translate(-6836.26 -6819.35)"/><path class="cls-3" d="M7345.56,7391.11l-11.44,16.15L7353,7423.4v5.38h-15.48v-6.72h-16.14v16.82a20.84,20.84,0,0,0,4.71,9.42,20.46,20.46,0,0,0,6.05,4.7l28.26-.67a26.25,26.25,0,0,0,8.07-9.42c3-6.15,2.69-12.11,1.35-29.6h0Z" transform="translate(-6836.26 -6819.35)"/><path class="cls-3" d="M7290.39,7407.93q.68,11.43,1.34,22.87l-19.51.68V7412l-18.16.68V7453l-15.47,15.48,14.8,14.13a61.25,61.25,0,0,0,18.83-28.26h25.57a26.74,26.74,0,0,0,11.44-10.76v-35.66h-18.84Z" transform="translate(-6836.26 -6819.35)"/><path class="cls-3" d="M7225.13,7393.13l-11.44,15.47,17.49,16.82,2,2-1.34,2.69h-14.8l-.68-6.06h-15.47v18.17s2.69,10.09,11.44,11.44,27.58.67,27.58.67,8.75-5.38,9.42-11.44.67-26.91.67-26.91Z" transform="translate(-6836.26 -6819.35)"/><path class="cls-3" d="M7135.65,7412v18.84h-6.73l-.67-17.49H7112.1v16.82h-6.05v-15.47h-17.49l-.68,40.36H7069l-.67-31h-16.14q.33,18.18.67,36.34a18.43,18.43,0,0,0,4.71,10.76c3.3,3.5,7.19,4.51,10.76,5.38l26.24-.67h0a15.46,15.46,0,0,0,8.75-6.06,16,16,0,0,0,2-4.71c.83-3,.67-10.76.67-10.76h10.76l5.38-6.05,3.37,3.36,3.36,3.36,13.46-.67a15.47,15.47,0,0,0,6.05-3.36,15.71,15.71,0,0,0,4.71-8.08v-29.6h0V7412Z" transform="translate(-6836.26 -6819.35)"/><path class="cls-3" d="M7024.64,7409.27l.67,20.86h-8.07v-17.49h-15.47v17.49h-7.4v-17.49h-15.48a65.74,65.74,0,0,1-2,18.16h-8.74q-6.06-15.81-12.11-31.62l-16.82,5.38,8.07,23.55v2.69h-14.8v-6.73h-16.15q.35,9.42.68,18.84c3.89,8.21,9,10.22,10.76,10.77,1.52.48,4.16.54,9.42.67,7.27.18,9.31-.42,10.09-.67a18.28,18.28,0,0,0,7.4-4.71l8.08,5.38h16.82l5.38-4.71,5.38,4.71h13.46l6.05-4.71,6.73,4.71h14.13a17.31,17.31,0,0,0,7.4-5.38,17.82,17.82,0,0,0,3.36-8.08c.49-2.6,0-30.94,0-30.94h0Z" transform="translate(-6836.26 -6819.35)"/><path class="cls-3" d="M7157.85,7412v41l-16.14,15.48,14.12,14.13a39.11,39.11,0,0,0,14.13-14.13,38.44,38.44,0,0,0,4.71-13.46q.34-21.53.67-43.06Z" transform="translate(-6836.26 -6819.35)"/><path class="cls-3" d="M7135.65,7411.29" transform="translate(-6836.26 -6819.35)"/><path class="cls-3" d="M6976.2,7428.78" transform="translate(-6836.26 -6819.35)"/><path class="cls-3" d="M7123.45,7393.5l-3-.75a.42.42,0,0,1-.17-.73l2.39-2a.42.42,0,0,0-.38-.72l-3,.75a.42.42,0,0,1-.48-.57l1-2.49h0l.17-.39a.4.4,0,0,0-.14-.49.39.39,0,0,0-.53,0l-2.34,2.08a.42.42,0,0,1-.69-.28l-.11-1.15-.07-.71-.12-1.26a.42.42,0,0,0-.81-.1l-1.12,2.92a.41.41,0,0,1-.74.08l-1.71-2.62a.41.41,0,0,0-.76.28l.38,3.12a.43.43,0,0,1-.63.41l-2.73-1.51a.41.41,0,0,0-.55.59l1.78,2.58a.42.42,0,0,1-.36.66l-3.12-.08a.42.42,0,0,0-.21.79l2.78,1.45a.42.42,0,0,1,0,.75l-2.81,1.39a.42.42,0,0,0,.19.8h3.13a.43.43,0,0,1,.35.67l-1.85,2.53a.42.42,0,0,0,.53.62l2.78-1.46a.42.42,0,0,1,.61.43l-.45,3.1a.41.41,0,0,0,.75.29l1.78-2.57a.42.42,0,0,1,.74.1l1,2.94a.43.43,0,0,0,.83-.09l.37-3.1a.41.41,0,0,1,.69-.26l2.3,2.14a.42.42,0,0,0,.67-.46l-1.11-2.93a.42.42,0,0,1,.51-.55l3,.82a.42.42,0,0,0,.39-.72l-2.35-2.07a.43.43,0,0,1,.19-.73l3-.67A.41.41,0,0,0,7123.45,7393.5Zm-6,.93a3.21,3.21,0,1,1-2.8-3.5A3.17,3.17,0,0,1,7117.41,7394.43Z" transform="translate(-6836.26 -6819.35)"/><path class="cls-3" d="M7139.52,7391.7l-3.12-.36a.43.43,0,0,1-.26-.71l2.13-2.3a.42.42,0,0,0-.46-.67l-2.92,1.12a.42.42,0,0,1-.56-.5l.82-3a.42.42,0,0,0-.72-.39l-2.07,2.35a.41.41,0,0,1-.72-.18L7131,7384a.42.42,0,0,0-.82,0l-.73,3.05a.42.42,0,0,1-.74.17l-.23-.28-1.79-2.11a.42.42,0,0,0-.72.37l0,.14.72,2.9a.41.41,0,0,1-.56.49l-1.23-.49-1.28-.53-.39-.16a.42.42,0,0,0-.47.68l2.09,2.33a.42.42,0,0,1-.28.69l-3.12.32a.42.42,0,0,0-.1.81l2.94,1.09a.42.42,0,0,1,.07.75l-2.61,1.71a.43.43,0,0,0,.29.78l3.1-.39a.42.42,0,0,1,.42.62l-1.52,2.74a.42.42,0,0,0,.61.54l2.57-1.79a.41.41,0,0,1,.65.36l-.06,3.13a.42.42,0,0,0,.8.2l1.44-2.78a.41.41,0,0,1,.74,0l1.39,2.8a.42.42,0,0,0,.8-.19v-3.12a.41.41,0,0,1,.66-.34l2.55,1.83a.41.41,0,0,0,.6-.54l-1.46-2.76a.42.42,0,0,1,.43-.61l3.1.44a.42.42,0,0,0,.3-.76l-2.58-1.77a.42.42,0,0,1,.09-.75l3-1A.43.43,0,0,0,7139.52,7391.7Zm-9.1,4.79a3.12,3.12,0,1,1,3.21-3.12A3.16,3.16,0,0,1,7130.42,7396.49Z" transform="translate(-6836.26 -6819.35)"/><path class="cls-3" d="M7131.44,7378.24l-3.11-.36a.42.42,0,0,1-.26-.7l2.13-2.3a.42.42,0,0,0-.46-.67l-2.92,1.12a.42.42,0,0,1-.55-.51l.81-3a.42.42,0,0,0-.72-.38l-2.07,2.35a.42.42,0,0,1-.72-.18l-.69-3.06a.41.41,0,0,0-.81,0l-.74,3a.42.42,0,0,1-.73.17l-2-2.38a.42.42,0,0,0-.73.37l.77,3a.43.43,0,0,1-.58.49l-2.9-1.18a.42.42,0,0,0-.46.68l2.08,2.32a.42.42,0,0,1-.27.7l-3.11.3a.43.43,0,0,0-.12.83l2.94,1.09a.41.41,0,0,1,.08.74l-2.61,1.72a.42.42,0,0,0,.28.77l3.1-.39a.42.42,0,0,1,.42.62L7116,7386l-.08.15a.42.42,0,0,0,.15.56.39.39,0,0,0,.46,0l2.57-1.79a.42.42,0,0,1,.66.36l0,.77,0,.88h0l0,1.46a.43.43,0,0,0,.8.21l1.44-2.78a.42.42,0,0,1,.75,0l.9,1.81.5,1a.41.41,0,0,0,.78-.19v-3.13a.43.43,0,0,1,.67-.35l.41.31,2.13,1.54a.38.38,0,0,0,.35.06.43.43,0,0,0,.27-.6l-1.48-2.77a.43.43,0,0,1,.44-.62l3.1.45a.42.42,0,0,0,.3-.76l-2.59-1.77a.42.42,0,0,1,.1-.74l2.95-1.05A.42.42,0,0,0,7131.44,7378.24Zm-9.1,4.8a3.13,3.13,0,1,1,3.22-3.13A3.16,3.16,0,0,1,7122.34,7383Z" transform="translate(-6836.26 -6819.35)"/><path class="cls-3" d="M7301.65,7470.17a.42.42,0,0,1,0-.76l2.8-1.39a.42.42,0,0,0-.19-.8l-3.13,0a.41.41,0,0,1-.34-.66l1.82-2.54a.41.41,0,0,0-.52-.62l-2.77,1.47a.42.42,0,0,1-.62-.42l.45-3.11a.42.42,0,0,0-.77-.29l-1.76,2.59a.42.42,0,0,1-.74-.11l-1.05-2.94a.42.42,0,0,0-.81.09l-.36,3.1a.43.43,0,0,1-.71.27l-2.29-2.12a.42.42,0,0,0-.68.45l1.13,2.92a.42.42,0,0,1-.51.56l-3-.82a.42.42,0,0,0-.38.72l2.35,2.07a.41.41,0,0,1-.18.72l-3.06.69a.42.42,0,0,0,0,.82l3,.73a.42.42,0,0,1,.18.73l-2.38,2a.42.42,0,0,0,.37.73l3-.77a.42.42,0,0,1,.5.56l-1,2.5h0l-.17.4a.42.42,0,0,0,.67.47l2.33-2.09a.42.42,0,0,1,.7.27l.11,1.14v0l.08.69.12,1.26a.42.42,0,0,0,.81.1l1.09-2.92a.43.43,0,0,1,.76-.09l1.72,2.62a.42.42,0,0,0,.76-.29l-.39-3.11a.42.42,0,0,1,.62-.41l2.74,1.5a.41.41,0,0,0,.54-.6l-1.78-2.57a.42.42,0,0,1,.34-.66l3.14.07a.42.42,0,0,0,.2-.79Zm-2.93-.28a3.21,3.21,0,1,1-2.82-3.48A3.17,3.17,0,0,1,7298.72,7469.89Z" transform="translate(-6836.26 -6819.35)"/><path class="cls-3" d="M7288.42,7471.21l-2.94-1.09a.42.42,0,0,1-.08-.74l2.61-1.72a.42.42,0,0,0-.29-.76l-3.1.39a.42.42,0,0,1-.42-.62l1.51-2.74a.42.42,0,0,0-.61-.54l-2.57,1.78a.41.41,0,0,1-.66-.34l.06-3.13a.42.42,0,0,0-.79-.2l-1.44,2.79a.41.41,0,0,1-.74,0l-1.41-2.8a.42.42,0,0,0-.79.19l0,3.14a.42.42,0,0,1-.67.34l-2.55-1.82a.42.42,0,0,0-.61.54l1.48,2.75a.43.43,0,0,1-.43.62l-3.11-.44a.42.42,0,0,0-.29.77l2.59,1.75a.42.42,0,0,1-.09.75l-2.95,1a.42.42,0,0,0,.09.81l3.12.36a.42.42,0,0,1,.26.7l-2.13,2.31a.42.42,0,0,0,.46.67l2.93-1.13a.41.41,0,0,1,.55.5l-.8,3a.42.42,0,0,0,.72.38l2.06-2.36a.42.42,0,0,1,.72.18l.69,3.06a.42.42,0,0,0,.82,0l.72-3.05a.43.43,0,0,1,.74-.17l.23.28,1.8,2.11a.42.42,0,0,0,.72-.39l0-.12-.73-2.9a.42.42,0,0,1,.56-.5l1.21.49,1.3.51.39.16a.41.41,0,0,0,.47-.66l-2.1-2.33a.42.42,0,0,1,.27-.7l3.12-.33A.42.42,0,0,0,7288.42,7471.21Zm-9.07,2.14a3.12,3.12,0,1,1,3.21-3.14A3.18,3.18,0,0,1,7279.35,7473.35Z" transform="translate(-6836.26 -6819.35)"/><path class="cls-3" d="M7296.54,7484.65l-2.94-1.1a.42.42,0,0,1-.08-.74l2.61-1.73a.42.42,0,0,0-.29-.77l-3.1.41a.42.42,0,0,1-.42-.62l1.43-2.6.08-.14a.39.39,0,0,0-.16-.55v0a.41.41,0,0,0-.45,0l-2.56,1.8a.43.43,0,0,1-.67-.35v-.77l0-.89h0l0-1.46a.42.42,0,0,0-.79-.2l-1.44,2.78a.42.42,0,0,1-.74,0l-.91-1.83-.5-1a.43.43,0,0,0-.8.2v.27l0,2.85a.42.42,0,0,1-.67.35l-.4-.29-2.14-1.53a.38.38,0,0,0-.35-.07.42.42,0,0,0-.26.6l1.48,2.76a.42.42,0,0,1-.43.61l-3.1-.43a.42.42,0,0,0-.3.76l2.59,1.76a.43.43,0,0,1-.09.75l-2.95,1.05a.42.42,0,0,0,.09.81l3.12.35a.43.43,0,0,1,.26.71l-2.13,2.31a.42.42,0,0,0,.46.67l2.93-1.13a.41.41,0,0,1,.55.49l-.8,3a.42.42,0,0,0,.72.38l2.06-2.35a.41.41,0,0,1,.72.18l.7,3.06a.42.42,0,0,0,.81,0l.73-3.05a.42.42,0,0,1,.73-.17l2,2.37a.42.42,0,0,0,.73-.37l-.77-3a.42.42,0,0,1,.56-.5l2.91,1.17a.42.42,0,0,0,.46-.67l-2.09-2.33a.43.43,0,0,1,.27-.7l3.12-.31A.42.42,0,0,0,7296.54,7484.65Zm-9.07,2.13a3.13,3.13,0,1,1,3.2-3.14A3.19,3.19,0,0,1,7287.47,7486.78Z" transform="translate(-6836.26 -6819.35)"/><path class="cls-3" d="M7174.5,7392.37l-3.11-.36a.42.42,0,0,1-.26-.71l2.12-2.29a.42.42,0,0,0-.45-.68l-2.92,1.13a.42.42,0,0,1-.56-.51l.82-3a.42.42,0,0,0-.72-.39l-2.07,2.36a.42.42,0,0,1-.72-.18l-.69-3.06a.42.42,0,0,0-.82,0l-.73,3a.42.42,0,0,1-.73.17l-2-2.38a.41.41,0,0,0-.72.37l.76,3a.43.43,0,0,1-.57.5l-2.9-1.18a.42.42,0,0,0-.47.66l2.09,2.34a.42.42,0,0,1-.27.7l-3.11.3a.43.43,0,0,0-.12.82l2.94,1.1a.42.42,0,0,1,.08.74l-2.61,1.72a.41.41,0,0,0,.28.76l3.1-.38a.42.42,0,0,1,.42.62l-1.52,2.73a.42.42,0,0,0,.61.55l2.58-1.78a.42.42,0,0,1,.65.36l-.07,3.12a.43.43,0,0,0,.8.21L7165,7400a.42.42,0,0,1,.75,0l1.39,2.8a.42.42,0,0,0,.79-.19v-3.13a.42.42,0,0,1,.67-.35l2.54,1.85a.42.42,0,0,0,.62-.54l-1.48-2.77a.43.43,0,0,1,.43-.62l3.11.45a.42.42,0,0,0,.29-.76l-2.58-1.77a.42.42,0,0,1,.09-.74l3-1A.42.42,0,0,0,7174.5,7392.37Zm-9.1,4.79a3.12,3.12,0,1,1,3.22-3.12A3.15,3.15,0,0,1,7165.4,7397.16Z" transform="translate(-6836.26 -6819.35)"/><path class="cls-3" d="M7452,7391.84l-.16-.1h0l0,0h-.06l-3.11-.36a.43.43,0,0,1-.26-.71l2.14-2.3a.42.42,0,0,0-.47-.67l-2.92,1.12a.41.41,0,0,1-.55-.5l.81-3a.42.42,0,0,0-.72-.39l-2.07,2.35a.41.41,0,0,1-.72-.18l-.69-3.06a.42.42,0,0,0-.81,0l-.74,3.05a.41.41,0,0,1-.72.17l-2-2.39a.43.43,0,0,0-.74.37l.77,3a.42.42,0,0,1-.57.49l-2.91-1.18a.42.42,0,0,0-.46.68l2.08,2.33a.41.41,0,0,1-.27.69l-3.11.32a.42.42,0,0,0-.12.81l2.94,1.09a.42.42,0,0,1,.09.75l-2.62,1.71a.43.43,0,0,0,.28.78l3.11-.39a.42.42,0,0,1,.42.62l-1.52,2.74a.42.42,0,0,0,.61.54l2.57-1.79a.42.42,0,0,1,.66.36l-.07,3.13a.42.42,0,0,0,.79.2l1.44-2.78a.42.42,0,0,1,.75,0l1.4,2.8a.42.42,0,0,0,.79-.19l0-3.12a.43.43,0,0,1,.68-.34l2.53,1.83a.42.42,0,0,0,.62-.54l-1.46-2.76a.41.41,0,0,1,.42-.61l3.1.44a.42.42,0,0,0,.3-.76l-2.28-1.57-.05,0-.17-.12h0l-.08-.05a.43.43,0,0,1,.11-.75l2.94-1A.43.43,0,0,0,7452,7391.84Zm-9.36,4.65a3.12,3.12,0,1,1,3.21-3.12A3.17,3.17,0,0,1,7442.59,7396.49Z" transform="translate(-6836.26 -6819.35)"/><path class="cls-3" d="M7467.26,7394l-2.92-1.12a.42.42,0,0,1-.08-.74l2.62-1.71a.41.41,0,0,0-.28-.76l-3.11.37a.42.42,0,0,1-.41-.62l1.53-2.73a.43.43,0,0,0-.61-.56l-2.58,1.78a.41.41,0,0,1-.65-.36l.08-3.13a.42.42,0,0,0-.79-.2l-1.46,2.77a.41.41,0,0,1-.74,0l-1.39-2.81a.42.42,0,0,0-.79.19v3.12a.42.42,0,0,1-.67.34l-2.53-1.84a.42.42,0,0,0-.62.53l1.45,2.77a.41.41,0,0,1-.42.61l-3.11-.46a.42.42,0,0,0-.29.76l2.25,1.57,0,0h0l.16.1.11.08a.42.42,0,0,1-.1.74l-2.95,1a.42.42,0,0,0-.21.65h0l.17.12.05,0h.05l3.12.38a.42.42,0,0,1,.25.7l-2.14,2.28a.43.43,0,0,0,.46.69l2.93-1.11a.42.42,0,0,1,.55.5l-.84,3a.42.42,0,0,0,.72.39l2.09-2.34a.41.41,0,0,1,.72.19l.67,3.06a.42.42,0,0,0,.81,0l.75-3a.42.42,0,0,1,.74-.17l2,2.39a.42.42,0,0,0,.73-.37l-.75-3a.42.42,0,0,1,.57-.49l2.89,1.19a.41.41,0,0,0,.47-.66l-2.07-2.35a.43.43,0,0,1,.27-.7l3.12-.29A.42.42,0,0,0,7467.26,7394Zm-8.38,2.46a3.12,3.12,0,1,1,2.4-3.79A3.17,3.17,0,0,1,7458.88,7396.41Z" transform="translate(-6836.26 -6819.35)"/></g></svg>