<svg width="242" height="48" fill="none" xmlns="http://www.w3.org/2000/svg"><path fill-rule="evenodd" clip-rule="evenodd" d="M151.018 21.128h1.038l1.038 1.887h-3.115c.072-.264.362-.656.507-.916.198-.358.347-.627.531-.97h.001Zm-12.539 4.167c0 .942.593 1.877 1.217 2.496 1.429 1.415 3.007 1.12 5.172 1.12a3.345 3.345 0 0 0 1.583-.486c.204-.136.389-.297.553-.477.174-.17.357-.428.5-.531.313.206.87 1.493 2.156 1.493h5.512v-2.2c.012.013.033.016.037.041l.204.35c.069.119.165.247.254.38.514.765 1.478 1.43 2.54 1.43h3.833c.5-.03.974-.231 1.34-.568.287-.271.737-.73.737-1.24h.08c0 .802 1.048 1.808 2.156 1.808 2.354 0 6.36.189 8.42-.281 1.607-.367 2.344-.67 3.848-1.087.449-.124 1.655-.51 2.029-.518V21.6c-.414 0-2.315.527-2.825.678-.482.142-.896.23-1.378.373l-1.388.364a14.104 14.104 0 0 1-.479-1.887c.404-.009 2.131-.527 2.684-.66l2.668-.676c-.036-1.585-1.805-3.302-3.754-3.302-.804 0-3.055.647-3.946.913-1.078.32-2.204 1.598-2.204 2.625 0 1.559.21 1.514.559 2.987h-4.233v-4.56h-4.392v4.56h-4.395l-2.507-4.293c-1.298-2.118-3.758-1.838-5.959-1.838-.277.516-.584.997-.877 1.494l-2.716 4.637h-2.716V12.089h-4.313v13.206ZM24.855 16.49c.26 1.096 1.937 5.259 2.237 6.525h-4.074v-1.652h-1.996c-.726 0-1.125.08-1.837.08v3.93c.019.49.165.97.424 1.39a4.085 4.085 0 0 0 1.943 1.781c1.117.542 2.812.366 4.261.366a3.656 3.656 0 0 0 1.335-.337c1.027-.418 1.294-.968 1.7-1.235.426.28 1.335 1.572 3.035 1.572 1.856 0 3.816.392 4.577-1.392.145-.34-.057-.142.215-.338.07.453.304.865.659 1.16.948.787 1.899.57 3.414.57.88 0 1.928-.914 1.996-1.73.212.152.667 1.73 2.157 1.73 1.958 0 3.24.23 4.652-1.16a3.816 3.816 0 0 0 1.178-2.692v-7.232h-4.313v5.188h-1.916v-4.559h-3.833v4.56h-1.917v-4.56H34.44v4.56h-2.795c-.04-.471-2.018-5.838-2.367-6.869a9.515 9.515 0 0 0-.349-.993l-3.06.998a6.52 6.52 0 0 1-1.013.339ZM75.906 23.015h-1.917v-3.93h-3.834v3.93h-1.917c0-.675-.068-1.446.048-2.076.04-.328.05-.66.032-.99.003-1.158.565-.865-4.153-.865-.184 0-.24.054-.24.236v9.511h-5.191V21.6H54.9v9.04c.033.513.178 1.014.425 1.468.221.395.502.755.832 1.068.087.072.18.14.275.2.69.57 1.561.882 2.461.88h5.192a4.203 4.203 0 0 0 1.944-.444c.529-.265.99-.644 1.35-1.109 1.057-1.2.86-2.494.86-3.95.522.247 1.267.158 1.996.158.88 0 1.929-.914 1.996-1.73.213.152.667 1.73 2.157 1.73h1.997c1.984 0 3.833-1.821 3.833-3.774v-6.602h-4.313v4.48ZM116.256 17.59v5.425h-4.953v-4.56h-4.392v10.141a2.73 2.73 0 0 0-.579.452c-.191.19-.324.324-.518.513l-2.717 2.435c-.184.16-.351.338-.498.531.563.372 3.388 3.034 3.913 3.379.38-.25 1.118-1.06 1.497-1.434.273-.268.486-.481.759-.747l.714-.791c.831-1.034 1.662-2.922 1.662-4.26.345.079.438.236.879.236h4.712c1.975 0 3.834-1.83 3.834-3.773V17.59c0-.18-.056-.235-.239-.235h-3.834c-.184 0-.24.054-.24.235Z" fill="#3B347F"/><path fill-rule="evenodd" clip-rule="evenodd" d="M96.36 17.748c.207.304.275.273.539.492.114.095.166.179.28.274l1.21 1.01c.112.07.216.153.309.247l1.755 1.495c.19.183.397.347.619.49v1.258h-4.153c0-1.06.16-1.729-.24-1.729h-3.354c-.184 0-.24.055-.24.236 0 1.412-.185 3.92.345 5.005a4.503 4.503 0 0 0 1.858 1.945c.473.27 1.005.42 1.55.44h4.715c1.975 0 3.834-1.83 3.834-3.774v-5.66c0-.24-2.143-2.056-2.236-2.122l-2.349-2.091c-.333-.243-.467-.447-.766-.66-.31-.221-.496-.508-.799-.708-.215.316-.496.626-.72.942l-1.414 1.91c-.27.347-.504.651-.741 1h-.002ZM127.221 17.748c.334.38.709.723 1.119 1.022l1.757 1.493c.479.342 1.402 1.268 1.837 1.494v1.257h-4.153c0-1.06.16-1.729-.24-1.729h-3.594v3.852c0 1.944 1.859 3.773 3.834 3.773 1.088 0 4.635.099 5.48-.11.238-.069.471-.155.696-.257.203-.109.398-.232.582-.37.963-.696 1.708-1.904 1.708-3.193v-5.66c-.167-.111-.233-.195-.399-.315l-5.831-5.11c-.362.674-2.449 3.209-2.795 3.852l-.001.001ZM3.53 17.748l.82.766c.154.128.159.091.32.235l2.04 1.765c.113.07.218.15.316.24l1.217 1.003v1.258H4.09c0-1.06.16-1.73-.24-1.73H.496c-.184 0-.24.055-.24.236 0 1.412-.186 3.92.345 5.006a4.761 4.761 0 0 0 1.841 1.961 4.193 4.193 0 0 0 1.568.423h4.713c1.975 0 3.833-1.83 3.833-3.774v-5.66c0-.227-1.351-1.347-1.485-1.445l-4.664-4.136c-.718 1.056-2.085 2.69-2.875 3.852H3.53ZM81.815 28.44v.156c-.386.255-4.117 3.643-4.313 3.931.08.051.153.11.22.176l3.694 3.204c.429-.283 1.341-1.281 1.776-1.71 2.214-2.178 3.016-4.01 3.016-7.487v-8.254h-4.393v9.983ZM87.636 28.911h4.313V12.324c0-.18-.056-.235-.24-.235h-4.073V28.91ZM13.833 12.325V28.91h4.313V12.324c0-.18-.056-.235-.24-.235h-3.833c-.184 0-.24.054-.24.236ZM181.688 12.325V28.91H186V12.324c0-.18-.055-.235-.239-.235h-3.834c-.184 0-.239.054-.239.236Z" fill="#3B347F"/><path fill-rule="evenodd" clip-rule="evenodd" d="M70.701 15.075c-1.11 0-1.293-1.572.08-1.572.952 0 .936 1.572-.08 1.572Zm4.473-.078c-1.675 0-.98-1.572-.4-1.572 1.52 0 1.019 1.572.4 1.572Zm-2.796-1.022c0-.192.129-.025.051 0 0 .001-.05.225-.05 0Zm1.438-1.493.08.393-.229-.068c.372-.38-.173.322.083-.076.075-.116.066-.01.066-.249Zm-.942.33c.11.52.349.349.463.77a1.36 1.36 0 0 1-.64.157c.14-.205.041-.162.32-.235a1.157 1.157 0 0 0-.16-.393c-.108.025-.675.14-.731.13-.17-.027-.155-.05-.111-.239.068-.293.026-.157.203-.285v.236h.4c.096-1.148.662-.66.798-.157a1.203 1.203 0 0 0-.4-.157l-.143.173Zm-1.694-.173v-.079c.563 0 .378-.514.959-.393-.016.011-.041.007-.05.03l-.397.238c-.244.181-.113.204-.511.204Zm3.036-.63h-.08l.066-.09.014.09Zm-.4.315-.08-.471h.32c-.015.012-.04.009-.046.033-.007.024-.037.026-.045.034-.002.002-.149-.046-.149.405Zm-1.996-1.808c0-1.061 1.678-1.066 1.678 0-.001 1.095-1.678 1.011-1.678 0Zm2.396 1.493c.135.012.27.038.399.08l.171-.227c-.366-.51-.46-.43-.49-.796.268-.006 1.409-.136.701-.531-.398-.222-.374.048-.622-.412.378-.1.066-.095.64-.393a1.157 1.157 0 0 0-.16-.394c-.02.01-.9.342-.853-.045.047-.378.534-.491.054-.82-.293.078-.362.237-.719.472-.228-.335-.16-.252-.16-.786-.14-.066-.258-.09-.4-.157-.12.249-.2.514-.239.786-.382-.031-.377-.186-.554-.399-.188-.225-.502-.274-.46.126.03.284.224.613-.024.653-.181.03-.49-.197-.799-.222l-.17.226c.23.334.449.31.49.796-.3.002-.597.055-.879.157v.314l.795.247.004.224c-.251.1-.471.263-.64.472a.565.565 0 0 1 .08.236c.202 0 .79-.07.795-.07.315.075.07.261.004.542-.109-.155-.042-.233-.4-.314-.326.67-.12.75-.559.785-.064-.235-.176-.3-.399-.629l-.317.162c.005.338.077.425.077.86-.437-.035-.49-.204-.879-.235l-.171.226c.19.272.457.402.49.795a1.97 1.97 0 0 0-.878.158v.314c.288.04.562.147.798.314-.1.16-.238.295-.402.392-.315.218-.24.121-.157.473.602 0 .963-.261.917.109-.056.447-.504.516-.039.835.292-.076.141-.044.342-.214.12-.093.246-.18.377-.258.18.266.117.044.16.392.013.16.04.318.08.473.3-.007.315.027.431-.204.07-.16.114-.33.127-.503h.32l.4.55.316-.088c-.005-.332-.078-.42-.078-.855.398.01.509.152.879.237.009-.018.021-.066.026-.054.004.013.021-.042.027-.051a.575.575 0 0 1 .107-.131c-.356-.523-.447-.402-.48-.787.211-.043.425-.07.64-.078-.187.25-.133.064-.32.314l.09.312c.286-.069.576-.12.868-.155 0 .447-.154.586-.24.944.686.179.394-.261 1.038-.314a5.6 5.6 0 0 1 .08.785c.248.021.151 0 .32.08.17-.234.279-.503.32-.787.353.03.26.043.431.282.095.14.22.259.367.347l.24-.157c-.278-1.171-.065-.872.468-.69.253.086.587.048.354-.347-.183-.31-.331-.053-.344-.614.789 0 .749-.073.879-.315-.16-.215-.487-.32-.799-.392v-.236c.378-.1.066-.095.64-.393a.502.502 0 0 1-.08-.315c-.735 0-1.13.29-.824-.415a.621.621 0 0 0 .105-.45c-.626-.143-.348.233-.959.393a3.32 3.32 0 0 1-.16-.864h-.399a3.88 3.88 0 0 1-.24.707c-.393-.032-.37-.194-.559-.471l.005-.002ZM115.354 36.693a.86.86 0 0 1 .756.396.828.828 0 0 1 .023.842l-.14.177c-.609.556-1.387.04-1.42-.56-.022-.396.387-.854.782-.854l-.001-.001Zm1.119-.943h.08v.314h.24c-.123.174-.013.098-.24.157-.107-.218-.081-.151-.081-.472h.001Zm.559.236v.078l-.093-.066.093-.012Zm-3.035-.63c.392.033.251.09.5.298.386.323.256-.11.378.253a.636.636 0 0 1-.501-.214c-.073-.068-.078-.085-.16-.157-.017-.016-.07-.058-.087-.072l-.131-.107h.001Zm2.396-.235c.342.09.24.113.24.55h-.08a.853.853 0 0 0-.021-.293l-.139-.257Zm-.879-.786c.38 0 .832-.083.299.529a1.826 1.826 0 0 0-.219.257c.234.344.167.247.56.157-.14.26-.235.465-.56.55-.075-.315-.207-.402-.239-.785-.232.005-.193-.049-.333.065l-.147.25c-.068-.291-.249-.475.007-.543.189-.051.49.07.792.07.11-.466.1-.168-.16-.55Zm-.399-.315.024.024c-.002-.002-.032-.016-.024-.024Zm1.757-.157c0-1.618 2.42-.67 1.458.492-.163.15-.369.246-.589.278-.39.02-.868-.327-.868-.77h-.001Zm-4.313-.157c0-.95 1.678-1.107 1.678.079-.001.99-1.678 1.118-1.678-.08v.001Zm3.355-.236c.008-.008.024.013.024.024l-.024-.024Zm1.118 2.516a.601.601 0 0 1 .479-.472c.16.328.111.578.4.786.228-.119.319.044.319-.865.38.009.243-.018.463.175.13.11.27.21.417.297.387-.57-.02-.406-.054-.898-.024-.335.592-.105.852-.045a1.13 1.13 0 0 0 .16-.393 1.269 1.269 0 0 1-.639-.472c.158-.212.053-.121.328-.228.152-.068.309-.124.471-.165a1.761 1.761 0 0 0-.08-.393 2.547 2.547 0 0 1-.798-.079c.032-.384.123-.263.479-.786-.013-.013-.034-.052-.039-.04l-.122-.195c-.171.04-.759.285-.784.274-.218-.09-.019-.681-.014-.904a1.857 1.857 0 0 0-.4-.078c-.107.396-.212.154-.319.55h-.319a1.236 1.236 0 0 0-.143-.488c-.137-.298-.027-.21-.417-.218-.064.272-.095.592-.159.864-.539-.123-.341-.348-.879-.471l-.144.172c.031.183.306.661.262.758-.083.179-.609.013-.917.013-.11.466-.101.168.16.55-.299 0-.63.057-.518-.26.056-.159.319-.352.438-.526l-.164-.312c-.102.048-.709.312-.77.283-.223-.107-.025-.624-.025-.914-.422 0-.119 0-.239-.079-.381.251-.307.521-.719.63-.293-.602-.059-.676-.479-.787-.306.221-.24.373-.24.865-.476-.01-.146.011-.878-.471-.383.563.005.39.052.898.033.352-.3.059-.931.045 0 .415 0 .117-.079.236.236.346.443.341.639.628-.377.506-.783-.006-.799.708.276.063.602.095.878.157-.03.36-.068.183-.479.786.013.014.034.016.039.041.005.026.03.034.036.043.032.049.061.1.086.152.166-.038.729-.297.784-.274.217.091.019.681.014.903.13.041.264.068.399.079.073-.265.045-.136.205-.349.161-.212.056-.136.275-.28l.114.123c.017.027.097.197.104.213.077.176.108.301.181.45.197-.004.113.019.273-.045l.206-.112c.042.128.068.26.08.393-.443 0-.531-.07-.879-.078l-.053.104a.612.612 0 0 1-.106.132c.234.343.405.285.639.628-.211.284-.466.236-.799.393.163.686.523.171.823.459.196.188-.117.349-.424.8l.257.218c.94-.409.939-.434.702.567.255.169.056.13.399.158.102-.247.267-.464.479-.629.014.012.037.012.042.037.005.02.062.056.079.08.162.215.158.423.279.669.361-.008.394.14.479-.865.365.03.185.067.798.471l.24-.157c-.039-.164-.302-.718-.278-.772.087-.202.643-.014.917-.014.041-.127.068-.26.08-.393-.248-.065-.149-.042-.357-.198-.274-.205-.193-.01-.202-.43.341-.029.378-.13.719-.158v-.394a4.834 4.834 0 0 1-.879-.157c.094-.347.306-.452.479-.707l-.164-.313a.517.517 0 0 1-.315.077l-.001-.001ZM158.365 14.054l.024.023c-.001-.001-.031-.015-.024-.023Zm-2.556-.236a.803.803 0 0 1 1.598 0c-.001.95-1.598.95-1.598 0Zm5.911-.079c0 .554-.316.865-.879.865-.709 0-.994-.956-.542-1.398.468-.458 1.421-.161 1.421.534Zm-2.636-.314h.08v.236h-.08v-.236Zm-3.115-1.258c-.534-.14-.27-.55-.958-.393.03.357.239.616.239.786 0 .386-.958-.16-.958.236 0 .437.51.209.559.786-.902.207-.719.358-.719.63.877 0 .753.126.799.235.046.11.175-.073-.18.292a.623.623 0 0 0-.22.415c0 .379.724-.078.879-.078.454 0-.313.943.24.943.443 0 .212-.502.798-.55.057.243.137.48.24.707h.4c0-.418.071-.44.079-.786.848.02.171.514 1.038.315-.065-.778-.763-.966.384-.841.318.035.497-.167.15-.47l-.134-.104c.216-.012.432.014.639.078a.96.96 0 0 1-.479.708c.127.187.096.082.16.314 1.248-.286.904-.613.798.63.455.106.286.175.549-.168.15-.196.104-.062.17-.304h.32c.056.243.136.48.239.707.81 0 .057-.444.639-.865.322.212.275.37.719.472l.144-.173c-.068-.335-.213-.393-.224-.85.404.048.959.203.959-.077 0-.447-.56-.245-.56-.787.226-.114.469-.193.719-.235v-.394a3.45 3.45 0 0 1-.878-.157c.06-.221.116-.242.274-.44.231-.29.213-.133.125-.504a.65.65 0 0 0-.457.103c-.762.322-.422-.188-.422-.81-.247-.02-.151 0-.319-.078-.32.595-.292.23-.4.629h-.239c-.072-.304-.181-.63-.4-.787-.163.085-.319-.073-.319.865-.602-.013-.148-.09-.878-.471-.485.71.929 1.34-.799.943l-.16.236.334.38a1.244 1.244 0 0 1-.654-.144c.458-.851.567-.239.4-.944-.423.035-.444.225-.959.236.006-.273.221-.943-.08-.943-.186 0-.271.13-.366.267-.169.24-.078.254-.432.283a2.509 2.509 0 0 0-.153-.478c-.133-.279-.099-.23-.486-.23.016.297-.039.593-.159.865h-.001ZM82.892 14.211a.814.814 0 0 1 .135-.422.832.832 0 0 1 .337-.292c1.189-.518 1.884 1.5.247 1.5a.767.767 0 0 1-.524-.247.743.743 0 0 1-.195-.539Zm-.48-2.044c-.573 0-.107.554-.043.764.138.447-.462.18-.915.18-.065.275-.135.259.106.442l.453.265c-.09.332-.421.44-.798.471v.315c.276.118.577.172.878.157-.04.486-.258.461-.479.786l.172.226c.425-.026.477-.194.868-.226 0 .436-.073.523-.08.865l.317.161c.133-.252.326-.469.561-.633.288.208.24.458.4.786.754-.173.15-.865.56-.865.156 0 .572.376.718.472l.223-.252c-.416-.925-.442-.925.576-.691a1.15 1.15 0 0 0 .16-.394c-.251-.1-.471-.262-.64-.47.24-.324.709-.242.791-.494.107-.326-.343-.329-.87-.372.033-.385.124-.264.48-.786l-.172-.226c-.358.075-.47.217-.867.226 0-.436.072-.523.08-.865a1.879 1.879 0 0 0-.4-.078c-.065.244-.042.146-.201.351-.208.27-.01.19-.437.199-.029-.335-.132-.372-.16-.708h-.4c-.062.263-.033.83-.232.845-.158.012-.579-.451-.646-.451h-.002ZM225.875 19.66l-.025-.025-.539-.52-.026-.028-.029-.03-.03-.03-.03-.03-.029-.03-.03-.027-.39-.408c-.05 0-.04.014-.04-.035l-.029-.03-.03-.03-.023-.039-.028-.03-.029-.03-.428-.47c-.461-.542-.742-.932-1.168-1.532-1.305-1.838-2.426-4.46-1.669-6.82.212-.661.468-.98.551-1.208-.116.034-.185.1-.284.151l-2.281 1.395c-.048.033-.083.054-.125.084l-1.787 1.445a6.471 6.471 0 0 0-.779.84l-.203.246c-.074.087-.137.181-.206.274a5.2 5.2 0 0 0-.892 1.902c-.244 1.018-.083 2.302.47 3.22l.849 1.251a.936.936 0 0 0 .09.12l.565.603c.384.387.79.751 1.215 1.09.779.625 1.868 1.413 2.698 1.907l4.018 2.438c.1.06.186.106.281.167.101.065.174.104.283.165l3.738 2.27c.052.033.074.044.13.078l.707.46c1.035.64 2.02 1.362 2.999 2.084l1.897 1.545c.047.043.071.077.117.122l.239.21.237.242 1.099 1.178a.87.87 0 0 1 .106.134l.302.387c.471.65.895 1.354 1.147 2.126.063.191.185.53.19.744h.059c.027-.103.29-.511.362-.628.341-.55.542-1.241.67-1.886.156-.784.017-1.626-.189-2.24-.239-.714-.646-1.382-1.081-1.982a14.095 14.095 0 0 0-.912-1.126 26.606 26.606 0 0 0-.253-.256c-.291-.292-.227-.27-.624-.634-.051-.047-.084-.086-.133-.136l-1.054-.982c-.405-.397-1.76-1.474-2.232-1.838l-2.601-1.976c-.098-.072-.187-.14-.289-.22l-2.88-2.204c-.101-.086-.179-.146-.281-.228-.057-.046-.065-.058-.131-.109l-.968-.828c-.097-.076-.159-.17-.262-.253Z" fill="#4EAF1D"/><path fill-rule="evenodd" clip-rule="evenodd" d="m217.204 29.071.019.019c.067.049.13.103.189.163l.018.03.032.018.187.163.019.019.041.042.02.018.277.253.018.03.03.03.03.03.03.027.035.027.031.03.03.03.029.03.03.03.03.027.033.03.029.026.041.024.029.03.03.03.03.03.029.03.03.03.03.03.028.035.022.035.03.03.03.03c.276.188 1.39 1.58 1.651 1.946.49.686.946 1.385 1.332 2.241.624 1.384.98 2.916.536 4.47a4.854 4.854 0 0 1-.237.664c-.065.144-.249.478-.275.588.094-.061.173-.099.276-.163l2.722-1.852c.437-.337.853-.7 1.247-1.089 1.268-1.296 2.828-3.346 1.919-5.833l-.363-.78a1.55 1.55 0 0 0-.084-.155c-.431-.662-.961-1.385-1.574-1.873a1.164 1.164 0 0 1-.12-.119.705.705 0 0 0-.13-.11l-.885-.73c-.434-.34-.887-.657-1.354-.949l-3.167-1.883c-.499-.265-.97-.572-1.475-.826l-1.624-.886c-.065-.034-.092-.057-.148-.09-.098-.059-.188-.092-.291-.158-.105-.068-.2-.101-.313-.165l-2.781-1.58c-.768-.453-1.543-.9-2.293-1.384-1.037-.67-2.437-1.58-3.356-2.385l-2.124-2.009c-.53-.533-1.138-1.527-1.472-2.217-.129-.266-.34-.778-.346-1.068l-.574.987c-.055.13-.089.25-.139.372-.488 1.202-.458 2.613.099 3.736.221.438.47.861.745 1.266l.44.58c.039.041.074.086.106.133l.37.41c.243.246.472.574.746.78.144.108.237.234.367.352.064.06.084.056.149.12l.268.242c.037.042.077.082.12.12l.829.696c.06.052.088.067.149.12.094.084.187.145.282.228.091.08.17.135.268.21l3.488 2.554c.102.08.191.136.299.21.111.075.188.138.296.21l1.776 1.245c.696.517 1.684 1.177 2.32 1.718l.561.457c.06.046.071.072.125.114.053.04.105.082.154.127l-.001.002Z" fill="#3B347F"/><path fill-rule="evenodd" clip-rule="evenodd" d="M221.854 8.307c-.083.228-.338.547-.551 1.209-.756 2.36.365 4.982 1.669 6.82.426.6.708.99 1.168 1.531l.428.47c-.028-.113-.304-.436-.379-.55-.618-.944-.818-1.761-.362-2.894a5.04 5.04 0 0 1 .308-.653c.126-.209.226-.372.357-.574.13-.2.27-.37.403-.556l.201-.249c.082-.092.137-.168.223-.256l1.633-1.662 2.334-1.915c.096-.074.182-.129.277-.201l3.333-2.32c.82-.555 2.367-1.53 3.185-1.985l1.663-.967c.06-.034.105-.052.158-.08.009.144.026.288.053.43.024.156.028.272.054.428.05.299.064.555.108.857.039.266.079.567.113.851l.118.877c.124-.093.567-.836.689-1.021l2.049-3.172c.159-.242.307-.463.463-.706l.451-.72c-.14-.012-.329-.062-.452-.083-.18-.031-.305-.048-.486-.08-.325-.059-.631-.116-.936-.166-.577-.094-5.344-.97-5.698-.97.127.176.371.31.527.46.226.217.493.388.713.604l.193.167c.033.03.041.045.076.074l1.082.922c.084.072.227.163.29.25-.167.04-.347.103-.511.145-.184.046-.321.098-.511.145l-1.038.303c-.351.105-.658.195-1.01.302-1.01.304-3.299 1.033-3.989 1.32l-1.468.53c-.166.055-.323.124-.475.181-.929.35-1.946.737-2.847 1.152l-.908.405c-.384.157-.758.355-1.13.542-.087.044-.142.056-.229.1-.164.082-.291.149-.454.232-.294.15-.612.289-.884.473h-.001Z" fill="#469319"/><path fill-rule="evenodd" clip-rule="evenodd" d="M221.697 40.387c.026-.11.21-.445.275-.589.095-.214.174-.436.237-.663.444-1.555.088-3.086-.536-4.47-.386-.857-.842-1.555-1.331-2.242-.262-.367-1.376-1.758-1.651-1.946.02.09.392.527.467.642.59.898.733 1.6.381 2.672l-.346.796a12.022 12.022 0 0 1-1.093 1.607c-.469.605-1.171 1.282-1.705 1.83l-.432.405c-.059.04-.113.087-.162.138l-.446.392c-.379.351-.724.607-1.083.922l-.785.622c-.553.421-1.374 1.071-1.931 1.45-.063.042-.118.075-.177.12-.115.088-.215.15-.33.24-.381.298-2.224 1.54-2.706 1.838l-.855.55c-.063.042-.105.06-.167.102l-2.458 1.518c-.246.152-.468.27-.713.423-.125.077-.229.14-.359.209-.126.067-.23.142-.355.211-.163.09-1.372.747-1.436.836l3.961-1.137c1.172-.354 2.342-.755 3.503-1.148l1.262-.438c.112-.037.214-.08.327-.121l3.712-1.42c.796-.319 1.648-.728 2.397-1.034.201-.083.375-.187.572-.264.101-.04.174-.09.283-.135l1.443-.707.555-.282 1.387-.763c.055-.034.089-.045.137-.073a1.13 1.13 0 0 1 .158-.09v-.001Z" fill="#3B347F"/><path fill-rule="evenodd" clip-rule="evenodd" d="m208.563 42.108.302-.206c.242-.185.667-.482.878-.677l.817-.74c.097-.082.184-.176.26-.28 0-2.33.089-4.61.089-6.947 0-.31.029-.52.029-.846v-1.3c0-.173.031-.227.03-.422-.007-1.469.059-2.95.059-4.38l-.892-.003c-.515.05-.907.303-1.147.768-.151.292-.188.465-.188.897 0 .353-.028.36-.031.512l-.028 2.75c0 .394-.03.678-.03 1.057l.001 1.119c0 .178-.031.296-.031.513v1.087c.001.23-.031.33-.03.544.011 2.153-.089 4.379-.089 6.554h.001ZM205.712 44.224c.162-.014.997-.605 1.176-.737l.535-.423c.043-.036.084-.075.122-.117.062-.057.072-.048.135-.105.08-.09.167-.173.259-.25l.03-.815V40.9c0-.303.029-.5.029-.816v-.876c0-.315.03-.52.03-.815l-.001-1.3c0-.174.032-.228.031-.422-.01-1.97.089-4.011.089-5.95 0-.612.03-1.132.03-1.722-.734 0-1.399-.127-1.896.548a1.63 1.63 0 0 0-.203.337c-.129.274-.129.532-.128.927 0 .21-.031.306-.031.482-.001 1.75-.057 3.447-.058 5.197 0 .176-.031.273-.03.483v1.057c0 .376-.03.645-.03 1.027 0 .352-.002.705 0 1.057.001.207-.031.277-.03.484l-.006 1.564c-.043.277-.023 1.158-.023 1.547 0 .32-.03.393-.03.514ZM202.892 46.066c.172-.015.431-.205.583-.282.577-.292 1.113-.686 1.644-1.047v-.816c0-.313.029-.506.029-.815v-1.24c0-.183.031-.219.031-.39.001-1.142.028-2.184.028-3.325 0-.17.031-.191.031-.361v-1.27c0-.301.029-.483.029-.785 0-.441.016-3.127.048-3.304.015-.137.019-.274.012-.411.001-.41.139-.333-.832-.333-.785 0-1.398.728-1.395 1.571.001.364-.03.63-.03.967v.997c0 .36-.03.606-.03.966v.997c0 .344-.029.626-.029.997 0 2.583-.119 5.304-.119 7.884Z" fill="#4EAF1D"/><path fill-rule="evenodd" clip-rule="evenodd" d="M224.746 18.53c0-.056.015-.047-.039-.034 0 .047-.011.034.039.034Z" fill="#469319"/><path fill-rule="evenodd" clip-rule="evenodd" d="m218.58 30.348-.029-.03c-.014.053-.024.043.029.03ZM218.491 30.257l-.029-.03c-.014.053-.023.043.029.03ZM218.551 30.317l-.03-.029c-.013.052-.023.042.03.03Z" fill="#3B347F"/><path fill-rule="evenodd" clip-rule="evenodd" d="m218.521 30.287-.03-.03c-.013.053-.023.043.03.03ZM218.461 30.227l-.03-.03c-.013.052-.023.043.03.03Z" fill="#3B347F"/><path fill-rule="evenodd" clip-rule="evenodd" d="m218.432 30.196-.03-.029c-.013.052-.023.043.03.03Z" fill="#3B347F"/><path fill-rule="evenodd" clip-rule="evenodd" d="M224.707 18.495c.013-.051.023-.042-.029-.029l.029.03ZM224.678 18.465c.013-.052.023-.042-.03-.03l.03.03Z" fill="#469319"/><path fill-rule="evenodd" clip-rule="evenodd" d="m218.608 30.382-.028-.033c-.013.05-.024.04.028.033ZM218.402 30.166l-.041-.022c.002.046-.009.035.041.022Z" fill="#3B347F"/><path fill-rule="evenodd" clip-rule="evenodd" d="M224.648 18.435c.012-.049.024-.04-.023-.038l.023.038Z" fill="#469319"/><path fill-rule="evenodd" clip-rule="evenodd" d="m218.631 30.417-.023-.034c-.01.044-.021.035.023.034ZM218.692 30.477l-.032-.03c-.001.043-.012.033.032.03Z" fill="#3B347F"/><path fill-rule="evenodd" clip-rule="evenodd" d="m218.662 30.447-.031-.029c-.001.041-.012.032.031.03Z" fill="#3B347F"/><path fill-rule="evenodd" clip-rule="evenodd" d="M224.598 18.367c.001-.041.011-.031-.031-.03l.031.03Z" fill="#469319"/><path fill-rule="evenodd" clip-rule="evenodd" d="M224.626 18.397c.004-.041.014-.031-.028-.03l.028.03Z" fill="#469319"/></svg>