<svg width="48" height="43" viewBox="0 0 48 43" fill="none" xmlns="http://www.w3.org/2000/svg">
<path d="M40 0H8C3.59064 0 0 3.57402 0 7.96296V35.037C0 39.426 3.59064 43 8 43H40C44.4094 43 48 39.426 48 35.037V7.96296C48 3.57402 44.4094 0 40 0ZM44.8 35.037C44.8 37.6717 42.6469 39.8148 40 39.8148H8C5.35312 39.8148 3.2 37.6717 3.2 35.037V14.1247L17.2624 24.1254C19.2374 25.5344 21.5655 26.2748 23.9999 26.2748C26.4312 26.2748 28.7593 25.5344 30.7374 24.1254L44.7998 14.1247L44.8 35.037ZM44.8 10.2149L28.872 21.5374C27.4814 22.5235 25.7533 23.0678 24.0002 23.0678C22.247 23.0678 20.5189 22.5266 19.1283 21.5374L3.20032 10.2149V7.96288C3.20032 5.32826 5.35344 3.18511 8.00032 3.18511H40.0003C42.6472 3.18511 44.8003 5.32826 44.8003 7.96288L44.8 10.2149Z" fill="#514A9B"/>
</svg>
