<svg width="61" height="69" viewBox="0 0 61 69" fill="none" xmlns="http://www.w3.org/2000/svg">
<path d="M59.6053 26.0773H56.0071V13.2471C56.0071 12.8751 55.8529 12.5084 55.5845 12.2479L44.2742 1.24033C44.0138 0.99052 43.663 0.84702 43.3016 0.84436H9.52984C7.02913 0.84436 4.99347 2.88001 4.99347 5.38073V26.0774H1.3952C0.624533 26.0774 0 26.7019 0 27.4726V47.0501C0 47.8208 0.624512 48.4453 1.3952 48.4453H4.99347V64.3424C4.99347 66.8404 7.02913 68.8761 9.52984 68.8761H51.4702C53.9709 68.8761 56.0065 66.8404 56.0065 64.3397V48.4427H59.6048C60.3755 48.4427 61 47.8182 61 47.0475L60.9973 27.4727C60.9973 26.702 60.3734 26.0773 59.6053 26.0773ZM44.6968 5.53981L51.1731 11.8434L46.783 11.8327C45.6323 11.8301 44.6968 10.892 44.6968 9.74131V5.53981ZM7.78135 5.38035C7.78135 4.41566 8.56528 3.63173 9.52997 3.63173H41.9091V9.74399C41.9091 12.4281 44.0935 14.6179 46.7776 14.6232L53.2194 14.6391V26.0766H7.78155L7.78135 5.38035ZM53.2192 64.3395C53.2192 65.3042 52.4353 66.0882 51.4706 66.0882H9.53024C8.56555 66.0882 7.78162 65.3042 7.78162 64.3395L7.78428 48.4425H53.2194L53.2192 64.3395ZM58.2099 45.6546H2.79046V28.8643H58.2099V45.6546Z" fill="#514A9B"/>
<path d="M18.893 31.3444H14.8323C14.0616 31.3444 13.4371 31.9689 13.4371 32.7396V42.5593C13.4371 43.33 14.0616 43.9545 14.8323 43.9545C15.603 43.9545 16.2275 43.33 16.2275 42.5593V39.8327H18.8956C21.2342 39.8327 23.1396 37.9299 23.1396 35.5887C23.137 33.2474 21.2342 31.3444 18.893 31.3444ZM18.893 37.042H16.2248V34.1321H18.893C19.6955 34.1321 20.3466 34.7858 20.3466 35.5857C20.3493 36.391 19.6955 37.042 18.893 37.042Z" fill="#514A9B"/>
<path d="M46.169 31.3444H39.8654C39.0947 31.3444 38.4702 31.9689 38.4702 32.7396V42.5593C38.4702 43.33 39.0947 43.9545 39.8654 43.9545C40.6361 43.9545 41.2606 43.33 41.2606 42.5593V38.8016H45.4435C46.2142 38.8016 46.8387 38.1771 46.8387 37.4064C46.8387 36.6357 46.2142 36.0112 45.4435 36.0112H41.2606V34.1324H46.169C46.9396 34.1324 47.5642 33.5079 47.5642 32.7372C47.5642 31.9692 46.9397 31.3444 46.169 31.3444Z" fill="#514A9B"/>
<path d="M29.5175 31.3444H27.0939C26.3232 31.3444 25.6987 31.9689 25.6987 32.7396V42.5593C25.6987 43.33 26.3232 43.9545 27.0939 43.9545H29.5175C32.9935 43.9545 35.8211 41.1269 35.8211 37.6509C35.8237 34.1722 32.9935 31.3444 29.5175 31.3444ZM29.5175 41.1641H28.4864V34.1323H29.5175C31.4549 34.1323 33.0334 35.7082 33.0334 37.6482C33.0334 39.5882 31.4575 41.1641 29.5175 41.1641Z" fill="#514A9B"/>
</svg>
