<svg width="51" height="51" viewBox="0 0 51 51" fill="none" xmlns="http://www.w3.org/2000/svg">
<path d="M8.99002 34.8854C14.211 41.2208 20.5392 46.0075 27.8027 49.1084C30.452 50.24 32.9435 50.8301 35.4305 50.9297C35.5786 50.9297 35.7219 50.9369 35.8652 50.9369C38.1721 50.9369 40.0929 50.2084 41.5718 48.7684C42.8151 47.5567 44.0463 46.3012 45.2265 45.087L45.3819 44.9243C46.2658 44.0161 46.7879 42.984 46.9288 41.8476C47.14 40.2181 46.5864 38.7199 45.2824 37.4085C43.9322 36.0462 42.5723 34.6912 41.21 33.3434C41.0352 33.1686 40.8676 32.9962 40.6952 32.8213C40.1731 32.2871 39.6316 31.7407 39.0172 31.2308C37.0405 29.5892 34.4616 29.6086 32.4581 31.2745C32.1594 31.5222 31.8923 31.7893 31.6616 32.02L31.5815 32.1001C30.6854 32.9962 29.7918 33.8971 28.8957 34.7907C28.8204 34.7543 28.7524 34.7154 28.6772 34.679C28.0482 34.356 27.4532 34.0501 26.9044 33.7028C23.9321 31.8014 21.1735 29.2201 18.4685 25.8202C17.4486 24.5404 16.6667 23.3092 16.0887 22.0708L16.7225 21.4419C17.5749 20.6016 18.4515 19.7323 19.3014 18.8556C21.4845 16.5997 21.4845 13.6905 19.3014 11.4517C17.7958 9.90479 16.2416 8.36276 14.7458 6.86935L13.4393 5.5702C12.7618 4.89272 11.9774 4.42647 11.1202 4.17874C9.8332 3.80477 7.90021 3.74892 6.01092 5.57747C5.5641 6.01215 5.12698 6.45414 4.68747 6.90093C4.02938 7.57114 3.40772 8.20741 2.74721 8.80234C0.862828 10.5119 -0.0818467 12.6561 0.00555872 15.0117C0.00555872 17.0442 0.32853 18.8849 1.03764 20.9733C2.6792 25.8227 5.27755 30.3616 8.98308 34.8612L8.99002 34.8854ZM4.84964 11.1262C5.57817 10.4681 6.25565 9.77114 6.91859 9.0985C7.33627 8.66868 7.75883 8.24614 8.18622 7.83088C8.77145 7.25778 9.26685 7.0975 9.69667 7.0975C9.90064 7.0975 10.0949 7.13393 10.2746 7.18978C10.6292 7.28935 10.9521 7.48847 11.2557 7.7993L12.5621 9.09845C14.0531 10.5846 15.5952 12.1145 17.0886 13.6419C18.0696 14.6545 18.0696 15.6866 17.0764 16.7186C16.2508 17.571 15.3863 18.4282 14.5534 19.2538L13.6962 20.1062C12.7151 21.0824 12.5767 21.8085 13.1425 23.0785C13.8443 24.6569 14.7962 26.194 16.0589 27.7774C18.9803 31.4515 21.989 34.2488 25.2527 36.3376C25.9229 36.7674 26.615 37.122 27.2804 37.4619C27.5669 37.6101 27.8534 37.7534 28.1327 37.9039C28.6427 38.1783 29.6504 38.477 30.7116 37.4061C31.7437 36.374 32.7684 35.3372 33.8005 34.3051L33.8879 34.2177C34.0919 34.0137 34.2862 33.8194 34.4732 33.664C35.0754 33.1662 36.0152 32.7509 37.0667 33.6203C37.5572 34.0234 38.0235 34.4969 38.514 34.9996C38.6937 35.1793 38.8734 35.3663 39.0555 35.546C40.4105 36.8889 41.7656 38.2366 43.1084 39.5941C43.8928 40.3833 43.934 40.9734 43.8782 41.4397C43.8151 41.8986 43.5917 42.3236 43.1885 42.7388L43.0331 42.9015C41.8578 44.1011 40.6533 45.3444 39.4343 46.5246C38.4653 47.4644 37.2391 47.8675 35.5732 47.8043C33.4727 47.7242 31.3333 47.207 29.0458 46.2308C22.2442 43.3265 16.3142 38.8386 11.4161 32.8893C7.95326 28.6859 5.53463 24.4652 4.01958 19.9824C3.4222 18.217 3.1551 16.675 3.1551 14.9848V14.9217C3.09196 13.4865 3.66991 12.1995 4.87679 11.1116L4.84964 11.1262Z" fill="#514A9B"/>
<path d="M25.9795 0.011958C25.1271 -0.094893 24.3573 0.526767 24.2578 1.37911C24.1582 2.23146 24.7726 3.00127 25.6249 3.1008C36.6787 4.36352 46.2516 13.6448 47.8978 24.6793C48.0095 25.4491 48.6748 26.0027 49.4325 26.0027C49.5078 26.0027 49.5879 26.0027 49.6632 25.9833C50.5156 25.8594 51.0984 25.0629 50.9697 24.2179C49.0926 11.6293 38.585 1.44709 25.9721 0.00981305L25.9795 0.011958Z" fill="#514A9B"/>
<path d="M38.7743 24.6988C38.8861 25.4686 39.5514 26.0222 40.3091 26.0222C40.3844 26.0222 40.4645 26.0222 40.5398 26.0028C41.3922 25.8789 41.975 25.0897 41.8463 24.2374C40.6515 16.2118 33.8642 9.66507 26.0573 9.01419C25.2001 8.93891 24.4546 9.58 24.3794 10.4323C24.3041 11.2895 24.9452 12.035 25.7975 12.1103C31.3244 12.5693 37.6892 17.4065 38.7771 24.6915L38.7743 24.6988Z" fill="#514A9B"/>
</svg>
