<svg width="85" height="93" viewBox="0 0 85 93" fill="none" xmlns="http://www.w3.org/2000/svg">
<path d="M76.7404 32.6819L23.9264 2.19485C21.5143 0.758324 18.7589 0 15.9514 0C13.1439 0 10.3886 0.758324 7.97642 2.19485C5.52712 3.56523 3.49326 5.5715 2.08958 8.00186C0.685888 10.4322 -0.0355528 13.1965 0.00141906 16.0029V76.9869C-0.036458 79.7941 0.684553 82.5594 2.08829 84.9907C3.49202 87.422 5.52637 89.4291 7.97642 90.7999C10.3885 92.2365 13.1439 92.9949 15.9514 92.9949C18.7589 92.9949 21.5143 92.2365 23.9264 90.7999L76.7404 60.3079C79.1651 58.9079 81.1785 56.8944 82.5784 54.4698C83.9783 52.0451 84.7152 49.2946 84.7152 46.4949C84.7152 43.6951 83.9783 40.9446 82.5784 38.5199C81.1785 36.0953 79.1651 34.0818 76.7404 32.6819ZM74.4404 56.3209L21.6244 86.8139C19.9083 87.8354 17.9481 88.3747 15.9509 88.3747C13.9537 88.3747 11.9936 87.8354 10.2774 86.8139C8.53456 85.8385 7.08746 84.4105 6.08893 82.6808C5.0904 80.9512 4.57751 78.9839 4.60442 76.9869V16.0029C4.57751 14.0058 5.0904 12.0386 6.08893 10.3089C7.08746 8.57917 8.53456 7.15123 10.2774 6.17586C11.9935 5.1542 13.9537 4.6149 15.9509 4.6149C17.9481 4.6149 19.9083 5.1542 21.6244 6.17586L74.4394 36.6689C76.1643 37.6647 77.5966 39.097 78.5924 40.8218C79.5883 42.5466 80.1125 44.5032 80.1125 46.4949C80.1125 48.4865 79.5883 50.4431 78.5924 52.1679C77.5966 53.8927 76.1653 55.325 74.4404 56.3209Z" fill="white"/>
</svg>
