<svg viewBox="0 0 62 62" xmlns="http://www.w3.org/2000/svg">
  <path fill="#514A9B" d="M56.19 8.41H45.14V5.81A5.82 5.82 0 0 0 39.33 0H5.81A5.8 5.8 0 0 0 0 5.81v50.38A5.8 5.8 0 0 0 5.81 62h33.6a5.8 5.8 0 0 0 5.78-5.81v-8.9H56.19A5.8 5.8 0 0 0 62 41.48V14.18a5.8 5.8 0 0 0-5.81-5.77ZM56.19 11.63c.75 0 1.47.3 2 .83.52.52.82 1.23.82 1.78v15.25H45.24V11.63h10.95ZM42.02 56.19a3.16 3.16 0 0 1-3.22 2.69H5.81a3.2 3.2 0 0 1-2.65-3.22V5.81a3.2 3.2 0 0 1 2.65-2.65h33.6a3.2 3.2 0 0 1 3.22 2.7v50.33ZM56.19 44.14H45.14V32.51H58.7v8.93a3.2 3.2 0 0 1-2.51 2.7Z"/>
  <path fill="#514A9B" d="M35.2 8.41H10.02a1.57 1.57 0 0 0-1.57 1.57v21.03a1.57 1.57 0 0 0 1.57 1.57H35.2c.42 0 .82-.17 1.12-.47.3-.3.49-.71.49-1.13V9.98a1.6 1.6 0 0 0-1.6-1.57ZM33.64 29.43H11.63V11.63H33.64v17.8Z"/>
  <path fill="#514A9B" d="M18.14 39.41a1.57 1.57 0 1 0 0 3.15 1.57 1.57 0 1 0 0-3.15Z"/>
  <path fill="#514A9B" d="M27.13 39.41a1.57 1.57 0 0 0 0 3.21 1.57 1.57 0 1 0 0-3.21Z"/>
</svg>
