<svg xmlns="http://www.w3.org/2000/svg" xmlns:xlink="http://www.w3.org/1999/xlink" width="500" zoomAndPan="magnify" viewBox="0 0 375 374.999991" height="500" preserveAspectRatio="xMidYMid meet" version="1.2"><defs><clipPath id="fa730d1882"><path d="M 48 130 L 180 130 L 180 263 L 48 263 Z M 48 130 "/></clipPath><clipPath id="658a3b496c"><path d="M 207.152344 196.605469 L 114.003906 289.753906 L 20.855469 196.605469 L 114.003906 103.457031 Z M 207.152344 196.605469 "/></clipPath><clipPath id="898b45ac4e"><path d="M 160.578125 243.179688 C 148.226562 255.53125 131.472656 262.472656 114.003906 262.472656 C 96.535156 262.472656 79.78125 255.53125 67.429688 243.179688 C 55.078125 230.828125 48.136719 214.074219 48.136719 196.605469 C 48.136719 179.136719 55.078125 162.382812 67.429688 150.03125 C 79.78125 137.679688 96.535156 130.738281 114.003906 130.738281 C 131.472656 130.738281 148.226562 137.679688 160.578125 150.03125 C 172.929688 162.382812 179.871094 179.136719 179.871094 196.605469 C 179.871094 214.074219 172.929688 230.828125 160.578125 243.179688 Z M 160.578125 243.179688 "/></clipPath><filter x="0%" y="0%" width="100%" filterUnits="objectBoundingBox" id="8242e4f3d2" height="100%"><feColorMatrix values="0 0 0 0 1 0 0 0 0 1 0 0 0 0 1 0 0 0 1 0" type="matrix" in="SourceGraphic"/></filter><clipPath id="cb2b810eda"><path d="M 13 12 L 176 12 L 176 175 L 13 175 Z M 13 12 "/></clipPath><clipPath id="54e39d45da"><path d="M 187.339844 93.605469 L 94.191406 186.753906 L 1.042969 93.605469 L 94.191406 0.457031 Z M 187.339844 93.605469 "/></clipPath><clipPath id="04b0e5b12f"><path d="M 166.660156 114.289062 L 114.875 166.070312 C 109.390625 171.558594 101.949219 174.636719 94.191406 174.636719 C 86.433594 174.636719 78.996094 171.558594 73.511719 166.070312 L 21.726562 114.289062 C 16.242188 108.800781 13.160156 101.363281 13.160156 93.605469 C 13.160156 85.847656 16.242188 78.40625 21.726562 72.921875 L 73.511719 21.140625 C 78.996094 15.652344 86.433594 12.570312 94.191406 12.570312 C 101.949219 12.570312 109.390625 15.652344 114.875 21.140625 L 166.660156 72.921875 C 172.144531 78.40625 175.226562 85.847656 175.226562 93.605469 C 175.226562 101.363281 172.144531 108.800781 166.660156 114.289062 Z M 166.660156 114.289062 "/></clipPath><clipPath id="ff38de33c4"><rect x="0" width="188" y="0" height="187"/></clipPath><clipPath id="bb3c39c22f"><path d="M 173 109 L 349 109 L 349 285 L 173 285 Z M 173 109 "/></clipPath><clipPath id="7f01c110e0"><path d="M 354.140625 196.605469 L 260.992188 289.753906 L 167.84375 196.605469 L 260.992188 103.457031 Z M 354.140625 196.605469 "/></clipPath><clipPath id="a261dd8e72"><path d="M 344.59375 206.152344 L 270.539062 280.207031 C 268.007812 282.738281 264.574219 284.164062 260.992188 284.164062 C 257.410156 284.164062 253.976562 282.738281 251.445312 280.207031 L 177.390625 206.152344 C 174.855469 203.621094 173.433594 200.1875 173.433594 196.605469 C 173.433594 193.023438 174.855469 189.589844 177.390625 187.058594 L 251.445312 113.003906 C 253.976562 110.46875 257.410156 109.046875 260.992188 109.046875 C 264.574219 109.046875 268.007812 110.46875 270.539062 113.003906 L 344.59375 187.058594 C 347.125 189.589844 348.550781 193.023438 348.550781 196.605469 C 348.550781 200.1875 347.125 203.621094 344.59375 206.152344 Z M 344.59375 206.152344 "/></clipPath></defs><g id="e89c88056f"><g clip-rule="nonzero" clip-path="url(#fa730d1882)"><g clip-rule="nonzero" clip-path="url(#658a3b496c)"><g clip-rule="nonzero" clip-path="url(#898b45ac4e)"><path style=" stroke:none;fill-rule:nonzero;fill:#deeee1;fill-opacity:1;" d="M 207.152344 196.605469 L 114.003906 289.753906 L 20.855469 196.605469 L 114.003906 103.457031 Z M 207.152344 196.605469 "/></g></g></g><g mask="url(#ff15295b65)" transform="matrix(1,0,0,1,97,103)"><g clip-path="url(#ff38de33c4)"><g clip-rule="nonzero" clip-path="url(#cb2b810eda)"><g clip-rule="nonzero" clip-path="url(#54e39d45da)"><g clip-rule="nonzero" clip-path="url(#04b0e5b12f)"><path style=" stroke:none;fill-rule:nonzero;fill:#91c89c;fill-opacity:1;" d="M 187.339844 93.605469 L 94.191406 186.753906 L 1.042969 93.605469 L 94.191406 0.457031 Z M 187.339844 93.605469 "/></g></g></g></g><mask id="ff15295b65"><g filter="url(#8242e4f3d2)"><rect x="0" width="375" y="0" height="374.999991" style="fill:#000000;fill-opacity:0.74;stroke:none;"/></g></mask></g><g clip-rule="nonzero" clip-path="url(#bb3c39c22f)"><g clip-rule="nonzero" clip-path="url(#7f01c110e0)"><g clip-rule="nonzero" clip-path="url(#a261dd8e72)"><path style=" stroke:none;fill-rule:nonzero;fill:#91c89c;fill-opacity:1;" d="M 354.140625 196.605469 L 260.992188 289.753906 L 167.84375 196.605469 L 260.992188 103.457031 Z M 354.140625 196.605469 "/></g></g></g></g></svg>