<svg xmlns="http://www.w3.org/2000/svg" xmlns:xlink="http://www.w3.org/1999/xlink" width="500" zoomAndPan="magnify" viewBox="0 0 375 374.999991" height="500" preserveAspectRatio="xMidYMid meet" version="1.2"><defs><clipPath id="dc11ddb679"><path d="M 195 130 L 327 130 L 327 263 L 195 263 Z M 195 130 "/></clipPath><clipPath id="8e29c396a5"><path d="M 167.847656 196.605469 L 260.996094 103.457031 L 354.144531 196.605469 L 260.996094 289.753906 Z M 167.847656 196.605469 "/></clipPath><clipPath id="97b8b611e7"><path d="M 214.421875 150.03125 C 226.773438 137.679688 243.527344 130.738281 260.996094 130.738281 C 278.464844 130.738281 295.21875 137.679688 307.570312 150.03125 C 319.921875 162.382812 326.859375 179.136719 326.859375 196.605469 C 326.859375 214.074219 319.921875 230.828125 307.570312 243.179688 C 295.21875 255.53125 278.464844 262.472656 260.996094 262.472656 C 243.527344 262.472656 226.773438 255.53125 214.421875 243.179688 C 202.066406 230.828125 195.128906 214.074219 195.128906 196.605469 C 195.128906 179.136719 202.066406 162.382812 214.421875 150.03125 Z M 214.421875 150.03125 "/></clipPath><filter x="0%" y="0%" width="100%" filterUnits="objectBoundingBox" id="edaefa2376" height="100%"><feColorMatrix values="0 0 0 0 1 0 0 0 0 1 0 0 0 0 1 0 0 0 1 0" type="matrix" in="SourceGraphic"/></filter><clipPath id="4b56e1618a"><path d="M 12 12 L 175 12 L 175 175 L 12 175 Z M 12 12 "/></clipPath><clipPath id="3f0dfea75a"><path d="M 0.65625 93.605469 L 93.804688 0.457031 L 186.953125 93.605469 L 93.804688 186.753906 Z M 0.65625 93.605469 "/></clipPath><clipPath id="6698356945"><path d="M 21.339844 72.921875 L 73.121094 21.140625 C 78.609375 15.652344 86.046875 12.570312 93.804688 12.570312 C 101.5625 12.570312 109.003906 15.652344 114.488281 21.140625 L 166.269531 72.921875 C 171.757812 78.40625 174.839844 85.847656 174.839844 93.605469 C 174.839844 101.363281 171.757812 108.800781 166.269531 114.289062 L 114.488281 166.070312 C 109.003906 171.558594 101.5625 174.636719 93.804688 174.636719 C 86.046875 174.636719 78.609375 171.558594 73.121094 166.070312 L 21.339844 114.289062 C 15.855469 108.800781 12.773438 101.363281 12.773438 93.605469 C 12.773438 85.847656 15.855469 78.40625 21.339844 72.921875 Z M 21.339844 72.921875 "/></clipPath><clipPath id="dda4ff1d1d"><rect x="0" width="187" y="0" height="187"/></clipPath><clipPath id="8b25c7c380"><path d="M 26 109 L 202 109 L 202 285 L 26 285 Z M 26 109 "/></clipPath><clipPath id="51f532831c"><path d="M 20.855469 196.605469 L 114.007812 103.457031 L 207.15625 196.605469 L 114.007812 289.753906 Z M 20.855469 196.605469 "/></clipPath><clipPath id="25cd3599b3"><path d="M 30.402344 187.058594 L 104.460938 113.003906 C 106.992188 110.46875 110.425781 109.046875 114.007812 109.046875 C 117.585938 109.046875 121.019531 110.46875 123.550781 113.003906 L 197.609375 187.058594 C 200.140625 189.589844 201.5625 193.023438 201.5625 196.605469 C 201.5625 200.1875 200.140625 203.621094 197.609375 206.152344 L 123.550781 280.207031 C 121.019531 282.738281 117.585938 284.164062 114.007812 284.164062 C 110.425781 284.164062 106.992188 282.738281 104.460938 280.207031 L 30.402344 206.152344 C 27.871094 203.621094 26.449219 200.1875 26.449219 196.605469 C 26.449219 193.023438 27.871094 189.589844 30.402344 187.058594 Z M 30.402344 187.058594 "/></clipPath></defs><g id="3f5724bbcb"><g clip-rule="nonzero" clip-path="url(#dc11ddb679)"><g clip-rule="nonzero" clip-path="url(#8e29c396a5)"><g clip-rule="nonzero" clip-path="url(#97b8b611e7)"><path style=" stroke:none;fill-rule:nonzero;fill:#cdcae5;fill-opacity:1;" d="M 167.847656 196.605469 L 260.996094 103.457031 L 354.144531 196.605469 L 260.996094 289.753906 Z M 167.847656 196.605469 "/></g></g></g><g mask="url(#9a1839bc7e)" transform="matrix(1,0,0,1,90,103)"><g clip-path="url(#dda4ff1d1d)"><g clip-rule="nonzero" clip-path="url(#4b56e1618a)"><g clip-rule="nonzero" clip-path="url(#3f0dfea75a)"><g clip-rule="nonzero" clip-path="url(#6698356945)"><path style=" stroke:none;fill-rule:nonzero;fill:#584faa;fill-opacity:1;" d="M 0.65625 93.605469 L 93.804688 0.457031 L 186.953125 93.605469 L 93.804688 186.753906 Z M 0.65625 93.605469 "/></g></g></g></g><mask id="9a1839bc7e"><g filter="url(#edaefa2376)"><rect x="0" width="375" y="0" height="374.999991" style="fill:#000000;fill-opacity:0.74;stroke:none;"/></g></mask></g><g clip-rule="nonzero" clip-path="url(#8b25c7c380)"><g clip-rule="nonzero" clip-path="url(#51f532831c)"><g clip-rule="nonzero" clip-path="url(#25cd3599b3)"><path style=" stroke:none;fill-rule:nonzero;fill:#584faa;fill-opacity:1;" d="M 20.855469 196.605469 L 114.007812 103.457031 L 207.15625 196.605469 L 114.007812 289.753906 Z M 20.855469 196.605469 "/></g></g></g></g></svg>