<svg viewBox="0 0 81 59" xmlns="http://www.w3.org/2000/svg">
  <path fill="#514A9B" d="M74.23 0H14.3a6.8 6.8 0 0 0-6.77 6.8v7.57H6.69A6.7 6.7 0 0 0 0 21.1v29.35A6.7 6.7 0 0 0 6.69 57.17H18.86a6.7 6.7 0 0 0 6.69-6.73h16.89v4.89h-6.69a1.83 1.83 0 0 0 0 3.67h17.04a1.83 1.83 0 0 0 0-3.67h-6.69v-4.89h28.14a6.8 6.8 0 0 0 6.77-6.8V6.8A6.8 6.8 0 0 0 74.23 0ZM21.9 50.44a3.04 3.04 0 0 1-3.04 3.06H6.69A3.04 3.04 0 0 1 3.65 50.44V21.1a3.04 3.04 0 0 1 3.04-3.06H18.86a3.04 3.04 0 0 1 3.04 3.06v29.34Zm55.45-6.8a3.13 3.13 0 0 1-3.12 3.13H25.55V21.1a6.7 6.7 0 0 0-6.69-6.73h-7.68V6.8a3.13 3.13 0 0 1 3.12-3.13h59.93A3.13 3.13 0 0 1 77.35 6.8v36.84Z"/>
</svg>
