<svg width="94" height="94" viewBox="0 0 94 94" fill="none" xmlns="http://www.w3.org/2000/svg">
<path fill-rule="evenodd" clip-rule="evenodd" d="M15.992 0H77.496C86.2968 0 93.488 7.1914 93.488 15.992V77.496C93.488 86.2968 86.2966 93.488 77.496 93.488L15.992 93.4841C7.1912 93.4841 0 86.2927 0 77.4921V15.9921C0 7.19129 7.1914 0 15.992 0ZM43.863 24.344V43.864H24.343C20.55 43.864 20.55 49.6257 24.343 49.6257L43.863 49.6218V69.1418C43.863 72.9348 49.6247 72.9348 49.6247 69.1418L49.6208 49.6218H69.1408C72.9338 49.6218 72.9338 43.8601 69.1408 43.8601L49.6208 43.864V24.344C49.6208 20.551 43.863 20.551 43.863 24.344ZM77.496 5.758H15.992C10.3709 5.758 5.762 10.3674 5.762 15.988V77.492C5.762 83.1131 10.3714 87.722 15.992 87.722H77.496C83.1171 87.722 87.726 83.1126 87.726 77.492V15.992C87.726 10.3709 83.1127 5.758 77.496 5.758Z" fill="white"/>
</svg>
