<svg width="64" height="59" viewBox="0 0 64 59" fill="none" xmlns="http://www.w3.org/2000/svg">
<path fill-rule="evenodd" clip-rule="evenodd" d="M27.5329 6.61924C27.555 6.64485 27.5716 6.67558 27.5882 6.70375L46.2523 36.6141C46.28 36.6525 46.3049 36.6935 46.327 36.737C46.9304 37.6436 48.2036 37.9459 49.2029 37.4183L49.4465 37.2877C49.4575 37.28 49.4686 37.2749 49.4824 37.2672H49.4797C50.4789 36.7294 50.8332 35.5513 50.2796 34.6139L50.2602 34.5857L31.5267 4.56265C31.5101 4.5396 31.4963 4.51399 31.4824 4.49094C30.8901 3.59456 29.6473 3.28209 28.6481 3.77899C28.6149 3.79948 28.5789 3.81741 28.5429 3.83277L28.3575 3.9301V3.93266C28.3464 3.93778 28.3353 3.94546 28.3243 3.95058C27.325 4.49096 26.9707 5.66905 27.5271 6.60895L27.5326 6.61663L27.5329 6.61924ZM12.4784 25.4252L4.34383 29.7687C0.208617 31.9968 -1.22244 36.8882 1.13587 40.74C1.14971 40.763 1.16631 40.7861 1.18015 40.8117C3.59932 44.6149 8.86968 45.921 13.0184 43.7441L13.0516 43.7262L21.1862 39.3801L12.4784 25.4252ZM22.4899 38.9324L13.5469 24.6037L26.8937 8.13111L44.5807 36.4738L22.4871 38.9324H22.4899ZM26.3151 53.172L26.9711 54.222L26.9905 54.2502L26.9877 54.2476C27.5164 55.144 27.1815 56.2683 26.2266 56.7856L22.5923 58.7269H22.5951C22.5619 58.7422 22.5314 58.7576 22.5037 58.7755C21.5488 59.2493 20.3642 58.9497 19.7967 58.0968C19.7829 58.0661 19.7635 58.0379 19.7441 58.0123L11.9717 45.5685C12.5696 45.379 13.1481 45.1357 13.6961 44.8463L13.7376 44.8258L19.2651 41.8755L20.7459 44.2521L17.668 45.8989C17.5102 45.9808 17.3967 46.1217 17.3497 46.283C17.3026 46.4469 17.3275 46.6185 17.4189 46.7645L22.3014 54.5861C22.3928 54.7321 22.5422 54.8371 22.7166 54.8806C22.8938 54.9242 23.082 54.9011 23.237 54.8166L26.3151 53.172ZM21.4326 45.353L18.9498 46.677L23.1431 53.3972L25.626 52.0706L21.4326 45.353ZM39.3356 14.5385C41.8959 13.5398 44.8603 14.4617 46.2526 16.6872L46.2719 16.718C47.6338 18.9409 47.0082 21.7581 44.8077 23.305L39.3356 14.536L39.3356 14.5385ZM50.7168 15.0354C50.3875 15.2095 49.9695 15.1045 49.7813 14.8023C49.5931 14.4976 49.7066 14.1108 50.0332 13.9367L56.9668 10.2335C57.2962 10.0593 57.7141 10.1618 57.9023 10.4665C58.0906 10.7687 57.9771 11.1555 57.6505 11.3296L50.7141 15.0328L50.7168 15.0354ZM46.947 7.36522C46.7588 7.66742 46.3408 7.77242 46.0142 7.59827C45.6848 7.42412 45.5713 7.0374 45.7595 6.73265L49.7619 0.317213C49.9501 0.0150089 50.3708 -0.0899898 50.6974 0.0841577C51.0268 0.258312 51.1375 0.645026 50.9493 0.949781L46.947 7.36522ZM55.3252 22.0604C55.1398 22.0681 54.9599 22.0015 54.827 21.8837C54.6914 21.7633 54.6167 21.5969 54.6167 21.4253C54.6167 21.2537 54.6914 21.0872 54.827 20.9669C54.9599 20.849 55.1398 20.7825 55.3252 20.7901H63.3329C63.7038 20.8004 64 21.0821 64 21.4253C64 21.7685 63.7038 22.0502 63.3329 22.0604H55.3252Z" fill="black"/>
</svg>
