<svg width="95" height="95" viewBox="0 0 95 95" fill="none" xmlns="http://www.w3.org/2000/svg">
<path d="M47.5 0C34.9022 0 22.8204 5.00445 13.9124 13.9124C5.00445 22.8204 0 34.9022 0 47.5C0 60.0978 5.00445 72.1796 13.9124 81.0876C22.8204 89.9955 34.9022 95 47.5 95C53.7378 95 59.9145 93.7714 65.6775 91.3843C71.4404 88.9972 76.6768 85.4984 81.0876 81.0876C85.4984 76.6768 88.9972 71.4404 91.3843 65.6775C93.7714 59.9145 95 53.7378 95 47.5C95 41.2622 93.7714 35.0855 91.3843 29.3225C88.9972 23.5596 85.4984 18.3232 81.0876 13.9124C76.6768 9.50165 71.4404 6.00282 65.6775 3.61572C59.9145 1.22862 53.7378 0 47.5 0ZM61.13 51.88L42.24 70.77C41.6898 71.3196 41.0367 71.7554 40.318 72.0526C39.5993 72.3498 38.8292 72.5025 38.0515 72.502C37.2738 72.5016 36.5038 72.3479 35.7855 72.0499C35.0672 71.7518 34.4146 71.3152 33.865 70.765C33.3154 70.2148 32.8796 69.5617 32.5824 68.843C32.2852 68.1243 32.1325 67.3542 32.133 66.5765C32.1339 65.0058 32.7587 63.4999 33.87 62.39L48.77 47.5L33.87 32.61C32.7587 31.5001 32.1339 29.9942 32.133 28.4235C32.132 26.8529 32.7551 25.3463 33.865 24.235C34.9749 23.1237 36.4808 22.4989 38.0515 22.498C39.6221 22.497 41.1287 23.1201 42.24 24.23L61.13 43.12C61.7037 43.6922 62.1533 44.3763 62.451 45.1299C62.7486 45.8835 62.8878 46.6903 62.86 47.5V47.69C62.861 49.2607 62.2388 50.7676 61.13 51.88Z" fill="black"/>
</svg>
