<svg width="60" height="55" viewBox="0 0 60 55" fill="none" xmlns="http://www.w3.org/2000/svg">
<path d="M27.4286 33.8462H15.4293V21.1538H27.4286V33.8462ZM60 4.9368V50.0632C59.9839 52.7841 57.3064 54.9841 54.0019 55H5.99809C2.69371 54.9841 0.0161285 52.7842 0 50.0632V4.9368C0.0160718 2.21591 2.69363 0.0159077 5.99809 0H54.0019C57.3063 0.0158657 59.9839 2.21584 60 4.9368ZM10.2862 35.9615C10.3023 37.1223 11.4434 38.0611 12.8577 38.0769H30.0001C31.4112 38.0611 32.5523 37.1223 32.5716 35.9615V19.0385C32.5523 17.8777 31.4112 16.9389 30.0001 16.9231H12.8577C11.4434 16.9389 10.3023 17.8777 10.2862 19.0385V35.9615ZM49.714 44.4231C49.6979 43.2623 48.5569 42.3235 47.1425 42.3077H12.8578C11.437 42.3077 10.2863 43.2543 10.2863 44.4231C10.2863 45.5919 11.437 46.5385 12.8578 46.5385H47.1425C48.5569 46.5226 49.698 45.5839 49.714 44.4231ZM49.714 35.9615C49.6979 34.8008 48.5569 33.862 47.1425 33.8462H40.2862C38.8654 33.8462 37.7147 34.7928 37.7147 35.9615C37.7147 37.1303 38.8654 38.0769 40.2862 38.0769H47.1425C48.5569 38.0611 49.698 37.1223 49.714 35.9615ZM49.714 27.5C49.6979 26.3392 48.5569 25.4005 47.1425 25.3846H40.2862C38.8654 25.3846 37.7147 26.3312 37.7147 27.5C37.7147 28.6688 38.8654 29.6154 40.2862 29.6154H47.1425C48.5569 29.5995 49.698 28.6608 49.714 27.5ZM49.714 19.0385C49.6979 17.8777 48.5569 16.9389 47.1425 16.9231H40.2862C38.8654 16.9231 37.7147 17.8697 37.7147 19.0385C37.7147 20.2072 38.8654 21.1538 40.2862 21.1538H47.1425C48.5569 21.138 49.698 20.1992 49.714 19.0385ZM49.714 10.5769C49.6979 9.41614 48.5569 8.47738 47.1425 8.46154H12.8578C11.437 8.46154 10.2863 9.40815 10.2863 10.5769C10.2863 11.7457 11.437 12.6923 12.8578 12.6923H47.1425C48.5569 12.6764 49.698 11.7377 49.714 10.5769Z" fill="black"/>
</svg>
