<svg width="60" height="55" viewBox="0 0 60 55" fill="none" xmlns="http://www.w3.org/2000/svg">
<path d="M52.9687 0H7.03125C3.14801 0 0 2.88567 0 6.44531V40.8203C0 44.38 3.14801 47.2656 7.03125 47.2656H20.7769C21.5605 47.2656 22.2923 47.6246 22.727 48.2223L26.3562 53.2124C27.1684 54.3292 28.5357 55 30 55C31.4643 55 32.8316 54.3292 33.6438 53.2124L37.273 48.2223C37.7077 47.6246 38.4395 47.2656 39.2231 47.2656H52.9687C56.852 47.2656 60 44.38 60 40.8203V6.44531C60 2.88567 56.852 0 52.9687 0ZM12.6562 27.9297C10.0675 27.9297 7.96875 26.0059 7.96875 23.6328C7.96875 21.2598 10.0675 19.3359 12.6562 19.3359C15.245 19.3359 17.3437 21.2598 17.3437 23.6328C17.3437 26.0059 15.245 27.9297 12.6562 27.9297ZM30 27.9297C27.4112 27.9297 25.3125 26.0059 25.3125 23.6328C25.3125 21.2598 27.4112 19.3359 30 19.3359C32.5888 19.3359 34.6875 21.2598 34.6875 23.6328C34.6875 26.0059 32.5888 27.9297 30 27.9297ZM47.3437 27.9297C44.755 27.9297 42.6562 26.0059 42.6562 23.6328C42.6562 21.2598 44.755 19.3359 47.3437 19.3359C49.9325 19.3359 52.0312 21.2598 52.0312 23.6328C52.0312 26.0059 49.9325 27.9297 47.3437 27.9297Z" fill="black"/>
</svg>
