<svg width="52" height="55" viewBox="0 0 52 55" fill="none" xmlns="http://www.w3.org/2000/svg">
<path d="M52 21.6071V49.1071C52 52.3605 49.3125 55 46 55H40C36.6875 55 34 52.3605 34 49.1071V33.3929C34 30.1395 36.6875 27.5 40 27.5H48V21.6071C47.995 16.9199 46.0975 12.4269 42.7225 9.11177C39.3476 5.79706 34.7725 3.93341 30 3.92851H22C17.2275 3.93342 12.6528 5.79706 9.27748 9.11177C5.90251 12.4265 4.00498 16.9199 3.99999 21.6071V27.5H12C15.3125 27.5 18 30.1395 18 33.3929V51.0714H25.9999C27.105 51.0714 27.9999 51.9504 27.9999 53.0357C27.9999 54.121 27.105 55 25.9999 55H5.99999C2.68748 55 0 52.3605 0 49.1071V21.6071C0.00750014 15.8788 2.32748 10.3859 6.45246 6.33726C10.575 2.28593 16.1676 0.00754286 21.9999 0H29.9999C35.8324 0.00736623 41.4252 2.28593 45.5474 6.33726C49.6724 10.3861 51.9923 15.879 52 21.6071Z" fill="black"/>
</svg>
