<svg width="93" height="52" viewBox="0 0 93 52" fill="none" xmlns="http://www.w3.org/2000/svg">
<path fill-rule="evenodd" clip-rule="evenodd" d="M91.8134 26.9961L91.8017 27.0156C87.5673 35.4961 80.5947 41.8086 72.2787 45.9536C64.3451 49.9067 55.1767 51.8872 46.0287 51.8872C36.8807 51.8872 27.7127 49.9106 19.7787 45.9536C11.4584 41.8052 4.47767 35.4846 0.247666 26.9966C-0.0960839 26.3052 -0.0687439 25.5278 0.247666 24.8911L0.259385 24.8716C4.49378 16.3911 11.4664 10.0786 19.7794 5.9336C27.7169 1.9805 36.8814 0 46.0294 0C55.1774 0 64.3454 1.9766 72.2794 5.9336C80.5997 10.082 87.5844 16.4026 91.8104 24.8906C92.1541 25.582 92.1268 26.3594 91.8104 26.9961H91.8134ZM60.3794 11.5941C56.7075 7.9222 51.6333 5.6527 46.0314 5.6527C40.4259 5.6527 35.3554 7.9222 31.6834 11.5941C28.0114 15.266 25.742 20.3402 25.742 25.9421C25.742 31.5476 28.0115 36.6181 31.6834 40.2901C35.3553 43.9621 40.4295 46.2315 46.0314 46.2315C51.6369 46.2315 56.7074 43.962 60.3794 40.2901C64.0513 36.6182 66.3208 31.544 66.3208 25.9421C66.3208 20.3366 64.0513 15.2661 60.3794 11.5941ZM46.0314 13.0746C49.5861 13.0746 52.8009 14.516 55.1291 16.8441C57.4572 19.1722 58.8986 22.391 58.8986 25.9418C58.8986 29.4926 57.4572 32.7113 55.1291 35.0395C52.801 37.3676 49.5822 38.809 46.0314 38.809C42.4806 38.809 39.2619 37.3676 36.9337 35.0395C34.6055 32.7114 33.1642 29.4926 33.1642 25.9418C33.1642 22.3871 34.6056 19.1723 36.9337 16.8441C39.2618 14.5159 42.4806 13.0746 46.0314 13.0746Z" fill="#686868"/>
</svg>
