<svg width="93" height="70" viewBox="0 0 93 70" fill="none" xmlns="http://www.w3.org/2000/svg">
<path fill-rule="evenodd" clip-rule="evenodd" d="M91.8134 34.9961L91.8017 35.0156C87.5673 43.4961 80.5947 49.8086 72.2787 53.9536C64.3451 57.9067 55.1767 59.8872 46.0287 59.8872C36.8807 59.8872 27.7127 57.9106 19.7787 53.9536C11.4584 49.8052 4.47767 43.4846 0.247666 34.9966C-0.0960839 34.3052 -0.0687439 33.5278 0.247666 32.8911L0.259385 32.8716C4.49378 24.3911 11.4664 18.0786 19.7794 13.9336C27.7169 9.9805 36.8814 8 46.0294 8C55.1774 8 64.3454 9.9766 72.2794 13.9336C80.5997 18.082 87.5844 24.4026 91.8104 32.8906C92.1541 33.582 92.1268 34.3594 91.8104 34.9961H91.8134ZM60.3794 19.5941C56.7075 15.9222 51.6333 13.6527 46.0314 13.6527C40.4259 13.6527 35.3554 15.9222 31.6834 19.5941C28.0114 23.266 25.742 28.3402 25.742 33.9421C25.742 39.5476 28.0115 44.6181 31.6834 48.2901C35.3553 51.9621 40.4295 54.2315 46.0314 54.2315C51.6369 54.2315 56.7074 51.962 60.3794 48.2901C64.0513 44.6182 66.3208 39.544 66.3208 33.9421C66.3208 28.3366 64.0513 23.2661 60.3794 19.5941ZM46.0314 21.0746C49.5861 21.0746 52.8009 22.516 55.1291 24.8441C57.4572 27.1722 58.8986 30.391 58.8986 33.9418C58.8986 37.4926 57.4572 40.7113 55.1291 43.0395C52.801 45.3676 49.5822 46.809 46.0314 46.809C42.4806 46.809 39.2619 45.3676 36.9337 43.0395C34.6055 40.7114 33.1642 37.4926 33.1642 33.9418C33.1642 30.3871 34.6056 27.1723 36.9337 24.8441C39.2618 22.5159 42.4806 21.0746 46.0314 21.0746Z" fill="#686868"/>
<path d="M78 3L14 67" stroke="#686868" stroke-width="5" stroke-linecap="round"/>
</svg>
