<svg width="56" height="51" viewBox="0 0 56 51" fill="none" xmlns="http://www.w3.org/2000/svg">
<path d="M20.3903 0C15.1564 3.85279e-06 9.92 2.12066 5.9318 6.35297C-0.746407 13.444 -1.88224 24.4369 3.01541 32.9583L1.46333 40.5909C1.43169 40.7541 1.43884 40.9231 1.48415 41.0826C1.52945 41.2421 1.61149 41.3871 1.72281 41.5045C1.83414 41.6218 1.97125 41.7078 2.12173 41.7546C2.2722 41.8014 2.43129 41.8076 2.58459 41.7727L9.7724 40.1311C17.8026 45.3335 28.159 44.1226 34.8432 37.0339C42.8198 28.5694 42.8198 14.8174 34.8432 6.35297C30.8551 2.12066 25.6242 -3.85278e-06 20.3903 0ZM20.8138 10.3228C20.8732 10.3222 20.9327 10.3219 20.9921 10.3228C22.8104 10.351 24.5917 11.127 25.9227 12.5631C27.9508 14.7515 28.5499 18.0448 27.4545 20.8981C26.3592 23.7513 23.7697 25.6232 20.8927 25.6232C20.5671 25.6232 20.2489 25.7615 20.0145 26.0145C19.7799 26.2674 19.6463 26.6134 19.6463 26.9771C19.6463 26.9765 19.6463 26.9778 19.6463 26.9771C19.6463 26.9778 19.6463 26.9804 19.6463 26.981C19.6463 26.9804 19.6463 26.9817 19.6463 26.981C19.6463 26.9817 19.6463 26.9843 19.6463 26.985C19.6463 26.9843 19.6463 26.9856 19.6463 26.985C19.6463 26.9856 19.6463 26.9882 19.6463 26.9889C19.6463 26.9882 19.6463 26.9895 19.6463 26.9889C19.6463 26.9895 19.6463 26.9921 19.6463 26.9928C19.6463 26.9921 19.6463 26.9934 19.6463 26.9928C19.6463 26.9934 19.6463 26.996 19.6463 26.9967C19.6463 26.996 19.6463 26.9973 19.6463 26.9967C19.6463 26.9973 19.6463 27 19.6463 27.0006C19.6463 27 19.6463 27.0013 19.6463 27.0006C19.6463 27.0013 19.6463 27.0039 19.6463 27.0045C19.6463 27.0039 19.6463 27.0052 19.6463 27.0045C19.6463 27.0052 19.6463 27.0078 19.6463 27.0084C19.6463 27.0078 19.6463 27.0091 19.6463 27.0084C19.6463 27.0091 19.6463 27.0117 19.6463 27.0123C19.6463 27.0117 19.6463 27.013 19.6463 27.0123V29.0765C19.6453 29.3409 19.5461 29.5941 19.3702 29.781C19.1943 29.9679 18.956 30.0733 18.7073 30.0744C18.5835 30.0749 18.4608 30.0495 18.3462 29.9996C18.2317 29.9498 18.1275 29.8764 18.0396 29.7837C17.9517 29.6911 17.8819 29.5809 17.8341 29.4596C17.7862 29.3382 17.7614 29.2081 17.7609 29.0765V26.9771C17.7609 26.0908 18.0876 25.2406 18.6723 24.6097C19.257 23.9788 20.06 23.6197 20.8927 23.6197C23.0009 23.6197 24.9022 22.2533 25.7146 20.137C26.5271 18.0207 26.0703 15.5909 24.5731 13.9758C23.0762 12.3606 20.8452 11.8774 18.8951 12.749C16.9449 13.6206 15.673 15.6758 15.673 17.9691C15.6735 18.1013 15.6494 18.2323 15.602 18.3546C15.5546 18.4768 15.4849 18.5879 15.397 18.6814C15.309 18.7749 15.2045 18.8489 15.0894 18.8993C14.9744 18.9496 14.8511 18.9753 14.7267 18.9748C14.6029 18.9743 14.4804 18.9478 14.3663 18.897C14.2521 18.8462 14.1484 18.772 14.0612 18.6786C13.974 18.5852 13.905 18.4745 13.8581 18.3528C13.8111 18.231 13.7872 18.1007 13.7877 17.9691C13.7877 14.8834 15.5086 12.0947 18.1641 10.9079C19.0199 10.5254 19.9198 10.3332 20.8138 10.3228ZM44.0324 16.3784C43.8604 16.3685 43.6892 16.4089 43.5373 16.4951C43.3854 16.5814 43.2586 16.7102 43.1707 16.8675L42.955 17.2667C42.8353 17.4773 42.7927 17.7273 42.8354 17.9691C44.2082 25.505 41.966 33.2687 36.8517 38.697C34.4324 41.2551 31.4766 43.1782 28.2296 44.3025C28.0131 44.3788 27.8299 44.5359 27.7141 44.7447L27.4839 45.1595C27.3735 45.3575 27.3306 45.59 27.3625 45.8177C27.3944 46.0454 27.4991 46.2544 27.659 46.4097C33.1455 51.7166 41.2431 52.4692 47.5672 48.4211L53.3355 49.7379C53.4898 49.7734 53.6499 49.7673 53.8013 49.72C53.9527 49.6727 54.0905 49.5858 54.2021 49.4672C54.3137 49.3486 54.3955 49.2022 54.44 49.0413C54.4845 48.8804 54.4903 48.7102 54.4568 48.5463L53.2103 42.4164C57.1679 35.4473 56.2315 26.4896 50.7819 20.7044C48.9543 18.7653 46.732 17.3054 44.2826 16.4312C44.2024 16.4018 44.1172 16.384 44.0324 16.3784ZM18.6504 31.1583C18.6577 31.1578 18.6685 31.1586 18.6758 31.1583C18.6867 31.1581 18.6958 31.1583 18.7066 31.1583C19.2917 31.1583 19.7745 31.6794 19.7745 32.3107C19.7745 32.942 19.2917 33.4592 18.7066 33.4592C18.1216 33.4592 17.6406 32.942 17.6406 32.3107C17.6406 31.699 18.0901 31.1892 18.6504 31.1583Z" fill="black"/>
</svg>
