<svg width="56" height="55" viewBox="0 0 56 55" fill="none" xmlns="http://www.w3.org/2000/svg">
<path d="M56 8.69543C56 7.9725 55.1881 7.38597 54.1875 7.38597C53.1821 7.38597 52.3749 7.9725 52.3749 8.69543V41.1186C52.3702 42.5133 50.8031 43.6488 48.8679 43.6488H27.7928V41.4663C27.7881 40.7468 26.9809 40.1637 25.9803 40.1569H16.3134C15.8366 40.1569 15.374 40.2933 15.0342 40.5388C14.6943 40.7843 14.5008 41.1185 14.5008 41.4663V43.6488H7.32143H7.32615C5.65523 43.7033 4.14477 42.9224 3.6775 41.763C3.51229 41.2106 3.71526 40.6342 4.22976 40.208C5.30124 39.4203 6.76454 38.9805 8.29384 38.9873H44.1339C47.3484 38.9873 49.9539 37.1015 49.9586 34.7793V5.67433C49.9491 2.54393 46.4373 0.0068092 42.1042 0H7.85436C3.52129 0.00681967 0.00942523 2.54393 0 5.67433V41.4488C0.00471987 41.725 0.047203 41.9978 0.122722 42.2706C0.910986 44.6645 3.91771 46.3354 7.32565 46.2672H14.505L14.5003 53.6875C14.5003 54.2126 14.9346 54.69 15.6048 54.8946C16.2751 55.1026 17.0492 54.9969 17.5731 54.6286L21.151 52.1666L24.7288 54.6286H24.7241C25.0592 54.8673 25.5124 55.0003 25.9797 54.9969C26.2251 54.9969 26.4612 54.9628 26.683 54.8912C27.3533 54.6866 27.7922 54.2126 27.7922 53.6875V46.2672H48.8673C52.8039 46.2604 55.99 43.9586 55.9994 41.118L56 8.69543ZM24.9644 30.1854C23.5577 30.1854 22.4155 29.3636 22.4155 28.344C22.4155 27.3277 23.5578 26.5025 24.9644 26.5025C26.3758 26.5025 27.518 27.3278 27.518 28.344C27.518 29.3636 26.3758 30.1854 24.9644 30.1854ZM19.4795 10.2301C21.8113 8.81494 25.0115 8.40578 27.8767 9.15252C30.7418 9.90274 32.8376 11.6965 33.3757 13.8618C34.0884 16.6 32.1532 19.3417 28.665 20.5318C27.4708 20.9922 26.744 21.8958 26.7769 22.8711V23.1508C26.7769 23.8737 25.9698 24.4602 24.9644 24.4602C23.9637 24.4602 23.1518 23.8737 23.1518 23.1508V22.8711C23.1141 20.8899 24.6435 19.0655 27.0932 18.1755C29.0048 17.5071 30.1141 16.0306 29.8403 14.5063C29.5618 12.9854 27.971 11.7612 25.8848 11.4713C24.4404 11.2804 22.9536 11.56 21.8254 12.2386C20.702 12.9104 20.0554 13.9095 20.0601 14.9632C20.0601 15.6861 19.2483 16.2727 18.2476 16.2727C17.2469 16.2727 16.435 15.6861 16.435 14.9632C16.4398 13.1389 17.5537 11.41 19.4795 10.2301Z" fill="black"/>
</svg>
