<svg width="88" height="88" viewBox="0 0 88 88" fill="none" xmlns="http://www.w3.org/2000/svg">
<path d="M37.5005 0H3.12549C1.40669 0 0.000488281 1.4062 0.000488281 3.125V46.875C0.000488281 48.375 1.09429 49.6875 2.56299 49.9375L36.938 56.1875C38.7818 56.5625 40.6255 55.0937 40.6255 53.125V3.125C40.6255 1.4062 39.2193 0 37.5005 0Z" fill="black"/>
<path d="M38.0625 62.562L3.6875 56.312C1.8125 55.9682 0 57.4058 0 59.3745V84.3745C0 86.0933 1.4062 87.4995 3.125 87.4995H37.5C39.2188 87.4995 40.625 86.0933 40.625 84.3745V65.6245C40.625 64.1245 39.5312 62.812 38.0625 62.562Z" fill="black"/>
<path d="M84.3755 0H50.0005C48.2817 0 46.8755 1.4062 46.8755 3.125V21.875C46.8755 23.375 47.9693 24.6875 49.438 24.9375L83.813 31.1875C85.6568 31.5625 87.5005 30.125 87.5005 28.125V3.125C87.5005 1.4062 86.0943 0 84.3755 0ZM81.2505 24.375L53.1255 19.25V6.219H81.2505V24.375Z" fill="black"/>
<path d="M84.9385 37.562L50.5635 31.312C48.6885 30.937 46.876 32.4058 46.876 34.3745V84.3745C46.876 86.0933 48.2822 87.4995 50.001 87.4995H84.376C86.0948 87.4995 87.501 86.0933 87.501 84.3745V40.6245C87.501 39.1245 86.4072 37.812 84.9385 37.562ZM81.251 81.25H53.126V38.125L81.251 43.25V81.281V81.25Z" fill="black"/>
</svg>
