<svg width="60" height="55" viewBox="0 0 60 55" fill="none" xmlns="http://www.w3.org/2000/svg">
<path d="M30.056 15.9939L6.72334 30.4656V30.469C6.12439 30.8339 5.46223 31.0998 4.76282 31.2533V44.6442C4.67726 50.274 9.57668 54.9048 15.7149 55H44.2855C50.4237 54.9045 55.3232 50.2738 55.2375 44.6442V31.2533C54.527 31.093 53.8574 30.8168 53.2584 30.4349L30.056 15.9939Z" fill="black"/>
<path d="M0.000688624 25.5527C-0.0253525 26.7632 0.688916 27.8851 1.84959 28.4681C2.30344 28.6966 2.81308 28.8193 3.33392 28.8159C3.97379 28.8125 4.59503 28.6352 5.1233 28.3078L28.3407 13.8362H28.3444C29.334 13.1883 30.6658 13.1883 31.6554 13.8362L54.8728 28.2913H54.8765C55.8437 28.9119 57.1124 28.9801 58.1502 28.4686C59.3071 27.8821 60.0177 26.7602 59.9991 25.5531V19.6676C60.0326 17.9115 59.11 16.2577 57.5439 15.2517L35.7369 1.65295L35.7332 1.64954C32.2883 -0.549846 27.7125 -0.549846 24.2678 1.64954L2.46081 15.2483L2.45709 15.2517C0.890948 16.2576 -0.0316916 17.9115 0.00183118 19.6676L0.000688624 25.5527Z" fill="black"/>
</svg>
