<svg width="51" height="55" viewBox="0 0 51 55" fill="none" xmlns="http://www.w3.org/2000/svg">
<path fill-rule="evenodd" clip-rule="evenodd" d="M25.803 15.2532C22.4721 15.2532 19.8171 18.0054 19.8171 21.3421C19.8171 24.6788 22.4718 27.4311 25.803 27.4311C29.1342 27.4311 31.789 24.6788 31.789 21.3421C31.789 18.0054 29.1342 15.2532 25.803 15.2532Z" fill="black"/>
<path fill-rule="evenodd" clip-rule="evenodd" d="M46.4593 50.3732C46.967 51.26 47.3906 51.3334 47.4725 51.3334C48.4789 51.3334 49.2939 52.1538 49.2939 53.1667C49.2939 54.1796 48.4789 55 47.4725 55H10.3248C6.37912 55 3.0414 52.3532 2.001 48.7233C1.83252 48.485 1.71868 48.2031 1.67997 47.8937C-0.451064 31.1416 -0.48755 22.9953 1.19047 7.65704C1.55703 4.31813 4.16397 1.65727 7.49056 1.24954C20.9988 -0.402728 30.1357 -0.430243 43.5664 1.24954C46.8359 1.65745 49.4084 4.24474 49.8275 7.51977C51.3871 19.7593 51.5715 27.0033 49.2697 40.6297C49.1194 41.5097 48.3612 42.1537 47.4733 42.1537C47.3913 42.1537 46.9678 42.2293 46.4601 43.1161C45.982 43.9526 45.6291 45.2313 45.6291 46.7438C45.6291 48.2563 45.982 49.535 46.4601 50.3738L46.4593 50.3732ZM9.63449 41.4131C22.0178 40.0358 30.6558 40.1069 43.126 41.6125C42.3883 43.0493 41.9853 44.8529 41.9853 46.7435C41.9853 48.4049 42.2972 49.9953 42.871 51.3336H10.3243C7.54437 51.3336 5.30626 49.081 5.30626 46.3195C5.30626 43.8033 7.16644 41.6881 9.63449 41.4131ZM23.8346 7.33403C23.0127 7.33403 22.2932 7.88632 22.0769 8.68382L21.5465 10.6363C20.4672 11.0602 19.4746 11.6515 18.5935 12.378L16.6969 11.8784C15.9 11.6675 15.0599 12.0228 14.6524 12.7446L12.988 15.694C12.5873 16.4021 12.6989 17.289 13.2612 17.8733L14.6523 19.3239C14.5636 19.8968 14.518 20.4858 14.518 21.0839C14.518 21.682 14.5636 22.2709 14.6523 22.8439L13.2612 24.2945C12.6989 24.8789 12.5873 25.7657 12.988 26.4738L14.6524 29.4232C15.0599 30.145 15.9 30.5002 16.6969 30.2894L18.5935 29.7898C19.4746 30.5163 20.4672 31.1075 21.5465 31.5315L22.0769 33.484C22.2932 34.2815 23.0127 34.8338 23.8346 34.8338H27.1632C27.9852 34.8338 28.7046 34.2815 28.9209 33.484L29.4514 31.5315C30.5306 31.1076 31.5233 30.5163 32.4044 29.7898L34.3009 30.2894C35.0978 30.5003 35.9379 30.145 36.3455 29.4232L38.0098 26.4738C38.4105 25.7657 38.299 24.8788 37.7366 24.2945L36.3455 22.8439C36.4343 22.271 36.4798 21.682 36.4798 21.0839C36.4798 20.4858 36.4343 19.8969 36.3455 19.3239L37.7366 17.8733C38.299 17.2889 38.4105 16.4021 38.0098 15.694L36.3455 12.7446C35.9379 12.0228 35.0978 11.6676 34.3009 11.8784L32.4044 12.378C31.5233 11.6515 30.5306 11.0603 29.4514 10.6363L28.9209 8.68382C28.7046 7.88631 27.9851 7.33403 27.1632 7.33403H23.8346Z" fill="black"/>
</svg>
