<svg width="60" height="55" viewBox="0 0 60 55" fill="none" xmlns="http://www.w3.org/2000/svg">
<path d="M55.1613 27.8615L44.3157 35.9597C40.2559 38.9644 35.3372 40.5955 30.2797 40.6141C25.2222 40.6326 20.2916 39.0378 16.2097 36.063L4.83871 27.7995L0 24.2738V45.7036C0.00183084 48.1686 0.985588 50.5321 2.73524 52.2751C4.4849 54.0182 6.85741 54.9982 9.3318 55H50.6682C53.1426 54.9982 55.5151 54.0182 57.2648 52.2751C59.0144 50.5321 59.9982 48.1686 60 45.7036V24.2463L55.1613 27.8615Z" fill="black"/>
<path d="M19.0784 32.2067C22.3232 34.5701 26.2429 35.8353 30.2625 35.8167C34.282 35.7981 38.1898 34.4967 41.4125 32.1034L55.1613 21.8361L59.9655 18.2553C59.7632 15.9372 58.6963 13.7788 56.9752 12.2058C55.2542 10.6328 53.0039 9.75933 50.6682 9.75774H43.3618V9.29636C43.3599 6.83137 42.3762 4.46787 40.6265 2.72486C38.8769 0.981845 36.5044 0.00182389 34.03 0H25.9701C23.4957 0.00182389 21.1232 0.981845 19.3735 2.72486C17.6239 4.46787 16.6401 6.83137 16.6383 9.29636V9.75774H9.33181C6.98423 9.75757 4.72296 10.6395 2.99953 12.2275C1.27609 13.8155 0.217301 15.9926 0.0345764 18.3242L4.87329 21.8292L19.0784 32.2067ZM21.477 9.29636C21.4788 8.1098 21.9528 6.97237 22.795 6.13334C23.6372 5.29432 24.779 4.82216 25.9701 4.82033H34.03C35.221 4.82216 36.3628 5.29432 37.205 6.13334C38.0473 6.97237 38.5212 8.1098 38.5231 9.29636V9.75774H21.477V9.29636Z" fill="black"/>
</svg>
