<svg width="79" height="90" viewBox="0 0 79 90" fill="none" xmlns="http://www.w3.org/2000/svg">
<path d="M41.4684 28.8254L54.9994 40.2944C57.9408 42.646 57.9408 47.06 54.9994 49.7046L41.4684 61.1736C39.9996 62.3494 37.6442 61.4666 37.6442 59.408V53.8182L3.8242 53.826C1.7656 53.826 0 52.0604 0 50.0018V40.2948C0 38.2362 1.7656 36.4706 3.8242 36.4706H37.6482V30.8808C37.3513 28.8261 39.7067 27.6496 41.4684 28.8254Z" fill="black"/>
<path d="M78.2334 11.1774V78.8254C78.2334 85.0012 73.2334 90.0014 67.0574 90.0014H22.6474C16.4716 90.0014 11.4714 85.0014 11.4714 78.8254V57.9424H32.9404V59.1182C32.9404 61.1768 33.8232 62.6494 34.999 64.1182C36.1748 65.294 37.9404 65.8838 39.706 65.8838C41.1748 65.8838 42.9404 65.294 44.1162 64.415L57.6472 52.946C59.9988 50.8874 61.4714 47.946 61.4714 45.0046C61.4714 42.0632 60.0026 38.8288 57.6472 37.0632L44.1162 25.5942C42.9404 24.7114 41.4678 24.1254 39.706 24.1254C35.8818 24.1254 32.9404 27.0668 32.9404 30.891V32.0668L11.4674 32.059V11.176C11.4674 5.0002 16.4674 0 22.6434 0H67.0534C73.2331 0.29297 78.2334 5 78.2334 11.176V11.1774Z" fill="black"/>
</svg>
