<svg width="51" height="52" viewBox="0 0 51 52" fill="none" xmlns="http://www.w3.org/2000/svg">
<path d="M46.3152 0H4.68476C2.0762 0 0 2.24622 0 4.99784V47.0022C0 49.7538 2.12944 52 4.68476 52H46.3152C48.9238 52 51 49.7538 51 47.0022V4.99784C51 2.24622 48.9238 0 46.3152 0ZM20.762 4.32397C20.762 3.42549 21.4541 2.63931 22.3591 2.63931H28.6942C29.5459 2.63931 30.2912 3.36933 30.2912 4.32397V7.63715C30.2912 8.53564 29.5992 9.32181 28.6942 9.32181H22.3591C21.5073 9.32181 20.762 8.59179 20.762 7.63715V4.32397ZM14.4269 47.676C14.4269 48.5745 13.7349 49.3607 12.8299 49.3607H6.54802C5.69624 49.3607 4.95094 48.6307 4.95094 47.676V44.3628C4.95094 43.4644 5.64301 42.6782 6.54802 42.6782H12.8831C13.7349 42.6782 14.4802 43.4082 14.4802 44.3628V47.676H14.4269ZM14.4269 7.63715C14.4269 8.53564 13.7349 9.32181 12.8299 9.32181H6.54802C5.69624 9.32181 4.95094 8.59179 4.95094 7.63715V4.32397C4.95094 3.42549 5.64301 2.63931 6.54802 2.63931H12.8831C13.7349 2.63931 14.4802 3.36933 14.4802 4.32397V7.63715H14.4269ZM30.238 47.676C30.238 48.5745 29.5459 49.3607 28.6409 49.3607H22.3591C21.5073 49.3607 20.762 48.6307 20.762 47.676V44.3628C20.762 43.4644 21.4541 42.6782 22.3591 42.6782H28.6942C29.5459 42.6782 30.2912 43.4082 30.2912 44.3628V47.676H30.238ZM32.1545 28.5831L21.7203 35.1533C21.1347 35.5464 20.5491 35.7149 20.0167 35.7149C18.7923 35.7149 17.5678 34.7603 17.5678 32.6825V19.3736C17.5678 17.2959 18.7923 16.3413 20.0167 16.3413C20.5491 16.3413 21.1347 16.5097 21.7203 16.9028L32.1013 23.473C33.1127 24.0907 33.6983 25.0454 33.6983 26.0562C33.6983 27.0108 33.1127 27.9654 32.1545 28.5831ZM46.0491 47.676C46.0491 48.5745 45.357 49.3607 44.452 49.3607H38.1701C37.3184 49.3607 36.5731 48.6307 36.5731 47.676V44.3628C36.5731 43.4644 37.2651 42.6782 38.1701 42.6782H44.5052C45.357 42.6782 46.1023 43.4082 46.1023 44.3628V47.676H46.0491ZM46.0491 7.63715C46.0491 8.53564 45.357 9.32181 44.452 9.32181H38.1701C37.3184 9.32181 36.5731 8.59179 36.5731 7.63715V4.32397C36.5731 3.42549 37.2651 2.63931 38.1701 2.63931H44.5052C45.357 2.63931 46.1023 3.36933 46.1023 4.32397V7.63715H46.0491Z" fill="black"/>
</svg>
