<svg width="88" height="88" viewBox="0 0 88 88" fill="none" xmlns="http://www.w3.org/2000/svg">
<path d="M1.7498 87.1876C2.1873 87.4063 2.65605 87.5001 3.1248 87.5001C3.8123 87.5001 4.4686 87.2813 5.031 86.8438L16.562 77.9688C24.312 84.125 33.874 87.5 43.75 87.5C67.875 87.5 87.5 67.875 87.5 43.75C87.5 19.625 67.875 0 43.75 0C19.625 0 0 19.625 0 43.75V84.375C0 85.5625 0.6873 86.6563 1.7498 87.1876ZM59.3748 40.6255C61.0936 40.6255 62.4998 42.0317 62.4998 43.7505C62.4998 45.4693 61.0936 46.8755 59.3748 46.8755C57.656 46.8755 56.2498 45.4693 56.2498 43.7505C56.2498 42.0317 57.656 40.6255 59.3748 40.6255ZM43.7498 40.6255C45.4686 40.6255 46.8748 42.0317 46.8748 43.7505C46.8748 45.4693 45.4686 46.8755 43.7498 46.8755C42.031 46.8755 40.6248 45.4693 40.6248 43.7505C40.6248 42.0317 42.031 40.6255 43.7498 40.6255ZM28.1248 40.6255C29.8436 40.6255 31.2498 42.0317 31.2498 43.7505C31.2498 45.4693 29.8436 46.8755 28.1248 46.8755C26.406 46.8755 24.9998 45.4693 24.9998 43.7505C24.9998 42.0317 26.406 40.6255 28.1248 40.6255Z" fill="black"/>
</svg>
