<svg width="53" height="52" viewBox="0 0 53 52" fill="none" xmlns="http://www.w3.org/2000/svg">
<path d="M46.0264 16.421H41.8423V6.84204C41.8423 3.06973 38.7136 0 34.8687 0H6.97362C3.12877 0 0 3.06973 0 6.84204V45.158C0 48.9308 3.12877 52 6.97362 52H46.0264C49.8718 52 53 48.9308 53 45.158V23.2631C53 19.4902 49.8718 16.421 46.0264 16.421ZM30.4055 40.779H11.4368C10.5123 40.779 9.76319 40.044 9.76319 39.1364C9.76319 38.2287 10.5117 37.4943 11.4368 37.4943H30.4055C31.3295 37.4943 32.0797 38.2287 32.0797 39.1364C32.0797 40.044 31.3295 40.779 30.4055 40.779ZM30.4055 31.7472H11.4368C10.5123 31.7472 9.76319 31.0122 9.76319 30.1051C9.76319 29.1974 10.5117 28.4619 11.4368 28.4619H30.4055C31.3295 28.4619 32.0797 29.1963 32.0797 30.1051C32.0797 31.0122 31.3295 31.7472 30.4055 31.7472ZM29.2902 21.0733H12.5522C11.0187 21.0733 9.76319 19.8415 9.76319 18.3369V12.8625C9.76319 11.358 11.0187 10.1261 12.5522 10.1261H29.289C30.8224 10.1261 32.078 11.358 32.078 12.8625V18.3369H32.0791C32.0797 19.8415 30.8236 21.0733 29.2902 21.0733ZM50.211 45.158C50.211 47.4211 48.3336 49.2625 46.0276 49.2625C43.7215 49.2625 41.8441 47.4205 41.8441 45.158V19.158H46.0276C48.3348 19.158 50.211 20.9988 50.211 23.2625V45.158Z" fill="black"/>
</svg>
