<svg width="67" height="67" viewBox="0 0 67 67" fill="none" xmlns="http://www.w3.org/2000/svg">
<path fill-rule="evenodd" clip-rule="evenodd" d="M27.6433 66.1886C29.5769 66.4971 31.4675 66.6495 33.3621 66.6495C42.1707 66.6495 50.5181 63.2511 56.8541 56.9151C64.5846 49.1846 67.9831 38.5601 66.2057 27.7041C63.9245 13.9461 52.7217 2.7431 38.9637 0.462097C28.1087 -1.3152 17.4437 2.0832 9.75267 9.8137C2.06517 17.5403 -1.33733 28.1657 0.479267 39.0247C2.76047 52.7397 13.9283 63.9076 27.6433 66.1886ZM14.6233 54.8296C14.3889 54.5952 14.1975 54.4038 13.967 54.2085H14.0022V52.6265C14.0022 46.2124 19.1819 41.0325 25.5572 41.0325H41.0532C47.4673 41.0325 52.6432 46.2513 52.6432 52.6265V54.2476C52.526 54.3648 52.4127 54.4702 52.2955 54.5757C52.1783 54.6851 52.065 54.7905 51.9479 54.9038L51.8307 54.9819C46.6549 59.3881 40.1627 61.8217 33.3227 61.8217C26.4829 61.8217 19.9167 59.3881 14.7757 54.9428L14.6233 54.8296ZM24.553 15.3766C26.7952 12.8258 29.9241 11.4352 33.2835 11.4352L33.3225 11.4742C34.0569 11.4742 34.8303 11.5133 35.5647 11.6695C40.0842 12.5172 43.8342 16.2672 44.6819 20.7867C45.4554 24.9195 44.0647 29.0172 40.9358 31.7597C37.8069 34.4667 33.5178 35.3144 29.4588 34.0019C26.1346 32.9199 23.3924 30.1777 22.3104 26.8535C20.9979 22.7597 21.8108 18.4708 24.553 15.3766Z" fill="black"/>
</svg>
