<svg width="60" height="55" viewBox="0 0 60 55" fill="none" xmlns="http://www.w3.org/2000/svg">
<path fill-rule="evenodd" clip-rule="evenodd" d="M38.2508 30.5714C35.2882 30.5787 32.8909 32.9059 32.8884 35.7788V49.0353H3.97901C1.78499 49.0281 0.00743251 47.3043 6.97847e-06 45.1766V41.7724C-0.00495163 35.8558 2.63283 30.2275 7.23197 26.3402C11.8283 22.4527 17.9393 20.6857 23.9813 21.4983C30.0254 22.3085 35.4103 25.619 38.7473 30.5714H38.2508ZM59.9803 35.7788V51.4972C59.9778 53.4325 58.359 55 56.3633 55H38.2507C36.2649 54.9856 34.6609 53.4229 34.6584 51.4972V35.7837C34.6609 33.858 36.2648 32.2929 38.2507 32.2761H56.3829C58.3786 32.2809 59.9975 33.8484 60 35.7837L59.9803 35.7788ZM55.9765 43.6309C55.979 39.6328 53.071 36.1875 49.0276 35.404C44.9841 34.6203 40.9306 36.7167 39.349 40.4094C37.7673 44.1022 39.0962 48.3649 42.5223 50.5886C45.9485 52.8149 50.5203 52.3821 53.4379 49.5596C55.0617 47.9873 55.9765 45.8548 55.9765 43.6309ZM52.2132 38.8995C54.546 41.157 54.908 44.696 53.0784 47.3548C51.2513 50.0114 47.7408 51.0476 44.6964 49.8262C41.6521 48.6049 39.9216 45.4675 40.5612 42.3348C41.2033 39.1998 44.037 36.9423 47.3318 36.9423C49.1639 36.9399 50.919 37.6445 52.2132 38.8995ZM52.1437 40.8878C51.8438 40.5392 51.3182 40.4791 50.9439 40.7507L45.8666 44.6719L43.8932 42.412C43.5833 42.049 43.0304 41.9961 42.6561 42.2966C42.2792 42.5947 42.2272 43.1333 42.5346 43.4963L45.0732 46.3765C45.3782 46.7275 45.9161 46.7779 46.2856 46.4943L51.9975 42.0682C52.3644 41.7749 52.4264 41.2532 52.1363 40.8878L52.1437 40.8878ZM21.1145 19.5989C23.7945 19.5965 26.3629 18.5627 28.257 16.7235C30.1511 14.8867 31.2121 12.3936 31.2121 9.79461C31.2121 7.1981 30.1461 4.70504 28.2495 2.86818C26.3554 1.03139 23.7846 0 21.1071 0C18.4271 0.002404 15.8563 1.03379 13.962 2.87059C12.068 4.70978 11.0044 7.2005 11.0044 9.79948C11.0044 12.3985 12.0704 14.8915 13.967 16.7308C15.8611 18.5676 18.4344 19.5989 21.1145 19.5989ZM39.5197 23.8013H42.6236C42.9384 23.8037 43.2111 23.5826 43.2582 23.2772C43.5508 21.2072 45.4448 19.7071 47.5967 19.8465C49.7486 19.9836 51.422 21.7097 51.432 23.8014V30.5715H55.7729V23.8014C55.9613 19.2791 52.3319 15.4661 47.6683 15.2833C43.0048 15.1006 39.0731 18.6203 38.8846 23.1428C38.8672 23.3111 38.9292 23.477 39.0507 23.5996C39.1697 23.727 39.3412 23.8013 39.5197 23.8013Z" fill="black"/>
</svg>
