<svg width="75" height="75" viewBox="0 0 75 75" fill="none" xmlns="http://www.w3.org/2000/svg">
<path d="M33.3333 0C51.7428 0 66.6667 14.9238 66.6667 33.3333C66.6667 41.0227 64.063 48.104 59.6892 53.7437L73.7739 67.7214C75.4076 69.3421 75.4181 71.9802 73.7975 73.6139C72.3015 75.1219 69.9385 75.2469 68.2989 73.9825L67.905 73.6375L53.7982 59.6469C48.1497 64.0462 41.0475 66.6667 33.3333 66.6667C14.9238 66.6667 0 51.7428 0 33.3333C0 14.9238 14.9238 0 33.3333 0ZM33.3333 8.33333C19.5262 8.33333 8.33333 19.5262 8.33333 33.3333C8.33333 47.1405 19.5262 58.3333 33.3333 58.3333C47.1405 58.3333 58.3333 47.1405 58.3333 33.3333C58.3333 19.5262 47.1405 8.33333 33.3333 8.33333Z" fill="white"/>
</svg>
