<svg width="60" height="58" viewBox="0 0 60 58" fill="none" xmlns="http://www.w3.org/2000/svg">
<path d="M37.705 13.223H39.7794C39.9281 13.223 40.0486 13.3375 40.0486 13.4789V20.8997C40.0486 21.041 39.9281 21.1556 39.7794 21.1556H37.705C37.5562 21.1556 37.4383 21.041 37.4383 20.9021V13.4813C37.4383 13.3399 37.5588 13.2254 37.7075 13.2254L37.705 13.223Z" fill="black"/>
<path d="M51.4949 12.148C51.0359 11.8507 50.3897 11.7825 49.8821 11.7898C49.8897 12.0335 49.8872 12.2796 49.8744 12.5258C49.8538 12.9279 49.4974 13.2373 49.0692 13.2203C48.6461 13.2008 48.3179 12.8572 48.3384 12.4551C48.423 10.8029 47.9487 9.15542 47.5384 8.06123C47.3922 7.67619 47.023 7.41541 46.5922 7.39595C46.2435 7.37402 45.9281 7.50074 45.7128 7.742C45.4923 7.98813 45.4102 8.31225 45.4871 8.62907C45.923 10.4397 45.9897 11.7021 45.6948 12.4916C45.1205 14.0172 42.8538 14.2633 41.5897 14.2804V20.6094C42.5486 20.9652 45.1077 21.7158 48.4768 21.1602C49.6101 20.9726 50.4742 20.4535 51.1178 19.5737C52.3511 17.8874 52.5101 15.0556 52.1357 13.1405C52.0486 12.6896 51.8409 12.3655 51.4998 12.1462L51.4949 12.148Z" fill="black"/>
<path d="M44.8717 0C36.5306 0 29.7433 6.45072 29.7433 14.3781C29.7433 22.3055 36.5306 28.7563 44.8717 28.7563C53.2127 28.7563 60 22.3055 60 14.3781C60 6.45072 53.2127 0 44.8717 0ZM52.3745 20.4121C51.495 21.6135 50.2693 22.3519 48.7334 22.6029C47.7745 22.7613 46.8719 22.8247 46.0462 22.8247C43.7436 22.8247 42.0282 22.3349 41.1385 22.0132C40.8077 22.3763 40.3231 22.6127 39.7795 22.6127H37.7051C36.7102 22.6127 35.8974 21.8426 35.8974 20.8946V13.4738C35.8974 12.5283 36.7077 11.7557 37.7051 11.7557H39.7795C40.5308 11.7557 41.1769 12.1968 41.4487 12.8182C42.6308 12.8134 44.0283 12.5672 44.2436 11.997C44.3308 11.7655 44.4795 11.0076 43.9846 8.95566C43.7975 8.18313 44 7.39357 44.5385 6.79161C45.0744 6.19455 45.8616 5.88751 46.6744 5.9338C47.7154 5.97766 48.6283 6.61861 48.9846 7.56657C49.2616 8.3001 49.559 9.26272 49.7333 10.3252C50.4487 10.2984 51.4923 10.3788 52.3487 10.9296C53.0308 11.3658 53.477 12.0384 53.6411 12.8719C53.9744 14.5729 54.0821 18.0747 52.3744 20.4093L52.3745 20.4121Z" fill="black"/>
<path d="M39.5232 29.2438C31.1822 29.2438 24.3949 35.6945 24.3949 43.6219C24.3949 51.5493 31.1822 58 39.5232 58C47.8643 58 54.6516 51.5493 54.6516 43.6219C54.6516 35.6945 47.8643 29.2438 39.5232 29.2438ZM46.7516 45.5203L42.1157 49.9263C41.4004 50.6062 40.4619 50.945 39.5234 50.945C38.5849 50.945 37.6439 50.6062 36.9286 49.9263L32.2926 45.5203C30.1901 43.5244 29.9644 40.3247 31.7773 38.2386C32.8003 37.0616 34.2439 36.3719 35.8388 36.2988C37.1644 36.2427 38.4773 36.6351 39.5209 37.3978C40.5671 36.635 41.8696 36.2451 43.2055 36.2988C44.8004 36.3719 46.244 37.0591 47.2671 38.2386C49.0799 40.3247 48.8542 43.522 46.7516 45.5203Z" fill="black"/>
<path d="M43.1335 37.7632C41.9924 37.7096 40.8745 38.1214 40.0668 38.8891C39.7668 39.1742 39.2796 39.1742 38.9796 38.8891C38.1719 38.1214 37.0489 37.712 35.9129 37.7632C34.7565 37.8144 33.7078 38.3164 32.9642 39.1718C31.6514 40.6827 31.836 43.0173 33.3822 44.4867L38.0181 48.8928C38.8488 49.6823 40.2001 49.6823 41.0283 48.8928L45.6642 44.4867C47.2104 43.0172 47.395 40.6826 46.0822 39.1718C45.3386 38.3164 44.2924 37.8144 43.1335 37.7632Z" fill="black"/>
<path d="M13.0048 29.0485H22.7972L17.8998 21.8884L13.0048 29.0485Z" fill="black"/>
<path d="M30.2566 24.1892C30.2566 16.2618 23.4694 9.81108 15.1283 9.81108C6.7873 9.81108 0 16.2593 0 24.1892C0 32.1166 6.7873 38.5673 15.1283 38.5673C23.4694 38.5673 30.2566 32.1166 30.2566 24.1892ZM8.09225 19.0862C8.94099 19.0862 9.63074 19.7418 9.63074 20.5484C9.63074 21.3551 8.94099 22.0106 8.09225 22.0106C7.24351 22.0106 6.55375 21.3551 6.55375 20.5484C6.55375 19.7418 7.24351 19.0862 8.09225 19.0862ZM24.8898 30.1304C24.7539 30.3668 24.495 30.513 24.2129 30.513L6.77929 30.5106C6.49211 30.5106 6.22801 30.3571 6.09465 30.1158C5.96388 29.8721 5.9844 29.5797 6.15106 29.3579L11.2921 22.4711C11.5793 22.0837 12.2588 22.0837 12.546 22.4711L14.1742 24.6546L17.2537 20.1511C17.5383 19.7368 18.2614 19.7368 18.5434 20.1511L24.8562 29.3824C25.0101 29.6066 25.0229 29.8941 24.887 30.1305L24.8898 30.1304Z" fill="black"/>
<path d="M11.9178 24.1574L8.26654 29.0483H11.1691L12.1255 27.6495L13.2742 25.9704L11.9178 24.1574Z" fill="black"/>
</svg>
