<svg width="57" height="49" viewBox="0 0 57 49" fill="none" xmlns="http://www.w3.org/2000/svg">
<path d="M18.9567 33.9782C19.081 33.7887 19.2052 33.6023 19.3294 33.4189C20.6269 31.5302 22.1674 29.8799 23.8873 28.4954C21.3282 26.7992 18.3411 25.8518 15.2545 25.8518H15.1193C9.93471 25.8518 5.01505 28.5045 1.96478 32.9482C1.87091 33.0827 1.78257 33.2202 1.69147 33.3578L1.06203 34.3297C-0.180268 36.2428 -0.343171 38.6389 0.628606 40.7385C1.60037 42.8381 3.4528 44.0912 5.58127 44.0912H16.8615C16.0222 41.0838 16.4778 37.8015 18.1784 35.1821L18.9567 33.9782Z" fill="black"/>
<path d="M23.3187 13.9115C23.3187 18.884 19.6774 22.9121 15.1884 22.9121C10.6967 22.9121 7.05528 18.8841 7.05528 13.9115C7.05528 8.93902 10.6966 4.911 15.1884 4.911C19.6773 4.911 23.3187 8.93902 23.3187 13.9115Z" fill="black"/>
<path d="M55.177 36.4999L54.3985 35.2988C54.288 35.1276 54.1721 34.9565 54.0589 34.7884C50.2382 29.2261 44.0847 25.9044 37.5941 25.9044H37.4257C33.9251 25.9044 30.5295 26.8763 27.537 28.6397C27.2195 28.8261 26.9048 29.0248 26.5984 29.2296C26.2892 29.4343 25.9855 29.6483 25.6873 29.8713C23.8874 31.2161 22.2834 32.8633 20.961 34.7888C20.8451 34.9569 20.7319 35.128 20.6187 35.3022L19.8402 36.5002C18.3688 38.7648 18.0954 41.5551 19.0423 44.0857C19.1196 44.2935 19.1887 44.5013 19.2825 44.7061C19.3653 44.8864 19.4675 45.0484 19.5613 45.2195C19.7822 45.6229 20.0251 46.005 20.2985 46.3503C21.6264 48.0312 23.5147 49 25.6239 49H49.3907C52.1183 49 54.4897 47.3955 55.7348 44.7091C56.9771 42.0196 56.7699 38.9508 55.177 36.4999Z" fill="black"/>
<path d="M37.5086 22.8049C43.1873 22.8049 47.8085 17.6889 47.8085 11.4025C47.8085 5.11586 43.1871 0 37.5086 0C31.8298 0 27.2086 5.11609 27.2086 11.4025C27.2058 17.6921 31.8272 22.8049 37.5086 22.8049Z" fill="black"/>
</svg>
