<svg width="497" height="392" fill="none" xmlns="http://www.w3.org/2000/svg"><path d="M36.879 202.346c25.866 7.373 83.794-18.031 107.599-43.801 23.804-25.77 91.255-124.237 47.002-142.155-28.332-11.47-80.799 70.636-112.47 83.516-58.515 23.797-88.902 89.109-42.134 102.443l.003-.003z" fill="#9E94FF" fill-opacity=".12"/><path d="M401.72 317.437s131.924-77.615 85.306-213.394c-46.621-135.778-200.199-116.3-246.904-66.776-46.705 49.524-63.568 124.308-137.96 156.378-74.396 32.07-134.922 77.709-82.34 157.383 52.582 79.674 291.634 12.467 381.898-33.594v.003z" fill="#9E94FF" fill-opacity=".12"/><mask id="a" style="mask-type:luminance" maskUnits="userSpaceOnUse" x="0" y="0" width="497" height="388"><path d="M401.72 317.437s131.924-77.615 85.306-213.394c-46.621-135.778-200.199-116.3-246.904-66.776-46.705 49.524-63.568 124.308-137.96 156.378-74.396 32.07-134.922 77.709-82.34 157.383 52.582 79.674 291.634 12.467 381.898-33.594v.003z" fill="#fff"/></mask><g mask="url(#a)" stroke="#fff" stroke-width="4.48" stroke-linecap="round" stroke-linejoin="round"><path d="M-109.477 332.965s-1.507-36.274 23.553-53.456c25.06-17.182 59.952-15.378 83.224-45.826 23.273-30.448 29.284-65.344 19.31-91.017 0 0-16.416-16.384 3.59-87.008 20.006-70.625 33.623-98.433 5.375-116.196"/><path d="M71.843-56.613c25.681 16.148 9.156 47.85-8.922 117.787-1.428 5.524-2.535 10.765-3.55 15.686-11.33 54.955 1.443 70.022 2.22 72.414 8.861 27.268 5.26 61.977-17.412 92.535-22.672 30.559-57.119 31.116-82.01 48.995-24.118 17.323-23.857 51.939-23.89 54.111"/><path d="M118.108-52.686c23.111 14.532 3.718 50.144-12.469 119.375-1.306 5.584-2.197 10.916-3.084 15.928-9.252 52.234 2.486 68.472 4.012 73.263 9.049 28.415 6.554 63.385-15.519 94.053-22.073 30.669-56.08 33.571-80.796 52.163-23.183 17.439-24.16 50.418-24.224 54.762"/><path d="M164.374-48.758c20.544 12.917-1.686 52.451-16.016 120.963-1.18 5.644-1.865 11.063-2.62 16.169-7.311 49.469 3.556 66.912 5.805 74.112 9.237 29.562 7.85 64.789-13.622 95.571-21.472 30.782-55.051 36.009-79.582 55.331-22.26 17.536-24.464 48.898-24.56 55.414"/><path d="M210.639-44.831c17.977 11.303-7.051 54.773-19.563 122.555-1.053 5.706-1.541 11.207-2.154 16.412-5.502 46.666 4.649 65.349 7.6 74.965 9.428 30.714 9.142 66.196-11.729 97.085-20.87 30.892-54.03 38.427-78.364 58.503-21.353 17.615-24.77 47.38-24.895 56.065"/><path d="M256.907-40.9c15.41 9.689-12.382 57.1-23.114 124.143-.922 5.768-1.225 11.346-1.688 16.652-3.825 43.835 5.762 63.778 9.393 75.815 9.616 31.866 10.437 67.6-9.832 98.603-20.272 31.002-53.025 40.828-77.151 61.671-20.457 17.674-25.074 45.86-25.23 56.716"/><path d="M303.173-36.974c12.839 8.073-17.679 59.437-26.661 125.735-.79 5.83-.926 11.485-1.223 16.896-2.273 40.984 6.892 62.204 11.185 76.664 9.806 33.019 11.732 69.008-7.939 100.121-19.67 31.116-52.036 43.21-75.936 64.84-19.578 17.717-25.377 44.339-25.562 57.367"/><path d="M349.438-33.046c10.272 6.459-22.941 61.776-30.209 127.323-.653 5.893-.636 11.624-.757 17.137-.844 38.124 8.037 60.623 12.981 77.516 9.997 34.177 13.027 70.412-6.043 101.636-19.069 31.226-51.064 45.571-74.722 68.008-18.71 17.745-25.681 42.822-25.897 58.021"/><path d="M395.703-29.119c7.705 4.845-28.167 64.118-33.756 128.915-.514 5.955-.367 11.759-.292 17.377.472 35.267 9.2 59.041 14.774 78.366 10.188 35.335 14.319 71.82-4.146 103.153-18.468 31.337-50.113 47.916-73.508 71.177-17.861 17.76-25.984 41.301-26.233 58.673"/><path d="M441.969-25.191c5.137 3.23-33.36 66.456-37.303 130.503-.371 6.017-.125 11.901.173 17.621 1.68 32.426 10.376 57.452 16.566 79.215 10.381 36.493 15.614 73.224-2.252 104.671-17.87 31.45-49.189 50.24-72.294 74.345-17.025 17.762-26.288 39.781-26.568 59.324"/><path d="M488.237-21.264c2.567 1.614-38.52 68.792-40.85 132.094-.223 6.08.089 12.046.636 17.862 2.787 29.621 11.564 55.864 18.361 80.068 10.572 37.654 16.909 74.628-.356 106.186-17.268 31.56-48.289 52.547-71.076 77.513-16.207 17.754-26.592 38.263-26.904 59.975"/><path d="M534.502-17.337s-52.643 85.77-43.293 151.785c9.347 66.018 49.798 135.213 21.692 188.621-28.107 53.409-96.258 82.622-97.102 141.312"/></g><mask id="b" style="mask-type:luminance" maskUnits="userSpaceOnUse" x="14" y="15" width="193" height="189"><path d="M36.879 202.346c25.866 7.373 83.794-18.031 107.599-43.801 23.804-25.77 91.255-124.237 47.002-142.155-28.332-11.47-80.799 70.636-112.47 83.516-58.515 23.797-88.902 89.109-42.134 102.443l.003-.003z" fill="#fff"/></mask><g mask="url(#b)" stroke="#fff" stroke-width="4.48" stroke-linecap="round" stroke-linejoin="round"><path d="M71.844-56.613c25.68 16.148 9.155 47.85-8.922 117.787-1.428 5.524-2.536 10.765-3.55 15.686-11.33 54.955 1.442 70.022 2.22 72.414 8.86 27.268 5.259 61.977-17.413 92.536-22.671 30.558-57.118 31.115-82.01 48.994-24.117 17.323-23.857 51.939-23.889 54.111"/><path d="M118.108-52.686c23.111 14.532 3.718 50.144-12.469 119.375-1.306 5.584-2.197 10.916-3.084 15.928-9.252 52.234 2.486 68.472 4.012 73.263 9.049 28.415 6.554 63.385-15.519 94.053-22.073 30.669-56.08 33.571-80.796 52.163-23.183 17.439-24.16 50.418-24.224 54.762"/><path d="M164.374-48.758c20.544 12.917-1.686 52.451-16.016 120.963-1.18 5.644-1.865 11.063-2.62 16.169-7.311 49.469 3.556 66.912 5.805 74.112 9.237 29.562 7.85 64.789-13.622 95.571-21.472 30.782-55.051 36.009-79.582 55.331-22.26 17.536-24.464 48.898-24.56 55.414"/><path d="M210.639-44.831c17.977 11.303-7.051 54.773-19.563 122.555-1.053 5.706-1.541 11.207-2.154 16.412-5.502 46.666 4.649 65.349 7.6 74.965 9.428 30.714 9.142 66.196-11.729 97.085-20.87 30.892-54.03 38.427-78.364 58.503-21.353 17.615-24.77 47.38-24.895 56.064"/><path d="M256.908-40.9c15.409 9.689-12.383 57.1-23.114 124.143-.922 5.768-1.226 11.346-1.688 16.652-3.825 43.835 5.761 63.778 9.393 75.815 9.615 31.866 10.436 67.6-9.833 98.603-20.272 31.002-53.024 40.828-77.15 61.671-20.457 17.674-25.074 45.86-25.23 56.716"/><path d="M303.173-36.974c12.839 8.073-17.678 59.437-26.661 125.735-.789 5.83-.925 11.485-1.223 16.896-2.272 40.984 6.892 62.204 11.186 76.664 9.806 33.019 11.731 69.008-7.939 100.121-19.671 31.116-52.036 43.21-75.936 64.84-19.578 17.717-25.378 44.339-25.563 57.367"/></g><path d="M446.684 386.584c0 2.729-2.258 4.941-5.045 4.941H46.035c-2.787 0-5.045-2.212-5.045-4.941 0-2.73 2.258-4.941 5.045-4.941H441.64c2.787 0 5.045 2.211 5.045 4.941z" fill="#3A3764"/><path d="M312.816 136.16c1.742-7.457-3.02-14.885-10.634-16.591-7.614-1.705-15.199 2.958-16.94 10.416-1.741 7.458 3.02 14.886 10.635 16.591 7.614 1.705 15.198-2.958 16.939-10.416z" fill="#4D4690"/><path d="M363.335 202.346h-50.174l6.476-47.873h35.929l7.769 47.873z" fill="#FF9D9A"/><path d="M292.111 104.043h66.954v38.133c0 18.096-15.002 32.789-33.479 32.789-18.476 0-33.478-14.693-33.478-32.789v-38.133h.003z" fill="#FEB3B0"/><path d="M335.37 105.142s-1.764 34.542 23.695 42.745c0 0 33.394-10.794 27.664-47.281-5.73-36.485-47.832-34.757-59.957-32.6-12.122 2.158-33.065 17.703-50.258 4.967 0 0-5.4 28.496 15.594 36.702 20.995 8.203 43.259-4.533 43.259-4.533h.003z" fill="#3A3764"/><path d="M370.034 196.949c-35.329 18.677-64.375 1.617-64.375 1.617 5.406-3.381 8.681-4.921 8.681-4.921s19.801 14.885 47.584 0c0 0 3.082.875 8.107 3.304h.003zM177.082 381.643h-6.152c-2.064-4.293 0-9.551 0-9.551s2.356-.756 6.144-1.991c-.136.298-3.438 7.419.005 11.542h.003z" fill="#4D4690"/><path d="M170.933 381.643h-22.538c4.888-3.217 13.715-8.257 22.538-9.551 0 0-2.064 5.258 0 9.551z" fill="#FEB3B0"/><path d="M440.953 381.643H334.02c-9.344-13.439 0-30.612 0-30.612-6.722 5.054-10.665 8.916-10.665 8.916-27.113 1.94-40.004 21.696-40.004 21.696H177.082c-3.446-4.123-.141-11.244-.005-11.542.005 0 .005-.005.005-.005 12.53-11.281 32.533-22.616 49.183-24.89 0 0-1.298-59.578 27.56-98.116 19.575-26.135 40.437-41.405 51.834-48.521 0 0 29.046 17.06 64.374-1.617 13.695 6.615 41.848 24.759 61.441 68.11 26.779 59.264 13.449 109.187 9.479 116.581z" fill="#7A70D9"/><path d="M334.02 351.031c10.795-8.118 28.743-19.306 49.014-22.494 0 0-7.27-23.318-5.949-44.69" stroke="#4D4690" stroke-width="4.48" stroke-linecap="round" stroke-linejoin="round"/><path d="M325.502 381.643h-42.151s12.891-19.756 40.003-21.696c0 0-2.972 13.116 2.151 21.696h-.003z" fill="#FEB3B0"/><path d="M334.019 381.643h-8.514c-5.123-8.58-2.151-21.696-2.151-21.696s3.944-3.862 10.665-8.916c0 0-9.343 17.173 0 30.612z" fill="#4D4690"/><path d="M177.081 370.093s0 .005-.005.005" stroke="#EC1C24" stroke-width="2.2" stroke-miterlimit="10"/><path d="M276.075 278.178s-8.928 67.031-1.654 103.465" stroke="#4D4690" stroke-width="4.48" stroke-linecap="round" stroke-linejoin="round"/><path d="M329.868 281.947h33.559v16.434c0 9.069-7.519 16.434-16.779 16.434s-16.78-7.365-16.78-16.434v-16.434zM357.859 152.27c10.83 0 19.61-8.599 19.61-19.206 0-10.608-8.78-19.207-19.61-19.207s-19.61 8.599-19.61 19.207c0 10.607 8.78 19.206 19.61 19.206z" fill="#4D4690"/><path d="M370.854 130.937c0 5.428-4.487 9.823-10.023 9.823s-10.029-4.395-10.029-9.823c0-3.208 1.573-6.056 4.001-7.852l-.078-2.619c-.098-3.315-.24-6.614-.422-9.887-.381-6.539-.971-13.02-2.188-19.133-.622-3.044-1.394-6-2.44-8.702-.998-2.726-2.397-5.074-3.924-7.053-1.546-1.98-3.316-3.607-5.897-4.927-1.29-.645-2.764-1.186-4.398-1.656-1.639-.44-3.411-.779-5.342-1.192l-.072-.255c2.914-2.563 6.727-4.225 11.092-4.39 2.174-.096 4.456.242 6.618.989 2.168.748 4.204 1.903 5.956 3.29 1.766 1.388 3.264 2.999 4.527 4.692a39.488 39.488 0 0 1 3.29 5.224c1.833 3.571 3.171 7.212 4.143 10.857 1.963 7.285 2.738 14.568 2.868 21.757a106.39 106.39 0 0 1-.362 10.737 80.479 80.479 0 0 1-.312 3.115 9.683 9.683 0 0 1 2.992 6.994v.011z" fill="#7A70D9"/><path d="M348.154 145.081s-12.345 31.521-44.967 31.521" stroke="#3A3764" stroke-width="4.48" stroke-linecap="round" stroke-linejoin="round"/><path d="M299.376 180.119h-3.729c-1.983 0-3.591-1.575-3.591-3.517 0-1.943 1.608-3.517 3.591-3.517h3.729c1.984 0 3.591 1.574 3.591 3.517 0 1.942-1.607 3.517-3.591 3.517z" fill="#4D4690"/><path d="M217.332 326.345H58.955l-25.9-101.683H191.43l25.901 101.683z" fill="#9E94FF"/><path d="M197.575 220.451H39.53l-6.476 4.211h158.048l6.473-4.211z" fill="#7A70D9"/><path d="m223.475 322.384-6.091 3.961-25.901-101.93 6.091-3.964 25.901 101.933zM164.319 309.758H97.065l-10.998-43.181h67.255l10.997 43.181z" fill="#7A70D9"/><path d="M120.673 285.435s-29.538 62.662-39.457 75.481c-9.92 12.818-30.2 20.806-30.2 20.806h118.148s-36.592-7.07-42.102-20.806c-5.51-13.736 10.801-60.369 10.801-60.369s4.848-17.918-17.193-15.112h.003z" fill="#7A70D9"/><path d="M133.928 134.06c0 4.707-1.948 8.968-5.097 12.052a17.534 17.534 0 0 1-12.304 4.992H72.502l1.073 9.737-9.133-9.737H54.29c-9.616 0-17.407-7.631-17.407-17.044 0-4.711 1.948-8.973 5.097-12.056 3.148-3.084 7.5-4.992 12.31-4.992h62.238c9.61 0 17.401 7.631 17.401 17.048z" fill="#fff"/><path d="M121.364 123.708H49.44v5.182h71.924v-5.182z" fill="#AEEAA7"/><path d="M99.733 133.743H49.44v5.182h50.293v-5.182z" fill="#9E94FF"/><path d="M155.03 184.748c0 4.126 1.708 7.863 4.469 10.567a15.37 15.37 0 0 0 10.79 4.378h38.601l-.94 8.537 8.006-8.537h8.901c8.43 0 15.262-6.691 15.262-14.942 0-4.131-1.709-7.869-4.47-10.57a15.373 15.373 0 0 0-10.792-4.378h-54.568c-8.425 0-15.256 6.691-15.256 14.948l-.003-.003z" fill="#fff"/><path d="M228.372 176.602h-61.59v5.182h61.59v-5.182z" fill="#9E94FF"/><path d="M209.847 186.637h-43.065v5.182h43.065v-5.182z" fill="#AEEAA7"/><path d="M137.73 69.614c0 6.051 2.507 11.53 6.554 15.495 4.047 3.964 9.642 6.419 15.82 6.419h56.598l-1.379 12.518 11.74-12.518h13.053c12.362 0 22.377-9.812 22.377-21.91 0-6.057-2.507-11.536-6.554-15.5-4.048-3.965-9.642-6.42-15.826-6.42h-80.012c-12.354 0-22.371 9.812-22.371 21.916z" fill="#fff"/><path d="M247.821 55.703h-95.422v5.182h95.422v-5.182z" fill="#9E94FF"/><path d="M228.778 67.046h-76.379v5.17h76.379v-5.17z" fill="#AEEAA7"/></svg>