<svg xmlns="http://www.w3.org/2000/svg" xmlns:xlink="http://www.w3.org/1999/xlink" width="800" zoomAndPan="magnify" viewBox="0 0 525 525.000007" height="700" preserveAspectRatio="xMidYMid meet" version="1.0"><defs><clipPath id="3e9a570158"><path d="M 0.5 0 L 524.5 0 L 524.5 524 L 0.5 524 Z M 0.5 0 " clip-rule="nonzero"/></clipPath><clipPath id="a5aeabda6a"><path d="M 188.636719 150.710938 L 411.21875 150.710938 L 411.21875 373.292969 L 188.636719 373.292969 Z M 188.636719 150.710938 " clip-rule="nonzero"/></clipPath><clipPath id="dca8903d3d"><path d="M 299.929688 150.710938 C 238.464844 150.710938 188.636719 200.535156 188.636719 262 C 188.636719 323.464844 238.464844 373.292969 299.929688 373.292969 C 361.394531 373.292969 411.21875 323.464844 411.21875 262 C 411.21875 200.535156 361.394531 150.710938 299.929688 150.710938 Z M 299.929688 150.710938 " clip-rule="nonzero"/></clipPath></defs><g clip-path="url(#3e9a570158)"><path fill="#ffffff" d="M 0.5 0 L 599.359375 0 L 599.359375 524 L 0.5 524 Z M 0.5 0 " fill-opacity="1" fill-rule="nonzero"/><path fill="#ffffff" d="M 0.5 0 L 599.359375 0 L 599.359375 524 L 0.5 524 Z M 0.5 0 " fill-opacity="1" fill-rule="nonzero"/></g><g clip-path="url(#a5aeabda6a)"><g clip-path="url(#dca8903d3d)"><path fill="#e6e3f1" d="M 188.636719 150.710938 L 411.21875 150.710938 L 411.21875 373.292969 L 188.636719 373.292969 Z M 188.636719 150.710938 " fill-opacity="1" fill-rule="nonzero"/></g></g></svg>